<?xml version="1.0" ?><svg xmlns="http://www.w3.org/2000/svg" id="Layer_2" viewBox="0 0 32 32"><defs><style>.cls-1{fill:none;}.cls-1,.cls-2{stroke-width:0px;}</style></defs><g id="icons"><g id="Person"><g id="User"><path class="cls-2" d="m31,30h-2v-3c0-1.66-1.34-3-3-3h-4c-1.66,0-3,1.34-3,3v3h-2v-3c0-2.76,2.24-5,5-5h4c2.76,0,5,2.24,5,5v3Z"/><path class="cls-2" d="m24,12c1.66,0,3,1.34,3,3s-1.34,3-3,3-3-1.34-3-3c0-1.66,1.34-3,3-3m0-2c-2.76,0-5,2.24-5,5s2.24,5,5,5,5-2.24,5-5-2.24-5-5-5Z"/><path class="cls-2" d="m15,22h-2v-3c0-1.66-1.34-3-3-3h-4c-1.66,0-3,1.34-3,3v3H1v-3c0-2.76,2.24-5,5-5h4c2.76,0,5,2.24,5,5v3Z"/><path class="cls-2" d="m8,4c1.66,0,3,1.34,3,3s-1.34,3-3,3-3-1.34-3-3c0-1.66,1.34-3,3-3m0-2c-2.76,0-5,2.24-5,5s2.24,5,5,5,5-2.24,5-5-2.24-5-5-5Z"/><rect id="_Transparent_Rectangle_" class="cls-1" width="32" height="32"/></g></g></g></svg>