<?xml version="1.0" encoding="UTF-8" standalone="no"?>
<!-- Created with Inkscape (http://www.inkscape.org/) -->

<svg
   version="1.1"
   id="svg2"
   width="1209.0874"
   height="908.12646"
   viewBox="0 0 1209.0874 908.12645"
   sodipodi:docname="Badminton_players_man.svg"
   inkscape:export-filename="Badminton_players.eps.svg"
   inkscape:export-xdpi="96"
   inkscape:export-ydpi="96"
   inkscape:version="1.2.2 (732a01da63, 2022-12-09)"
   xmlns:inkscape="http://www.inkscape.org/namespaces/inkscape"
   xmlns:sodipodi="http://sodipodi.sourceforge.net/DTD/sodipodi-0.dtd"
   xmlns="http://www.w3.org/2000/svg"
   xmlns:svg="http://www.w3.org/2000/svg">
  <defs
     id="defs6">
    <clipPath
       clipPathUnits="userSpaceOnUse"
       id="clipPath58">
      <path
         d="m 14525.6,8093.89 c -0.1,14.75 -16,31 -30.5,28.57 5.6,9.64 -1.5,22.71 -11.7,27.33 -10.2,4.62 -22,3.24 -33.1,1.75 -86,-11.49 -172.8,-18.24 -258.8,-30.52 -144.7,-20.68 -281,-94.7 -378.1,-203.87 -20.3,-19.03 -53.8,-50.5 -53.8,-50.5 -141.9,-133.16 -302.1,-246.81 -474.6,-336.73 -158.3,-82.52 -330.6,-148.16 -463.9,-266.94 -124.4,-23.72 -255,-61.9 -369.7,-115.55 0,2.87 -3.4,3.96 -3.4,6.82 -0.7,0.19 -1.4,0.25 -2.1,0.43 -11.3,-62.38 -7.8,-127.07 1.5,-191.18 145.8,55.21 307,76.87 461.6,72.76 278.5,331.74 787,416.85 1024.7,778.94 68.7,-25.35 145.2,-27.72 215.9,-8.72 13.8,10.53 27.4,21.36 41.1,31.85 73,55.5 162.5,97.63 242.1,143.09 18.2,10.4 37.7,23.99 57.4,31.04 10.5,3.74 18.3,14.18 18.8,25.29 0.5,11.12 -2.7,25.89 -12.8,30.59 14.6,-2.18 29.5,10.8 29.4,25.55 z"
         id="path56" />
    </clipPath>
    <linearGradient
       x1="0"
       y1="0"
       x2="1"
       y2="0"
       gradientUnits="userSpaceOnUse"
       gradientTransform="matrix(-2613.67,1889.4,1889.4,2613.67,15051.3,6410.47)"
       spreadMethod="pad"
       id="linearGradient64">
      <stop
         style="stop-opacity:1;stop-color:#e16839"
         offset="0"
         id="stop60" />
      <stop
         style="stop-opacity:1;stop-color:#fabfbc"
         offset="1"
         id="stop62" />
    </linearGradient>
    <clipPath
       clipPathUnits="userSpaceOnUse"
       id="clipPath76">
      <path
         d="m 9951.91,6579.93 c -33.35,-140.14 -35.56,-287.6 -6.42,-428.67 156.61,98.26 348.21,152.89 535.31,163.13 3.2,44.73 6,89.35 8.8,133.6 -108.3,-6.79 -217.5,-15.06 -324.3,-33.46 -35.9,112.68 -46.7,233.44 -37.4,351.37 30.6,42.41 39.2,95.48 63.4,141.84 12.6,24.08 33.3,42.66 50,64.08 16.7,21.42 29.8,48.77 23.2,75.09 -4.1,16.26 -15.2,29.68 -26,42.58 -11.8,14.19 -23.6,28.3 -35.4,42.49 -24.9,29.68 -49.7,59.44 -74.6,89.11 -11.1,13.33 -22.2,26.75 -33.4,40.08 -6.4,7.66 -14,15.91 -23.9,16.52 -15,0.94 -25,-15.74 -27.3,-30.54 -2.4,-14.88 -1.8,-31.05 -10.4,-43.35 -6.8,4.91 -14.6,10.15 -22.8,8.77 -10.93,-1.89 -16.61,-14.1 -18.59,-25.03 -1.97,-10.83 -2.15,-22.01 -9.46,-30.45 -11.61,2.5 -24.6,4.65 -34.57,-1.88 -8.7,-5.77 -12.48,-17.04 -11.97,-27.45 0.52,-10.49 2.93,-19.26 6.98,-28.9 -16.35,-2.83 -23.06,-22.36 -25.3,-38.79 -11.27,-82.32 9.72,-170.05 59.36,-236.63 -1.49,-6.44 -3.73,-13.05 -6.32,-19.69 7.87,-23.42 11.1,-48.87 10.33,-73.52 -1.6,-51.12 -17.4,-100.55 -29.25,-150.3 z"
         id="path74" />
    </clipPath>
    <linearGradient
       x1="0"
       y1="0"
       x2="1"
       y2="0"
       gradientUnits="userSpaceOnUse"
       gradientTransform="matrix(-4729.16,2231.74,2231.74,4729.16,13486.2,5074.02)"
       spreadMethod="pad"
       id="linearGradient82">
      <stop
         style="stop-opacity:1;stop-color:#e16839"
         offset="0"
         id="stop78" />
      <stop
         style="stop-opacity:1;stop-color:#fabfbc"
         offset="1"
         id="stop80" />
    </linearGradient>
    <clipPath
       clipPathUnits="userSpaceOnUse"
       id="clipPath100">
      <path
         d="m 9952.48,3713.65 c 61.92,-26.71 116.12,-54.07 138.72,-75.18 57.2,-53.48 111.1,-111.54 177.3,-153.41 66.1,-41.88 135.8,-57.17 211,-35.22 72.6,94.53 171.6,164.63 259.1,245.63 181.9,168.4 314.9,388.56 381.4,627.26 -11.4,8.36 -23.3,16.19 -35.7,23.14 -105.7,59.18 -235,55.22 -354.4,31.83 -103.6,-207.3 -207.1,-422.77 -301.4,-633.68 -48.6,45.34 -115.3,67.27 -181.4,73.21 -45.8,4.17 -91.8,7.32 -137.7,6.07 -48.9,-19.34 -94.9,-46.06 -132.52,-82.57 -8.7,-8.44 -16.74,-17.6 -24.4,-27.08 z"
         id="path98" />
    </clipPath>
    <linearGradient
       x1="0"
       y1="0"
       x2="1"
       y2="0"
       gradientUnits="userSpaceOnUse"
       gradientTransform="matrix(-2613.67,1889.4,1889.4,2613.67,12365.6,2695.17)"
       spreadMethod="pad"
       id="linearGradient106">
      <stop
         style="stop-opacity:1;stop-color:#e16839"
         offset="0"
         id="stop102" />
      <stop
         style="stop-opacity:1;stop-color:#fabfbc"
         offset="1"
         id="stop104" />
    </linearGradient>
    <clipPath
       clipPathUnits="userSpaceOnUse"
       id="clipPath124">
      <path
         d="m 10597.7,3134.16 c -25.5,-36.87 -36.8,-81.9 -41.4,-126.52 -2,-19.95 -2.8,-40.11 -2.1,-60.19 286.2,-11.11 571.8,-51.47 853.2,-108.61 100.7,176.28 220.9,344.25 284.8,536.95 45.2,136.53 57,291.9 13.9,426.35 -100.5,25.51 -198.2,65.2 -294.5,104.72 -10.8,-9.3 -27.6,-24.26 -38.4,-33.55 0,0.08 0,0.08 0,0.17 -11,-14.02 -22.1,-27.95 -33.3,-41.8 2.9,-237.4 -26.9,-478.94 -93.6,-706.27 -87.5,62.96 -200.1,81.03 -307.8,77.93 -84.7,-2.5 -168.6,-16.94 -252.8,-27.87 -18.4,-2.36 -36.8,-4.47 -55.2,-6.37 -12.6,-9.95 -23.7,-21.83 -32.8,-34.94 z"
         id="path122" />
    </clipPath>
    <linearGradient
       x1="0"
       y1="0"
       x2="1"
       y2="0"
       gradientUnits="userSpaceOnUse"
       gradientTransform="matrix(-2613.67,1889.39,1889.39,2613.67,12264.2,2554.99)"
       spreadMethod="pad"
       id="linearGradient130">
      <stop
         style="stop-opacity:1;stop-color:#e16839"
         offset="0"
         id="stop126" />
      <stop
         style="stop-opacity:1;stop-color:#fabfbc"
         offset="1"
         id="stop128" />
    </linearGradient>
    <clipPath
       clipPathUnits="userSpaceOnUse"
       id="clipPath140">
      <path
         d="m 11356.7,6840.48 c 7,24.66 16,50.18 10.9,75.31 -14.9,73.71 -131.1,85.11 -153.2,156.99 129.6,-61.57 296.1,-84.82 437.8,-54.94 2.1,3.83 3.5,7.86 3.9,11.95 4.9,60.99 9.9,121.97 14.8,182.96 2.6,32.34 5.1,65.54 -4.4,96.5 -24.9,79.92 -123.2,124.04 -140,205.07 -28.5,12.04 -54.2,31.05 -73.8,55.13 -16.1,-9.72 -43.2,-12.13 -61.3,-6.96 -18.1,5.15 -35.2,13.58 -53.7,17.11 -29.3,5.59 -60.9,-2.15 -84.3,-20.73 -23.4,-18.58 -38.1,-47.65 -39.2,-77.5 -1.8,-48.08 -1.7,-102.19 -36.9,-135.04 8.3,-56.95 10.8,-119.13 8.7,-176.68 -37,24.69 -84.6,30.54 -128.6,23.66 -7.9,-18.58 -15.9,-37.42 -18.9,-57.37 -3.1,-20.05 -0.7,-41.64 10.8,-58.23 13,-18.84 35.9,-28.82 58.5,-31.23 22.7,-2.5 45.5,1.64 68,6.11 1.4,-47.83 -0.2,-95.82 -3.7,-143.56 1.3,-1.2 2.5,-2.41 3.7,-3.7 9.4,-47.83 13.1,-99.26 7.6,-147.86 0.1,-0.09 0,-0.17 0,-0.17 2.8,-14.28 5.3,-28.3 5,-42.84 h 87.5 c 24.8,-26.36 50.2,-58.3 73,-88.44 -15.9,69.94 -11.9,145.09 7.8,214.46 z"
         id="path138" />
    </clipPath>
    <linearGradient
       x1="0"
       y1="0"
       x2="1"
       y2="0"
       gradientUnits="userSpaceOnUse"
       gradientTransform="matrix(636.032,0,0,-636.032,11037.2,7103.7)"
       spreadMethod="pad"
       id="linearGradient146">
      <stop
         style="stop-opacity:1;stop-color:#e16839"
         offset="0"
         id="stop142" />
      <stop
         style="stop-opacity:1;stop-color:#fabfbc"
         offset="1"
         id="stop144" />
    </linearGradient>
    <clipPath
       clipPathUnits="userSpaceOnUse"
       id="clipPath160">
      <path
         d="m 12520.3,6731.58 c 0.7,0.34 1.5,0.77 2.3,1.12 -11.1,11.18 -20.5,24.25 -27.8,38.19 -16,30.45 -23.4,64.6 -30.4,98.31 -19.3,93.93 -35.4,192.25 -18.5,285.49 -33.1,8.34 -68.2,-0.86 -100.3,-12.65 -32.8,-12.04 -65.3,-27.01 -100.2,-29.15 -17.6,-1.13 -35.6,1.11 -52.8,-2.93 -19.6,-4.56 -50.7,-25.55 -60.8,-43.01 -58.7,24.86 -125,-4.99 -181.3,-34.66 -83.5,-43.87 -163.8,-88.17 -246.3,-133.75 -14.2,31.65 -60.6,45.84 -91.1,29.5 -1.1,-0.6 -2,-1.12 -3,-1.72 -9.5,-47.48 -50.7,-94.27 -99.1,-94.27 l -48.8,-22.97 c -32.3,-21.59 -55.8,-51.61 -70.7,-87.48 -14.9,-35.87 -22.6,-74.23 -30.1,-112.33 -25.6,34.66 -56,73.88 -85.5,105.19 h -87.5 c 0.3,14.54 -2.2,28.56 -5,42.84 0,0 0.1,0.08 0,0.17 -0.8,4.13 -1.5,8.35 -2.3,12.47 -12.2,1.9 -24.8,-2.41 -35.2,-9.2 -10.3,-6.79 -18.8,-16.09 -27.2,-25.2 -21.4,-23.23 -39.5,-50.84 -60.9,-74.06 3.5,-18.67 9.6,-38.54 12.9,-57.11 -97.8,7.39 -197.9,-18.58 -279.8,-72.6 -26.7,-17.72 -56.7,-40.6 -88.6,-37.25 -70.6,7.32 -150.9,-8.77 -212.5,-44.12 -0.1,-0.78 -0.1,-1.64 -0.2,-2.41 -3.3,-51.17 -6.5,-102.82 -10.3,-154.57 116.8,-7.13 231.2,-54.82 317.1,-134.5 37.2,119.31 101.3,234.1 180.9,330.41 -82.7,-204.48 -103.9,-430.37 -89.4,-650.47 2.3,-35.25 11.4,-77.76 45,-88.72 24.6,-8.06 50.6,5.57 73,18.72 106.1,62.47 212.3,124.94 318.5,187.41 -89.2,-85.82 -178.4,-171.64 -267.5,-257.45 -20.3,-19.54 -41.1,-39.81 -52.3,-65.69 -11.1,-25.88 -10.2,-59.1 9.8,-78.94 28.4,-28.09 75.9,-16.3 112.3,0.05 36.4,16.37 78.6,35.59 114,17.22 -114.2,-77.22 -211,-180 -281.3,-298.61 -21.2,-35.9 -39.9,-82.28 -17.2,-117.26 20.8,-31.98 68.3,-36.58 102.8,-20.42 34.6,16.15 59.2,47.45 82.4,77.66 -6.8,-40.01 -13.6,-80.01 -20.3,-120.01 191.2,60.41 374.6,145.3 544.4,251.95 38.9,-48.75 32.4,-127.49 -14,-169.18 128.5,-88.59 305,-8.92 458.8,-35.63 125,-21.74 228.9,-124.92 261.7,-246.41 67.7,154.56 46.1,335.52 22.7,504.46 -38.2,274.12 -139.3,547.65 -111.5,823.16 16.1,158.69 77.1,302.86 146.4,446.59 41.9,-3.87 87,1.72 127.6,12.47 -16,11.95 -22.7,31.4 -22.9,51.35 z"
         id="path158" />
    </clipPath>
    <linearGradient
       x1="0"
       y1="0"
       x2="1"
       y2="0"
       gradientUnits="userSpaceOnUse"
       gradientTransform="matrix(3158.84,1505.61,1505.61,-3158.84,9718.53,4859.62)"
       spreadMethod="pad"
       id="linearGradient166">
      <stop
         style="stop-opacity:1;stop-color:#ed124b"
         offset="0"
         id="stop162" />
      <stop
         style="stop-opacity:1;stop-color:#f5787b"
         offset="1"
         id="stop164" />
    </linearGradient>
    <clipPath
       clipPathUnits="userSpaceOnUse"
       id="clipPath178">
      <path
         d="m 11382.6,4287.75 c 43.2,85.17 62.4,182.31 54.9,277.47 53.2,-61.77 88.2,-139.1 99.4,-219.86 7.8,28.14 15.7,56.28 23.6,84.42 6.2,-86.22 -3.5,-173.56 -28.4,-256.33 95.4,64.66 190.7,129.32 286.1,193.98 -66.8,-12.91 -133.5,-25.81 -200.2,-38.71 62.7,33.46 129.8,58.63 199.1,74.69 -63.2,14.4 -126.3,28.82 -189.5,43.22 112.2,54.27 244.2,36.64 367.3,17.79 -109.6,80.21 -219.3,160.41 -329,240.63 75,-3.35 150,-6.7 225.1,-10.04 -90.9,27.66 -179.2,63.63 -263.5,107.34 68.2,-1.91 136.4,-3.81 204.6,-5.73 -45,20.56 -90,41.12 -135.1,61.68 -11.7,5.33 -25.5,14.68 -22.7,27.21 3,13.15 20.7,15.02 34.2,13.91 66,-5.38 132,-10.77 198,-16.15 -117.1,54.64 -240,96.89 -366,125.18 -205.8,17.55 -418.4,-27.7 -622.5,-73.12 1.3,7.91 2.3,15.66 3.2,23.22 -35.4,-43.34 -72.6,-86.53 -108,-129.79 -11.9,-14.62 -24.1,-29.5 -31.6,-46.79 -21.5,-49.72 -6.7,-113.02 13.8,-163.17 -36.3,-33.81 -57.2,-87.82 -50.2,-136.86 -25.3,-29.75 -36.9,-68.89 -28,-106.82 4.2,0.86 8.5,1.72 12.7,2.58 119.4,23.39 248.7,27.35 354.4,-31.83 12.1,-6.75 23.5,-14.33 34.7,-22.41 31.5,64.85 63,129.7 94.5,194.56 56.4,-76.75 112.8,-153.51 169.1,-230.27 z"
         id="path176" />
    </clipPath>
    <linearGradient
       x1="0"
       y1="0"
       x2="1"
       y2="0"
       gradientUnits="userSpaceOnUse"
       gradientTransform="matrix(-1700.45,1271.4,1271.4,1700.45,12192.3,3970.89)"
       spreadMethod="pad"
       id="linearGradient184">
      <stop
         style="stop-opacity:1;stop-color:#72cfc7"
         offset="0"
         id="stop180" />
      <stop
         style="stop-opacity:1;stop-color:#c7ece7"
         offset="1"
         id="stop182" />
    </linearGradient>
    <clipPath
       clipPathUnits="userSpaceOnUse"
       id="clipPath214">
      <path
         d="m 16249.2,3654.17 c -16.7,78.67 -71.6,145.14 -136.8,192.34 -65.1,47.21 -135.8,84.03 -210.5,113.98 -58,137.38 -116,274.85 -182.6,408.09 -34.2,68.2 -71,135.97 -121.4,193.16 -84,95.53 -199.7,155.74 -303.6,229.06 -170.3,120.24 -312.6,279.9 -412.6,462.77 -19.4,-41.11 -37.3,-82.63 -54.3,-124.42 61.7,-78.74 118.4,-161.49 169.2,-247.69 30.3,-51.38 59,-104.62 100.6,-147.37 29.1,-29.86 65.8,-54.31 105.6,-64.82 40.7,-10.72 77,-33.65 102.2,-67.23 104.3,-138.74 186.6,-298.66 234,-466.06 71.2,-86.4 138.6,-172.07 212.8,-287.55 3.4,-32.98 65.9,-106.52 93.3,-125.07 27.5,-18.56 58.5,-31.78 84.2,-52.85 15.3,-12.51 28.3,-27.75 43.7,-40.15 15.5,-12.4 34,-26.82 53.8,-25.82 9,-14.02 17.1,-29.05 26.1,-43.07 -12.1,-5.14 -24.2,-10.29 -36.3,-15.53 -7,-2.92 -13.9,-5.95 -19.5,-10.89 -5.6,-5.05 -9.5,-12.51 -8.3,-19.87 1.3,-8.58 9.1,-15.03 17.4,-17.36 8.4,-2.31 15.5,-1.61 24.1,-0.6 -3.2,-6.96 -4.2,-14.83 -2.9,-22.4 26.3,-2.41 54.3,7.27 71.7,27.14 -1.9,-7.36 5.6,-14.42 13.1,-15.12 7.6,-0.61 14.9,3.22 21.4,6.95 30.4,17.35 59.7,37.32 81.8,64.45 22,27.14 41.1,61.73 33.8,95.93 z"
         id="path212" />
    </clipPath>
    <linearGradient
       x1="0"
       y1="0"
       x2="1"
       y2="0"
       gradientUnits="userSpaceOnUse"
       gradientTransform="matrix(1423.39,0,0,-1423.39,14827.4,4364.02)"
       spreadMethod="pad"
       id="linearGradient220">
      <stop
         style="stop-opacity:1;stop-color:#ee8966"
         offset="0"
         id="stop216" />
      <stop
         style="stop-opacity:1;stop-color:#fabfbc"
         offset="1"
         id="stop218" />
    </linearGradient>
    <clipPath
       clipPathUnits="userSpaceOnUse"
       id="clipPath230">
      <path
         d="m 12924.5,2521.01 c 22.7,45.74 47.4,91.68 55.2,142.11 3.7,23.78 3.7,48.78 14.2,70.43 14.1,29.16 44.3,46.44 72.7,61.95 105.3,57.42 338.2,179.01 564.2,297.14 -42,51.93 -88.8,100.07 -133.2,150.06 -33.8,37.92 -67.9,78.34 -114.5,98.25 -37.7,16.05 -81.4,16.28 -119.7,2.07 -56.3,-44.13 -108,-95.75 -156.9,-147.79 -62.6,-66.77 -123.1,-135.45 -183.5,-204.15 -53.5,-60.72 -107.3,-122.14 -145.2,-193.55 -37.9,-71.42 -40.9,-175.41 -62,-259.48 -0.8,-1.8 -1.5,-3.52 -2.3,-5.3 53.2,-38.71 113.1,-67.75 176.1,-86.58 11.2,25.13 22.7,50.13 34.9,74.84 z"
         id="path228" />
    </clipPath>
    <linearGradient
       x1="0"
       y1="0"
       x2="1"
       y2="0"
       gradientUnits="userSpaceOnUse"
       gradientTransform="matrix(917.259,0,0,-917.259,12713.5,2899.76)"
       spreadMethod="pad"
       id="linearGradient236">
      <stop
         style="stop-opacity:1;stop-color:#ee8966"
         offset="0"
         id="stop232" />
      <stop
         style="stop-opacity:1;stop-color:#fabfbc"
         offset="1"
         id="stop234" />
    </linearGradient>
    <clipPath
       clipPathUnits="userSpaceOnUse"
       id="clipPath254">
      <path
         d="m 15385.7,2916.04 c -12.4,-11.91 -25.1,-23.41 -38.1,-34.5 71.6,-57.23 137.9,-121.13 197.2,-190.95 57.6,-67.76 109.4,-141.4 177.4,-198.74 67.9,-57.35 157.1,-97.58 244.7,-82.77 76.5,12.92 148.3,-0.65 216.4,-31.73 -0.6,10.48 -1.4,20.94 -2.5,31.34 -2.3,21.88 -5.6,43.96 -12.5,64.78 -2.6,7.79 -5.6,15.42 -9.4,22.77 -6.9,13.74 -16.5,26.49 -28,36.7 -30.6,1.82 -61.2,-0.3 -91.1,-7.34 -73.1,56.58 -142,121.24 -200.5,192.85 -92.9,113.87 -169.2,248.12 -284.1,335.88 -23.1,-13.25 -46.9,-24.33 -71.4,-33.62 -21,-24 -42.3,-47.87 -64.4,-70.88 -11,-11.51 -22.2,-22.8 -33.7,-33.79 z"
         id="path252" />
    </clipPath>
    <linearGradient
       x1="0"
       y1="0"
       x2="1"
       y2="0"
       gradientUnits="userSpaceOnUse"
       gradientTransform="matrix(835.607,0,0,-835.607,15347.6,2715.84)"
       spreadMethod="pad"
       id="linearGradient260">
      <stop
         style="stop-opacity:1;stop-color:#ee8966"
         offset="0"
         id="stop256" />
      <stop
         style="stop-opacity:1;stop-color:#fabfbc"
         offset="1"
         id="stop258" />
    </linearGradient>
    <clipPath
       clipPathUnits="userSpaceOnUse"
       id="clipPath284">
      <path
         d="m 11698,5591.46 c 173.3,-17.69 349.7,-11.31 519.9,-48.72 106.4,-23.4 209.4,-63.78 317.8,-75.88 197.4,-22.06 397.5,51.17 593.8,46.04 16.9,59.32 46.4,117.7 79.9,161.07 -121.4,31.37 -253.1,-7.26 -380,-21.48 -285.3,-31.87 -567.2,64.05 -850,113.17 -246.7,42.87 -498.1,50.13 -748.4,57.39 -56.6,42.26 -134.7,60.82 -205.1,54.26 -15.4,11.81 -34.3,22.09 -53.5,25.32 -19.2,3.13 -42,-6.25 -46.9,-25.01 -11.5,-1.72 -22.9,-5.25 -32.8,-11.4 -9.9,-6.15 -17.3,-17.86 -14.9,-29.25 -26.4,-3.93 -51.9,-29.15 -57.1,-55.28 -27.4,-13.21 -50.2,-36.91 -68.2,-61.42 -22.2,-6.96 -46.1,-16.54 -68.3,-23.6 -6.2,-1.92 -12.6,-3.94 -17.4,-8.27 -4.9,-4.44 -7.7,-11.7 -5,-17.56 -21.8,-11.89 -34.8,-43.57 -27.6,-67.37 46.9,6.35 97.3,11.9 144.2,18.26 40.9,5.44 86.7,9.78 119.5,-15.24 -39.9,-0.6 -77.5,-19.06 -109.1,-43.47 -31.6,-24.41 -55,-59.21 -65.7,-97.74 8.5,-0.4 17,-0.9 25.5,-1.31 50.4,-2.62 96.6,34.9 143.8,52.75 14,5.31 28.1,10.6 42.4,15.18 88.5,66.63 205.5,97.42 318.1,101.82 149.1,5.81 296.6,-27.11 445.1,-42.26 z"
         id="path282" />
    </clipPath>
    <linearGradient
       x1="0"
       y1="0"
       x2="1"
       y2="0"
       gradientUnits="userSpaceOnUse"
       gradientTransform="matrix(2577.14,0,0,-2577.14,10632.2,5682.97)"
       spreadMethod="pad"
       id="linearGradient290">
      <stop
         style="stop-opacity:1;stop-color:#ee8966"
         offset="0"
         id="stop286" />
      <stop
         style="stop-opacity:1;stop-color:#fabfbc"
         offset="1"
         id="stop288" />
    </linearGradient>
    <clipPath
       clipPathUnits="userSpaceOnUse"
       id="clipPath344">
      <path
         d="m 15345.5,3349.85 c -19.8,25.42 -39.6,50.94 -59.3,76.36 -26.6,34.19 -54,69.2 -91.6,90.58 -27.3,93.49 -76.3,180.43 -141.7,252.43 -25.1,-19.38 -50.1,-38.74 -75.2,-58.12 -67.7,-52.36 -133,-112.67 -171.4,-189.21 74.8,4.85 148.5,25.31 215,59.7 -54.5,-52.64 -108.9,-105.28 -163.4,-157.92 115.1,-35.3 230.2,-70.6 345.3,-105.91 -34.3,-2.49 -69.4,-5.21 -100.4,-19.75 -31.1,-14.55 -57.8,-43.74 -59.1,-78.03 -0.8,-20.67 10.7,-41.39 27.3,-53.03 12.4,-2.84 24.9,-5.69 37.3,-8.52 -13.3,-2.91 -26.4,0.85 -37.3,8.52 -385.1,87.88 -772.6,179.35 -1129.3,348.65 -71.8,34.11 -142.1,71.44 -210.8,111.57 -3,-20.13 -17.6,-38.55 -35.3,-49.76 -22.1,-14.02 -48.3,-19.57 -73.3,-27.54 -69.6,-21.99 -136.6,-53.66 -184.4,-107.72 -3.7,-4.13 -7.3,-8.37 -10.7,-12.81 65.1,21.38 136,18.45 201,-2.83 l 50.5,-30.25 c 450.5,0 843.2,-324.69 1288.7,-392.16 197.9,-29.96 415.3,-48.92 587.8,50.23 4.2,2.42 8.4,4.94 12.6,7.46 -73.7,96.42 -148,192.24 -222.3,288.06 z"
         id="path342" />
    </clipPath>
    <linearGradient
       x1="0"
       y1="0"
       x2="1"
       y2="0"
       gradientUnits="userSpaceOnUse"
       gradientTransform="matrix(2140.54,0,0,-2140.54,13427.2,3374.64)"
       spreadMethod="pad"
       id="linearGradient350">
      <stop
         style="stop-opacity:1;stop-color:#72cfc7"
         offset="0"
         id="stop346" />
      <stop
         style="stop-opacity:1;stop-color:#c7ece7"
         offset="1"
         id="stop348" />
    </linearGradient>
    <clipPath
       clipPathUnits="userSpaceOnUse"
       id="clipPath362">
      <path
         d="m 15066.8,3792.96 c -92.9,207.07 -264.9,389.23 -305.6,612.55 -18.7,101.87 -63.5,204.74 -133.5,281.1 35.9,46.7 56.2,108.03 44.4,165.63 18.4,-1.42 34.6,8.86 53.1,7.46 0.1,0.19 0.1,0.3 0.2,0.51 49.3,133.03 95.8,265.06 156.3,393.36 2,4.55 4.1,8.98 6.2,13.41 -20.4,67.29 -113.7,69.9 -173.4,107.02 -30.1,18.66 -52.3,47.41 -78.1,71.62 -55.7,52.24 -127.8,82.81 -198.6,111.25 -133,53.15 -268.8,102.68 -410.8,121.14 -120.6,15.53 -242.7,8.37 -364.1,1.21 -145.5,-8.68 -338.5,-42.56 -448.2,1.61 -1.8,-2.22 -3.6,-4.54 -5.3,-6.86 -35.1,-45.53 -66,-107.58 -82.4,-169.92 73.9,-114.91 250.5,-146.33 359.5,-63.9 -16.6,-34.21 -33.2,-68.4 -49.8,-102.61 54.3,-9.05 111.8,3.1 157.8,33.35 -36.5,-85.6 -73.7,-178.02 -54.5,-269.04 19.2,-91.03 122.3,-169.23 205.3,-127.11 16.6,8.45 31.4,21.07 49.5,25.76 54.5,14.13 98.1,-49.27 105.6,-105.04 7.5,-55.77 -0.4,-117.69 32.3,-163.47 55.7,-77.9 178.5,-48.78 260.2,1.2 81.7,49.99 172.7,115.96 263.6,86.02 -81.6,-45.66 -82.5,-184.66 -1.5,-231.41 22.9,-13.25 50.9,-20.51 66.7,-41.78 27.4,-36.84 2.2,-87.56 -13.6,-130.63 -47.9,-130.8 12.3,-292.24 134.2,-359.64 -158,-53.63 -322.1,-88.96 -488.2,-105.06 149.3,5.81 298.5,11.63 447.7,17.44 18.8,0.74 39,1.11 54.8,-9.19 34.4,-22.45 21.1,-80.95 -14,-102.29 -35.1,-21.34 -79.5,-16.89 -120.2,-11.73 99,-11.2 195.4,-44.85 279.8,-97.71 -154.8,-40.7 -309.7,-81.4 -464.5,-122.09 202.2,-21.4 404.3,-42.81 606.5,-64.2 6.5,-0.69 13.4,-0.89 20.5,-0.69 23,12.79 44.5,27.83 63.1,46.53 46.1,46.39 65.8,126.58 39,186.2 z"
         id="path360" />
    </clipPath>
    <linearGradient
       x1="0"
       y1="0"
       x2="1"
       y2="0"
       gradientUnits="userSpaceOnUse"
       gradientTransform="matrix(1951.89,0,0,-1951.89,13127,4623.71)"
       spreadMethod="pad"
       id="linearGradient368">
      <stop
         style="stop-opacity:1;stop-color:#72cfc7"
         offset="0"
         id="stop364" />
      <stop
         style="stop-opacity:1;stop-color:#c7ece7"
         offset="1"
         id="stop366" />
    </linearGradient>
    <clipPath
       clipPathUnits="userSpaceOnUse"
       id="clipPath384">
      <path
         d="m 14259.6,5956.57 c -5.9,8.07 -15.8,12.15 -25.6,14.46 -46.6,11.08 -99.1,-10.83 -124,-51.73 24.7,86.95 -61.6,170.88 -49.9,260.49 3.2,24.39 13.5,47.37 16.3,71.86 5,41.61 -13.5,85.17 -47,110.45 -33.3,25.29 -99.3,34.6 -133.9,11.01 -1.1,-0.81 -2.4,-1.6 -3.5,-2.49 -55.9,-38.95 -101.4,-92.71 -130.7,-154.19 -24.2,-12.25 -31,-46.76 -34.6,-73.64 -3.6,-26.97 -1.8,-54.74 -9.3,-80.83 -5.5,-19.07 -30.4,-27.32 -45.3,-40.36 -14.9,-13.05 -28.5,-28.75 -33.7,-47.91 -5.1,-19.16 0.2,-42.14 16.7,-53.06 -6.7,-71.68 -13.5,-143.37 -20.2,-215.05 -1.9,-19.65 -3.1,-41.26 3.7,-59.13 111.8,-31.2 233.4,-26 341.9,15.09 30.8,11.63 61.1,26.5 84.1,49.97 23,23.47 37.7,56.88 32.3,89.28 16.4,-58.89 1.5,-125.54 -38.4,-171.83 -28.1,-32.57 -67.9,-56.17 -86,-95.17 -16.6,-35.69 -11.6,-77.08 -9.8,-116.4 1.1,-25.22 0.1,-52.16 -8.1,-75.59 4.8,1.26 9.6,2.52 14.4,3.93 62.5,18.54 115.2,62.28 155.4,113.56 40.3,51.28 69.5,110.19 98.5,168.66 0,0.09 -0.1,0.09 -0.1,0.17 -26.4,39.13 -39.4,86.6 -47.6,132.99 29.7,8.7 50.2,38.15 63.7,65.93 13.5,27.85 19.1,58.73 24.4,89.16 2.4,13.66 4.4,29.1 -3.7,40.37 z"
         id="path382" />
    </clipPath>
    <linearGradient
       x1="0"
       y1="0"
       x2="1"
       y2="0"
       gradientUnits="userSpaceOnUse"
       gradientTransform="matrix(632.008,0,0,-632.008,13633.4,5864.25)"
       spreadMethod="pad"
       id="linearGradient390">
      <stop
         style="stop-opacity:1;stop-color:#ee8966"
         offset="0"
         id="stop386" />
      <stop
         style="stop-opacity:1;stop-color:#fabfbc"
         offset="1"
         id="stop388" />
    </linearGradient>
  </defs>
  <sodipodi:namedview
     id="namedview4"
     pagecolor="#ffffff"
     bordercolor="#666666"
     borderopacity="1.0"
     inkscape:showpageshadow="2"
     inkscape:pageopacity="0.0"
     inkscape:pagecheckerboard="0"
     inkscape:deskcolor="#d1d1d1"
     showgrid="false"
     inkscape:zoom="0.57764544"
     inkscape:cx="762.57851"
     inkscape:cy="303.81959"
     inkscape:window-width="1600"
     inkscape:window-height="796"
     inkscape:window-x="-8"
     inkscape:window-y="122"
     inkscape:window-maximized="1"
     inkscape:current-layer="g12" />
  <g
     id="g10"
     inkscape:groupmode="layer"
     inkscape:label="Page 1"
     transform="matrix(1.3333333,0,0,-1.3333333,-1193.0831,1160.7706)">
    <g
       id="g12"
       transform="scale(0.1)">
      <g
         id="g485">
        <path
           d="m 9362.02,5414.91 c 150.97,256.2 317.75,503.42 505.34,734.34 451.64,555.95 1036.64,1021.24 1719.44,1237.69 547.3,173.51 1131.5,180.18 1702.3,93.27 -101.5,55.36 -201.7,113.2 -300.3,173.75 -386.5,237.5 -763.9,520.14 -1209.7,604.01 -662.3,124.6 -1342.7,-231.1 -1780.95,-742.99 -678.9,-792.92 -1058.88,-1835.91 -1049.87,-2869.78 -0.02,-2.74 0.03,-5.49 0.03,-8.23 21.41,36.72 40.84,69.82 52.67,94.51 111.31,232.43 230.18,461.37 361.04,683.43"
           style="fill:#fae861;fill-opacity:1;fill-rule:nonzero;stroke:none"
           id="path18" />
        <path
           d="m 13262.9,2305.35 c -1077.4,129.21 -2121.2,528.5 -3009.8,1151.22 -393.82,276.01 -766.1,601.76 -1219.3,778.67 -21.18,8.27 -42.75,14.6 -63.49,20.71 3.82,-36.21 8.1,-72.37 12.92,-108.46 74.13,-555.73 279.69,-1110.27 674.03,-1508.82 570.64,-576.69 1439.04,-741.11 2250.24,-743.8 802.5,-2.65 1603,131.04 2364.1,384.39 -334.9,-27.67 -675,-13.94 -1008.7,26.09"
           style="fill:#fae861;fill-opacity:1;fill-rule:nonzero;stroke:none"
           id="path20" />
        <g
           id="g22"
           transform="scale(1.10993)">
          <path
             d="m 16217.2,5071.24 c -73.3,382.86 -421.2,662.06 -790.5,786.82 -369.3,124.75 -766.5,128.23 -1154.3,167.85 -163.4,16.69 -326.1,40.21 -487.6,70.16 254.3,-160.38 486.3,-352.23 683.2,-580.96 507.2,-589.39 738.1,-1454.27 437.4,-2171.39 -50.7,-120.84 -115.1,-234.48 -190.5,-340.36 364.9,263.52 703.5,563.29 1007.4,895.93 297,325.11 577.7,739.45 494.9,1171.95"
             style="fill:#fae861;fill-opacity:1;fill-rule:nonzero;stroke:none"
             id="path24" />
        </g>
        <g
           id="g26"
           transform="scale(1.03544)">
          <path
             d="m 15508.8,5911.88 c -211,245.17 -459.8,450.83 -732.3,622.75 -678.3,125.81 -1336.5,359.36 -1942.3,689.54 -551.2,83.94 -1115.4,77.5 -1644,-90.07 C 10530.8,6925.06 9965.8,6475.69 9529.61,5938.77 9348.45,5715.76 9187.38,5477 9041.57,5229.57 8915.19,5015.11 8800.39,4794 8692.89,4569.53 c -11.43,-23.85 -30.19,-55.81 -50.87,-91.28 0.01,-11.9 0.16,-23.85 0.57,-35.89 2.2,-110.97 9.06,-221.77 20.68,-332.09 20.03,-5.9 40.86,-12.01 61.32,-20 437.68,-170.85 797.22,-485.45 1177.56,-752.01 858.15,-601.41 1866.25,-987.03 2906.75,-1111.82 322.3,-38.66 650.8,-51.92 974.2,-25.19 709.8,236.28 1384.1,580.43 1990.4,1018.18 80.8,113.5 149.8,235.31 204.2,364.85 322.3,768.7 74.9,1695.8 -468.9,2327.6"
             style="fill:#fde294;fill-opacity:1;fill-rule:nonzero;stroke:none"
             id="path28" />
        </g>
      </g>
      <path
         d="m 13267.72,8375.5772 -16,-28.8 -26.7,-3.87 15.9,28.79 z m -34.5,-62.33 -26.8,-3.87 15.9,28.8 26.8,3.87 z m -18.6,-33.52 -26.8,-3.88 16,28.8 26.8,3.87 z m -18.6,-33.53 -26.8,-3.87 16,28.8 26.8,3.87 z m -18.6,-33.53 -26.7,-3.86 15.9,28.79 26.8,3.87 z m -18.5,-33.53 -26.8,-3.87 15.9,28.8 26.8,3.87 z m -18.6,-33.52 -26.8,-3.87 16,28.8 26.8,3.87 z m -18.6,-33.52 -26.8,-3.87 16,28.79 26.8,3.87 z m -18.6,-33.53 -26.7,-3.87 15.9,28.79 26.8,3.88 z m -18.5,-33.52 -26.8,-3.87 15.9,28.78 26.8,3.88 z m -18.6,-33.53 -26.8,-3.87 16,28.79 26.7,3.87 z m -18.6,-33.53 -26.8,-3.88 16,28.8 26.8,3.88 z m -18.6,-33.52 -26.7,-3.87 15.9,28.78 26.8,3.88 z m -18.5,-33.53 -26.8,-3.88 15.9,28.8 26.8,3.88 z m -18.6,-33.52 -26.8,-3.88 16,28.8 26.7,3.87 z m -18.6,-33.53 -26.8,-3.87 16,28.79 26.8,3.87 z m -32.1,-4.64 -26.8,-3.88 16,28.79 26.7,3.88 z m -32.1,-4.65 -26.8,-3.87 15.9,28.79 26.8,3.87 z m -32.2,-4.65 -26.7,-3.87 15.9,28.79 26.8,3.87 z m -32.1,-4.64 -26.8,-3.87 16,28.78 26.8,3.88 z m -40.3,25.01 15.9,28.79 26.8,3.87 -15.9,-28.8 z m 34.5,62.32 26.8,3.87 -16,-28.8 -26.8,-3.87 z m 18.6,33.52 26.8,3.87 -16,-28.8 -26.8,-3.87 z m -29.5,0.08 15.9,28.81 26.8,3.87 -15.9,-28.8 z m 34.5,62.33 26.8,3.87 -16,-28.79 -26.7,-3.88 z m -29.5,0.09 16,28.79 26.7,3.87 -15.9,-28.79 z m 34.5,62.32 26.8,3.87 -15.9,-28.8 -26.8,-3.87 z m 18.6,33.53 26.8,3.87 -16,-28.8 -26.7,-3.87 z m 18.6,33.52 26.8,3.86 -16,-28.79 -26.8,-3.87 z m 18.6,33.52 26.7,3.87 -15.9,-28.79 -26.8,-3.87 z m 18.5,33.53 26.8,3.88 -15.9,-28.8 -26.8,-3.88 z m 18.6,33.53 26.8,3.86 -16,-28.78 -26.7,-3.88 z m 18.6,33.52 26.8,3.87 -16,-28.79 -26.8,-3.87 z m 18.6,33.53 26.7,3.87 -15.9,-28.79 -26.8,-3.88 z m 18.5,33.52 26.8,3.88 -15.9,-28.79 -26.8,-3.88 z m 18.6,33.53 26.8,3.88 -16,-28.8 -26.8,-3.88 z m 18.6,33.53 26.8,3.87 -16,-28.79 -26.8,-3.88 z m 18.6,33.52 26.7,3.87 -15.9,-28.79 -26.8,-3.86 z m 18.5,33.52 26.8,3.89 -15.9,-28.81 -26.8,-3.87 z m 18.6,33.54 26.8,3.87 -16,-28.8 -26.7,-3.87 z m 18.6,33.52 26.8,3.87 -16,-28.79 -26.8,-3.87 z m 18.6,33.53 26.7,3.87 -15.9,-28.8 -26.8,-3.87 z m 32.1,4.64 26.8,3.87 -16,-28.79 -26.8,-3.87 z m 18.6,33.53 26.8,3.88 -16,-28.8 -26.8,-3.88 z m 18.5,33.53 26.8,3.87 -15.9,-28.8 -26.8,-3.87 z m 32.2,4.64 26.8,3.88 -16,-28.8 -26.8,-3.87 z m 40.3,-25.01 -16,-28.79 -26.7,-3.88 15.9,28.8 z m 13.6,-28.88 -16,-28.79 -26.8,-3.87 16,28.79 z m 13.5,-28.88 -16,-28.79 -26.7,-3.87 15.9,28.79 z m -34.5,-62.32 -26.8,-3.87 15.9,28.8 26.8,3.86 z m -18.6,-33.52 -26.8,-3.88 16,28.8 26.8,3.87 z m 29.5,-0.09 -16,-28.79 -26.7,-3.87 15.9,28.79 z m -34.5,-62.32 -26.8,-3.88 15.9,28.81 26.8,3.87 z m -64,-70.92 16,28.79 26.8,3.87 -16,-28.79 z m -18.5,-33.53 15.9,28.79 26.8,3.88 -16,-28.8 z m -18.6,-33.53 15.9,28.79 26.8,3.88 -15.9,-28.8 z m -18.6,-33.53 16,28.8 26.7,3.87 -15.9,-28.79 z m -18.6,-33.53 16,28.81 26.8,3.87 -16,-28.8 z m -18.5,-33.52 15.9,28.79 26.8,3.87 -16,-28.79 z m -18.6,-33.53 15.9,28.8 26.8,3.87 -15.9,-28.79 z m -18.6,-33.52 16,28.8 26.8,3.87 -16,-28.8 z m -18.6,-33.52 16,28.79 26.8,3.87 -16,-28.8 z m -18.5,-33.53 15.9,28.79 26.8,3.87 -16,-28.79 z m -18.6,-33.53 15.9,28.8 26.8,3.87 -15.9,-28.8 z m -18.6,-33.52 16,28.79 26.7,3.87 -15.9,-28.8 z m -18.6,-33.53 16,28.79 26.8,3.87 -16,-28.79 z m -18.5,-33.53 15.9,28.79 26.8,3.88 -16,-28.8 z m -2.7,-4.73 26.8,3.88 -15.9,-28.8 -26.8,-3.87 z m -32.1,-4.64 26.8,3.87 -16,-28.8 -26.7,-3.87 z m -32.1,-4.65 26.8,3.87 -16,-28.79 -26.8,-3.87 z m -5.4,-0.77 -15.9,-28.8 -26.8,-3.88 16,28.8 z m 18.6,33.52 -15.9,-28.79 -26.8,-3.87 15.9,28.79 z m -8.2,29.65 26.8,3.88 -16,-28.8 -26.7,-3.87 z m 13.2,32.75 -15.9,-28.79 -26.8,-3.87 16,28.8 z m -8.2,29.67 26.8,3.87 -15.9,-28.8 -26.8,-3.87 z m 13.3,32.75 -16,-28.8 -26.8,-3.87 16,28.79 z m 18.5,33.53 -15.9,-28.8 -26.8,-3.88 16,28.8 z m 18.6,33.52 -15.9,-28.79 -26.8,-3.87 15.9,28.79 z m 18.6,33.53 -16,-28.8 -26.7,-3.87 15.9,28.79 z m 18.6,33.52 -16,-28.8 -26.8,-3.87 16,28.8 z m 18.5,33.52 -15.9,-28.79 -26.8,-3.86 16,28.79 z m 18.6,33.54 -15.9,-28.8 -26.8,-3.87 15.9,28.79 z m 18.6,33.52 -16,-28.8 -26.7,-3.87 15.9,28.8 z m 18.6,33.52 -16,-28.79 -26.8,-3.87 16,28.79 z m 18.5,33.54 -15.9,-28.8 -26.8,-3.87 16,28.79 z m 18.6,33.52 -15.9,-28.79 -26.8,-3.88 15.9,28.8 z m 18.6,33.52 -16,-28.79 -26.7,-3.87 15.9,28.79 z m 18.6,33.53 -16,-28.79 -26.8,-3.88 16,28.8 z m 18.5,33.53 -15.9,-28.8 -26.8,-3.88 16,28.81 z m 18.6,33.53 -15.9,-28.8 -26.8,-3.87 15.9,28.79 z m 2.6,4.73 -26.8,-3.88 16,28.8 26.8,3.87 z m 48.1,33.43 -15.9,-28.79 -26.8,-3.87 16,28.79 z m 18.6,33.53 -16,-28.79 -26.7,-3.88 15.9,28.8 z m 2.6,4.73 -26.8,-3.87 16,28.8 26.8,3.87 z m 13.6,-28.88 -26.8,-3.87 15.9,28.8 26.8,3.86 z m -13.3,-32.74 16,28.78 26.8,3.87 -16,-28.78 z m -18.5,-33.53 15.9,28.79 26.8,3.88 -16,-28.8 z m 8.2,-29.66 -26.8,-3.87 15.9,28.79 26.8,3.88 z m -13.3,-32.75 16,28.79 26.8,3.88 -16,-28.79 z m -18.5,-33.53 15.9,28.8 26.8,3.87 -16,-28.8 z m -18.6,-33.53 15.9,28.8 26.8,3.87 -15.9,-28.8 z m -18.6,-33.52 16,28.8 26.7,3.87 -15.9,-28.8 z m -18.6,-33.53 16,28.8 26.8,3.87 -16,-28.8 z m -18.5,-33.52 15.9,28.79 26.8,3.87 -16,-28.79 z m -18.6,-33.53 15.9,28.79 26.8,3.88 -15.9,-28.8 z m -18.6,-33.52 16,28.79 26.7,3.87 -15.9,-28.8 z m -18.6,-33.53 16,28.79 26.8,3.87 -16,-28.79 z m -18.5,-33.53 15.9,28.79 26.8,3.88 -16,-28.8 z m -18.6,-33.53 15.9,28.8 26.8,3.88 -15.9,-28.8 z m -18.6,-33.53 16,28.8 26.7,3.88 -15.9,-28.8 z m -18.6,-33.51 16,28.78 26.8,3.87 -16,-28.79 z m -18.5,-33.53 15.9,28.79 26.8,3.87 -16,-28.79 z m -18.6,-33.54 15.9,28.8 26.8,3.88 -15.9,-28.81 z m -18.6,-33.51 16,28.79 26.7,3.87 -15.9,-28.8 z m -2.6,-4.74 26.8,3.87 -16,-28.79 -26.8,-3.87 z m -5.4,-0.78 -15.9,-28.79 -26.8,-3.87 16,28.8 z m -8.2,29.66 26.8,3.87 -15.9,-28.78 -26.8,-3.89 z m 13.3,32.76 -16,-28.81 -26.8,-3.87 16,28.8 z m -8.2,29.65 26.7,3.87 -15.9,-28.79 -26.8,-3.87 z m 13.2,32.75 -16,-28.79 -26.7,-3.88 15.9,28.8 z m 18.6,33.52 -16,-28.79 -26.8,-3.87 16,28.8 z m 18.5,33.54 -15.9,-28.8 -26.8,-3.87 16,28.79 z m 18.6,33.52 -15.9,-28.79 -26.8,-3.88 15.9,28.8 z m 18.6,33.53 -16,-28.8 -26.7,-3.87 15.9,28.79 z m 18.6,33.53 -16,-28.8 -26.8,-3.88 16,28.8 z m 18.5,33.51 -15.9,-28.78 -26.8,-3.87 16,28.79 z m 18.6,33.54 -15.9,-28.8 -26.8,-3.87 15.9,28.79 z m 18.6,33.53 -16,-28.81 -26.7,-3.87 15.9,28.8 z m 18.6,33.51 -16,-28.78 -26.8,-3.87 16,28.79 z m 18.5,33.54 -15.9,-28.8 -26.8,-3.87 16,28.8 z m 18.6,33.52 -15.9,-28.8 -26.8,-3.87 15.9,28.8 z m 18.6,33.52 -16,-28.78 -26.7,-3.87 15.9,28.78 z m 18.6,33.53 -16,-28.79 -26.8,-3.88 16,28.8 z m 2.6,4.74 -26.8,-3.88 16,28.8 26.7,3.87 z m 13.5,-28.88 -26.7,-3.87 15.9,28.79 26.8,3.87 z m -13.2,-32.76 16,28.8 26.7,3.87 -15.9,-28.79 z m -18.6,-33.53 16,28.8 26.8,3.88 -16,-28.8 z m -18.5,-33.52 15.9,28.79 26.8,3.87 -16,-28.79 z m -18.6,-33.53 15.9,28.8 26.8,3.87 -15.9,-28.79 z m -18.6,-33.53 16,28.81 26.8,3.87 -16,-28.8 z m -18.6,-33.52 16,28.79 26.8,3.87 -16,-28.79 z m -18.5,-33.52 15.9,28.79 26.8,3.87 -16,-28.79 z m -18.6,-33.54 15.9,28.81 26.8,3.87 -15.9,-28.8 z m -18.6,-33.52 16,28.8 26.7,3.87 -15.9,-28.8 z m -18.6,-33.52 16,28.79 26.8,3.87 -16,-28.79 z m -18.5,-33.53 15.9,28.79 26.8,3.88 -16,-28.8 z m -18.6,-33.53 15.9,28.8 26.8,3.87 -15.9,-28.8 z m -18.6,-33.52 16,28.79 26.7,3.87 -15.9,-28.79 z m 10.6,28.02 -15.9,-28.8 -26.8,-3.87 15.9,28.8 z m 18.6,33.53 -16,-28.81 -26.8,-3.87 16,28.8 z m 18.6,33.52 -16,-28.79 -26.8,-3.87 16,28.79 z m 18.6,33.53 -16,-28.8 -26.8,-3.87 16,28.79 z m 18.5,33.52 -15.9,-28.79 -26.8,-3.88 15.9,28.8 z m 18.6,33.53 -16,-28.8 -26.7,-3.86 15.9,28.79 z m 18.6,33.52 -16,-28.79 -26.8,-3.87 16,28.79 z m 18.5,33.53 -15.9,-28.79 -26.8,-3.88 16,28.8 z m 18.6,33.54 -15.9,-28.81 -26.8,-3.87 15.9,28.8 z m 18.6,33.52 -16,-28.8 -26.7,-3.87 15.9,28.78 z m 18.6,33.52 -16,-28.79 -26.8,-3.87 16,28.79 z m -5.6,34.39 16,28.79 26.7,3.88 -15.9,-28.8 z m 24.2,-0.86 -16,-28.8 -26.8,-3.87 16,28.8 z m -209.4,-431.2 -16,-28.8 -26.7,-3.87 15.9,28.8 z m -24.2,0.86 16,28.79 26.8,3.88 -16,-28.8 z m 265.1,531.77 16,28.8 26.8,3.87 -16,-28.79 z m 24.2,-0.86 -16,-28.79 -26.8,-3.87 16,28.79 z m 6.1,-148.96 -26.8,-3.87 16,28.79 26.8,3.88 z m 21.3,29.57 13.4,1.95 c 0.4,1.25 0.7,2.51 1,3.77 l 0.2,0.75 -12,-1.74 16,28.8 3,0.45 0.4,1.43 c 0.3,1.03 0.6,2.06 0.9,3.1 l -1.7,-0.24 60.4,109.07 -3.7,2.09 -43.5,-78.42 -26.8,-3.87 16,28.8 17.8,2.56 c 0.4,1.52 0.9,3.04 1.3,4.55 l -16.5,-2.39 16,28.8 8.1,1.17 c 0.3,1.51 0.7,3.01 1,4.51 l -6.5,-0.94 18.4,33.21 -3.8,2.08 -1.4,-2.54 -26.8,-3.88 16,28.79 10.6,1.54 c 0,1.45 0,2.9 -0.1,4.34 l -7.9,-1.14 6.7,12.14 -3.7,2.08 -8.3,-15 -26.8,-3.87 16,28.8 21.9,3.16 c -0.2,1.44 -0.4,2.86 -0.6,4.28 l -18.7,-2.7 8.5,15.32 -3.8,2.09 -10.1,-18.18 -26.8,-3.89 16,28.8 30.1,4.35 c -0.3,1.22 -0.7,2.65 -1.1,4.21 l -26.4,-3.84 7.4,13.41 -3.7,2.09 -9,-16.27 -30.6,-4.42 -1.1,0.61 -0.4,-0.83 -26.8,-3.87 12.5,22.69 -3.7,2.09 -16,-28.56 -2.2,-1.81 c 0,-0.04 0,-0.08 -0.1,-0.14 l 1.5,0.22 -16,-28.79 -20.7,-3 -5.3,-5.12 23.4,3.39 -15.9,-28.8 -26.8,-3.87 37.4,67.44 -3.8,2.09 -39,-70.3 -5.9,-0.87 -1.7,-1.7 c -1,-1.12 -2.1,-2.23 -3.2,-3.35 l 8.2,1.18 -15.9,-28.79 -20.4,-2.95 c -1.5,-1.66 -3,-3.33 -4.5,-4.99 l 22.2,3.21 -15.9,-28.79 -32.9,-4.76 -1.8,-2.07 c -0.8,-0.96 -1.6,-1.93 -2.5,-2.9 l 34.6,4.99 -16,-28.79 -43.5,-6.3 c -1.3,-1.64 -2.6,-3.28 -4,-4.92 l 44.9,6.48 -16,-28.79 -51.9,-7.51 c -1.2,-1.62 -2.4,-3.24 -3.6,-4.87 l 52.9,7.65 -15.9,-28.79 -58.2,-8.42 -1.8,-2.55 c -0.5,-0.76 -1.1,-1.53 -1.6,-2.29 l 58.9,8.52 -15.9,-28.79 -62.5,-9.04 c -1,-1.58 -2,-3.18 -3,-4.78 l 62.9,9.09 -16,-28.8 -64.8,-9.37 c -0.9,-1.57 -1.8,-3.16 -2.7,-4.74 l 64.9,9.38 -16,-28.79 -65.8,-9.52 c -0.9,-1.59 -1.9,-3.18 -2.8,-4.77 l 66,9.56 -15.9,-28.8 -67.9,-9.81 c -1,-1.58 -1.9,-3.17 -2.8,-4.76 l 68,9.84 -15.9,-28.79 -67.4,-9.75 c -0.7,-1.54 -1.4,-3.1 -2.1,-4.65 l 66.9,9.66 -16,-28.79 -60.3,-8.72 c -0.4,-1.51 -0.8,-3.01 -1.2,-4.52 l 58.9,8.51 -16,-28.8 -47.9,-6.93 -0.2,-1.18 c -0.1,-1.09 -0.3,-2.17 -0.5,-3.27 l 46,6.65 -15.9,-28.79 -33.3,-4.82 -0.5,-4.43 31.1,4.51 -15.9,-28.79 -18.8,-2.71 c -0.2,-1.5 -0.5,-2.98 -0.7,-4.46 l 16.9,2.43 -16,-28.78 -6.8,-1 c -0.5,-1.63 -0.9,-3.09 -1.3,-4.53 l 5.5,0.81 -91.4,-165.05 c 0,-0.15 0.1,-0.31 0.2,-0.47 l 3.4,-1.87 57.3,103.39 3.6,-1.59 21.9,3.17 -16,-28.8 -14.3,-2.06 c -0.4,-1.51 -0.8,-3.02 -1.2,-4.53 l 12.9,1.86 -16,-28.8 -3.5,-0.52 -0.9,-4.47 1.3,0.18 -1.6,-3.71 -37.5,-67.78 c 0.2,-2.6 0.4,-5.23 0.5,-7.87 l 44.5,80.21 26.7,3.87 -15.9,-28.79 -23.1,-3.33 -0.8,-4.47 21.3,3.07 -16,-28.79 -10.1,-1.46 -0.7,-4.46 8.2,1.19 -37.8,-68.25 3.7,-2.08 20.9,37.57 26.7,3.87 -15.9,-28.79 -15.4,-2.22 -0.7,-4.46 13.5,1.95 -14.4,-25.92 3.8,-2.08 15.9,28.77 26.8,3.87 -28.1,-50.63 3.8,-2.08 29.6,53.49 26.8,3.87 -41.7,-75.34 3.7,-2.08 43.4,78.19 26.7,3.87 -27.6,-49.97 3.7,-2.08 29.3,52.82 26.8,3.88 -24.1,-43.45 3.8,-2.08 25.6,46.3 26.8,3.88 -5,-9.01 3.8,-2.08 43.7,78.91 1.1,0.16 1.2,1.33 c 1,1.06 2,2.13 3,3.18 0.2,0.18 0.3,0.35 0.5,0.52 l -3.2,-0.46 16,28.81 20.8,3 c 1.8,1.75 3.6,3.45 5.3,5.13 l -23.5,-3.41 15.9,28.79 29.3,4.24 c 0.9,1.57 1.9,3.16 2.8,4.75 l -29.4,-4.25 15.9,28.79 30.5,4.41 c 1,1.6 2,3.19 3,4.77 l -30.9,-4.45 16,28.8 35.6,5.14 c 1.3,1.69 2.8,3.35 4.2,4.97 l -37.2,-5.38 16,28.79 50.6,7.32 c 0.9,1.58 1.8,3.17 2.8,4.76 l -50.8,-7.34 15.9,28.79 51.3,7.4 1.4,2.61 c 0.4,0.71 0.8,1.41 1.2,2.12 l -51.2,-7.4 15.9,28.79 50.2,7.26 0.8,1.55 c 0.5,1.05 1,2.09 1.5,3.14 l -49.9,-7.21 16,28.79 47.2,6.84 c 0.7,1.46 1.3,2.93 1.9,4.41 l 0.1,0.21 -46.6,-6.72 16,28.78 42.2,6.12 c 0.5,1.43 1.1,2.89 1.6,4.33 l 0.1,0.25 -41.3,-5.97 15.9,28.8 35.2,5.09 c 0.4,1.41 0.9,2.83 1.3,4.26 l 0.1,0.29 -33.9,-4.9 15.9,28.79 26,3.76 c 0.4,1.51 0.8,3.01 1.2,4.51 l -24.6,-3.54 16,28.8 15.2,2.19 1,4.5 -13.6,-1.97 16,28.81 3.7,0.53 1,4.5 -2.1,-0.31 58.9,106.41 -3.7,2.08 -42,-75.73 -26.8,-3.88 16,28.8"
         style="fill:#ccccc9;fill-opacity:1;fill-rule:nonzero;stroke:none"
         id="path30" />
      <path
         d="m 14339.62,4505.9172 c -12.5,-65.37 -21.6,-131.52 -27.1,-197.92 -31.6,4.3 -66,-10.66 -97.3,-2.15 -39.6,10.76 -70.5,39.74 -105.9,60.38 -159.1,93.07 -332.6,161.2 -512.3,201.54 61.3,-5.26 122,-16.01 181.7,-34.07 50.4,-15.13 103.1,-35.61 154.1,-22.62 36,9.21 65.7,33.89 98.8,50.66 62,31.31 138.1,33.38 201.7,5.42 33.8,-14.79 73.6,-35.26 106.3,-61.24"
         style="fill:#e26739;fill-opacity:1;fill-rule:nonzero;stroke:none"
         id="path32" />
      <path
         d="m 13583.02,7073.6372 c -28.5,12.04 -54.2,31.05 -73.8,55.13 -16.1,-9.72 -43.2,-12.13 -61.3,-6.96 -18.1,5.15 -35.2,13.58 -53.7,17.11 -29.3,5.59 -60.9,-2.15 -84.3,-20.73 -23.4,-18.58 -38.1,-47.65 -39.2,-77.5 -1.8,-48.08 -1.7,-102.19 -36.9,-135.04 8.3,-56.95 10.8,-119.13 8.7,-176.68 -37,24.69 -84.6,30.54 -128.6,23.66 -7.9,-18.58 -15.9,-37.42 -18.9,-57.37 -3.1,-20.05 -0.7,-41.64 10.8,-58.23 13,-18.84 35.9,-28.82 58.5,-31.23 22.7,-2.5 45.5,1.64 68,6.11 1.4,-47.83 -0.2,-95.82 -3.7,-143.56 -52.8,54.1 -132.7,77.58 -181.3,135.81 -40.1,48.17 -59.1,119.13 -38.9,178.57 -11.5,-4.3 -23,-8.51 -34.4,-12.81 5.3,19.86 20.9,36.72 40.2,43.6 -23.4,77.5 -15.6,163.87 21.3,235.94 36.9,72.09 102.3,129.03 178.9,155.44 -12.7,32.08 -32.4,61.41 -57.3,85.24 66.3,25.97 143.6,22.27 207.2,-9.73 -1.2,21.08 -10.7,41.55 -26,56.09 50.9,5.93 104.2,-11.01 142.5,-45.25 38.2,-34.15 70.2,-92.55 70.1,-143.9 23.4,-11.87 27.1,-41.89 31,-67.78 0.4,-1.98 0.7,-3.96 1.1,-5.93"
         style="fill:#911631;fill-opacity:1;fill-rule:nonzero;stroke:none"
         id="path34" />
      <path
         d="m 12375.62,6887.4972 c -8,-27.61 -22.4,-54.1 -38.2,-78.19 -25.9,-39.31 -51.9,-78.62 -77.8,-118.01 -24.9,29.68 -49.7,59.44 -74.6,89.11 33.9,55.05 71.5,107.78 112.5,157.66 16.6,0.86 33.9,-3.09 47.8,-12.21 13.8,-9.12 24.7,-22.79 30.3,-38.36"
         style="fill:#100f0d;fill-opacity:1;fill-rule:nonzero;stroke:none"
         id="path36" />
      <path
         d="m 12806.12,7795.3972 -498.8,-881.81 37.4,-21.18 498.9,881.8 -37.5,21.19"
         style="fill:#57c6bf;fill-opacity:1;fill-rule:nonzero;stroke:none"
         id="path38" />
      <path
         d="m 13279.32,8654.6872 c -45.7,0 -179.8,-116.79 -320.9,-380.45 -63.9,-119.37 -111.4,-237.93 -133.9,-333.85 -24.6,-105.01 -9.6,-144.25 1.8,-150.33 34.4,-18.49 178,95.32 329.5,378.54 63.9,119.37 111.4,237.93 133.9,333.85 24.6,105 9.6,144.25 -1.8,150.32 -2.4,1.28 -5.3,1.92 -8.6,1.92 z m -446.4,-917.66 c -11.1,0 -21.4,2.43 -31,7.52 -44.9,24.07 -54.2,93.92 -27.6,207.61 23.4,100.17 72.7,223.21 138.6,346.42 126.8,236.98 304.8,450.3 399.4,399.7 44.9,-24.06 54.2,-93.91 27.6,-207.59 -23.4,-100.18 -72.6,-223.21 -138.6,-346.44 -114,-213.14 -269.4,-407.22 -368.4,-407.22"
         style="fill:#57c6bf;fill-opacity:1;fill-rule:nonzero;stroke:none"
         id="path40" />
      <path
         d="m 11652.22,2079.1472 c -10.28,105.43 27.48,214.85 97.41,294.42 55.61,63.28 132.49,109.53 171,184.46 27.44,53.4 32.28,116.03 58.71,169.93 27.19,55.45 75.78,98.12 129.48,128.57 45.3,25.65 94.4,43.43 143.9,59.87 -18.5,24.15 -38,47.56 -58.4,70.16 -37.9,-4.91 -75,-16.01 -109.5,-32.44 -35.76,-16.94 -68.88,-39.64 -97.34,-67.17 -56,-54.02 -136.95,-136.08 -110.54,-209.28 16.44,-45.75 -0.17,-98.4 -30.79,-136.16 -30.62,-37.84 -67.95,-70.35 -110.53,-93.93 -42.83,-71.47 -86.01,-143.64 -112.59,-222.69 -26.58,-78.96 -26.32,-158.27 0.08,-237.31 15.6,-6.14 31.89,-9.36 48.4,-10.3 -3.55,13.89 -7.12,27.78 -10.69,41.67 l -8.6,60.2"
         style="fill:#ffffff;fill-opacity:1;fill-rule:nonzero;stroke:none"
         id="path42" />
      <path
         d="m 11810.69,2371.4172 c 42.75,40.58 96.65,73.22 155.54,75.87 34.72,1.56 69.15,-7.33 103.89,-7.62 34.6,-0.28 72.8,10.7 90.6,40.38 -9.6,19.29 -11.8,45.81 -11.3,66.67 0.7,32.84 10.9,64.71 22.4,95.46 10.6,28.27 23,56.91 44.8,77.87 22.1,21.33 52.2,32.85 82.5,37.65 16.2,2.55 32.5,3.31 48.9,3.27 -25.3,55.46 -58.1,107.03 -95.3,155.43 -49.5,-16.44 -98.6,-34.22 -143.9,-59.87 -53.7,-30.45 -102.29,-73.12 -129.49,-128.57 -26.42,-53.9 -31.26,-116.53 -58.7,-169.93 -38.51,-74.93 -115.39,-121.18 -171,-184.46 -69.93,-79.57 -107.69,-188.99 -97.41,-294.42 l 8.6,-60.2 c 3.57,-13.89 7.14,-27.78 10.69,-41.67 3.76,-0.22 7.55,-0.15 11.34,-0.12 -25.05,141.48 23.35,295.09 127.84,394.26"
         style="fill:#dc2e47;fill-opacity:1;fill-rule:nonzero;stroke:none"
         id="path44" />
      <path
         d="m 12185.62,2456.4072 c -11.4,3.83 -19.4,12.55 -24.9,23.64 -17.8,-29.68 -56,-40.66 -90.6,-40.38 -34.74,0.29 -69.17,9.18 -103.89,7.62 -58.89,-2.65 -112.79,-35.29 -155.54,-75.87 -104.49,-99.17 -152.89,-252.78 -127.84,-394.26 40.09,0.29 80.83,13.71 115.56,34.59 52.48,31.48 94.02,77.76 135.47,122.66 41.55,44.89 84.82,89.97 139.14,118.01 81.2,41.8 198.8,43.1 262.2,106.89 -40.9,43.97 -92.7,77.87 -149.6,97.1"
         style="fill:#c2202b;fill-opacity:1;fill-rule:nonzero;stroke:none"
         id="path46" />
      <path
         d="m 11285.71,2978.5672 c 20.12,97.76 85.6,181.06 162.7,244.46 77.1,63.39 166.28,109.98 252.01,161.09 69.91,41.68 140.4,87.58 220.75,100.58 76.53,12.38 165.55,-14.76 202.05,-81.77 12.8,22.79 20.7,51.01 17.4,73.48 -45.8,43.87 -98.01,90.58 -161.4,91.51 -46.02,0.7 -88.34,-23.22 -128.08,-46.44 -144.68,-84.64 -324.36,-127.99 -439.11,-250.22 -88.76,-94.62 -198.52,-225.18 -159.29,-348.87 5.31,-16.86 16.75,-30.83 31.06,-41.36 -5.97,31.94 -4.66,65.58 1.91,97.54"
         style="fill:#ffffff;fill-opacity:1;fill-rule:nonzero;stroke:none"
         id="path48" />
      <path
         d="m 13278.82,8692.1072 -13.6,-1.97 c -5.4,-3.59 -10.8,-7.25 -16,-11.02 l 40.6,5.88 c -3.9,2.2 -7.6,4.53 -11,7.11"
         style="fill:#100f0d;fill-opacity:1;fill-rule:nonzero;stroke:none"
         id="path50" />
      <g
         id="g52"
         transform="translate(2056.52,-440.68286)">
        <g
           id="g54"
           clip-path="url(#clipPath58)">
          <path
             d="m 14525.6,8093.89 c -0.1,14.75 -16,31 -30.5,28.57 5.6,9.64 -1.5,22.71 -11.7,27.33 -10.2,4.62 -22,3.24 -33.1,1.75 -86,-11.49 -172.8,-18.24 -258.8,-30.52 -144.7,-20.68 -281,-94.7 -378.1,-203.87 -20.3,-19.03 -53.8,-50.5 -53.8,-50.5 -141.9,-133.16 -302.1,-246.81 -474.6,-336.73 -158.3,-82.52 -330.6,-148.16 -463.9,-266.94 -124.4,-23.72 -255,-61.9 -369.7,-115.55 0,2.87 -3.4,3.96 -3.4,6.82 -0.7,0.19 -1.4,0.25 -2.1,0.43 -11.3,-62.38 -7.8,-127.07 1.5,-191.18 145.8,55.21 307,76.87 461.6,72.76 278.5,331.74 787,416.85 1024.7,778.94 68.7,-25.35 145.2,-27.72 215.9,-8.72 13.8,10.53 27.4,21.36 41.1,31.85 73,55.5 162.5,97.63 242.1,143.09 18.2,10.4 37.7,23.99 57.4,31.04 10.5,3.74 18.3,14.18 18.8,25.29 0.5,11.12 -2.7,25.89 -12.8,30.59 14.6,-2.18 29.5,10.8 29.4,25.55"
             style="fill:url(#linearGradient64);fill-opacity:1;fill-rule:nonzero;stroke:none"
             id="path66" />
        </g>
      </g>
      <path
         d="m 15990.22,7374.5172 c -237.7,-362.09 -746.2,-447.2 -1024.7,-778.94 -154.6,4.11 -315.8,-17.55 -461.6,-72.76 4.6,-31.69 10.6,-63.23 17,-94.28 7,-33.72 14.4,-67.85 30.4,-98.36 7.3,-13.91 16.7,-26.98 27.8,-38.14 161.5,75.66 307.5,182.13 472.7,249.27 190.4,77.34 362.4,194.77 518.7,328.21 156.2,133.43 308,284.13 449.1,433.48 41.3,-10.43 85.6,0.91 123.3,20.84 22.4,11.84 43,26.56 63.2,41.96 -70.7,-19 -147.2,-16.63 -215.9,8.72"
         style="fill:#e26739;fill-opacity:1;fill-rule:nonzero;stroke:none"
         id="path68" />
      <g
         id="g70"
         transform="translate(2056.52,-440.68286)">
        <g
           id="g72"
           clip-path="url(#clipPath76)">
          <path
             d="m 9951.91,6579.93 c -33.35,-140.14 -35.56,-287.6 -6.42,-428.67 156.61,98.26 348.21,152.89 535.31,163.13 3.2,44.73 6,89.35 8.8,133.6 -108.3,-6.79 -217.5,-15.06 -324.3,-33.46 -35.9,112.68 -46.7,233.44 -37.4,351.37 30.6,42.41 39.2,95.48 63.4,141.84 12.6,24.08 33.3,42.66 50,64.08 16.7,21.42 29.8,48.77 23.2,75.09 -4.1,16.26 -15.2,29.68 -26,42.58 -11.8,14.19 -23.6,28.3 -35.4,42.49 -24.9,29.68 -49.7,59.44 -74.6,89.11 -11.1,13.33 -22.2,26.75 -33.4,40.08 -6.4,7.66 -14,15.91 -23.9,16.52 -15,0.94 -25,-15.74 -27.3,-30.54 -2.4,-14.88 -1.8,-31.05 -10.4,-43.35 -6.8,4.91 -14.6,10.15 -22.8,8.77 -10.93,-1.89 -16.61,-14.1 -18.59,-25.03 -1.97,-10.83 -2.15,-22.01 -9.46,-30.45 -11.61,2.5 -24.6,4.65 -34.57,-1.88 -8.7,-5.77 -12.48,-17.04 -11.97,-27.45 0.52,-10.49 2.93,-19.26 6.98,-28.9 -16.35,-2.83 -23.06,-22.36 -25.3,-38.79 -11.27,-82.32 9.72,-170.05 59.36,-236.63 -1.49,-6.44 -3.73,-13.05 -6.32,-19.69 7.87,-23.42 11.1,-48.87 10.33,-73.52 -1.6,-51.12 -17.4,-100.55 -29.25,-150.3"
             style="fill:url(#linearGradient82);fill-opacity:1;fill-rule:nonzero;stroke:none"
             id="path84" />
        </g>
      </g>
      <path
         d="m 12002.01,5710.5772 c -29.14,141.07 -26.93,288.53 6.42,428.67 11.85,49.75 27.65,99.18 29.25,150.3 0.77,24.65 -2.46,50.1 -10.33,73.52 -6.01,-15.44 -14.01,-31.08 -19.67,-45.33 -45.41,-115.01 -84.63,-233.28 -103.55,-355.5 -18.93,-122.23 -12.13,-251.6 23.31,-370.04 196.78,3.1 393.28,19.44 587.78,48.95 10.1,77.04 16.7,154.98 22.1,232.56 -187.1,-10.24 -378.7,-64.87 -535.31,-163.13"
         style="fill:#e26739;fill-opacity:1;fill-rule:nonzero;stroke:none"
         id="path86" />
      <path
         d="m 12027.33,6481.4572 c 19.29,-41.51 50.89,-77.17 89.79,-101.29 -16,-28.32 -34.4,-55.02 -57.4,-78.03 -42.03,4.36 -80.64,29.15 -98.17,67.58 12.07,23.61 24.53,48.14 36.6,71.76 7.37,14.45 16.69,29.63 29.18,39.98"
         style="fill:#100f0d;fill-opacity:1;fill-rule:nonzero;stroke:none"
         id="path88" />
      <path
         d="m 11950.52,3134.5072 c 4.26,50.74 26.37,98.7 58.48,138.46 -62.94,27.15 -133.78,53.59 -187.7,72.13 -12.68,-11.24 -23.93,-24.34 -33.92,-39.46 -22.67,-34.26 -33.89,-75.95 -31.48,-116.95 34.67,-45.52 54.91,-103.33 56.52,-160.82 8.71,5.25 17.37,10.51 25.99,15.8 48.12,0.34 94.78,-11.09 139.14,-29.64 -21.06,35.8 -30.52,78.86 -27.03,120.48"
         style="fill:#ccccc9;fill-opacity:1;fill-rule:nonzero;stroke:none"
         id="path90" />
      <path
         d="m 12033.4,3300.0472 c 37.62,36.51 83.62,63.23 132.52,82.57 -9.7,-0.26 -19.3,-0.72 -29,-1.4 -86.05,-10.71 -173.32,-11.8 -259.6,-2.98 -21.61,-7.73 -39.99,-18.91 -56.02,-33.14 53.92,-18.54 124.76,-44.98 187.7,-72.13 7.66,9.48 15.7,18.64 24.4,27.08"
         style="fill:#e9e8e7;fill-opacity:1;fill-rule:nonzero;stroke:none"
         id="path92" />
      <g
         id="g94"
         transform="translate(2056.52,-440.68286)">
        <g
           id="g96"
           clip-path="url(#clipPath100)">
          <path
             d="m 9952.48,3713.65 c 61.92,-26.71 116.12,-54.07 138.72,-75.18 57.2,-53.48 111.1,-111.54 177.3,-153.41 66.1,-41.88 135.8,-57.17 211,-35.22 72.6,94.53 171.6,164.63 259.1,245.63 181.9,168.4 314.9,388.56 381.4,627.26 -11.4,8.36 -23.3,16.19 -35.7,23.14 -105.7,59.18 -235,55.22 -354.4,31.83 -103.6,-207.3 -207.1,-422.77 -301.4,-633.68 -48.6,45.34 -115.3,67.27 -181.4,73.21 -45.8,4.17 -91.8,7.32 -137.7,6.07 -48.9,-19.34 -94.9,-46.06 -132.52,-82.57 -8.7,-8.44 -16.74,-17.6 -24.4,-27.08"
             style="fill:url(#linearGradient106);fill-opacity:1;fill-rule:nonzero;stroke:none"
             id="path108" />
        </g>
      </g>
      <path
         d="m 13279.32,3782.1872 c -30.8,36.6 -64.3,71.74 -102.8,99.86 -66.5,-238.7 -199.5,-458.86 -381.4,-627.26 -87.5,-81 -186.5,-151.1 -259.1,-245.63 -75.2,-21.95 -144.9,-6.66 -211,35.22 -66.2,41.87 -120.1,99.93 -177.3,153.41 -22.6,21.11 -76.8,48.47 -138.72,75.18 -32.11,-39.76 -54.22,-87.72 -58.48,-138.46 -3.49,-41.62 5.97,-84.68 27.03,-120.48 46.36,-19.41 90.17,-46.61 130.57,-76.59 78.9,-58.67 149.2,-128.94 231.4,-182.78 82.3,-53.93 181.8,-91.18 278.4,-73.03 87.4,16.43 160.1,75.27 227,133.93 213.3,187.25 409.4,394.12 584.8,617.24 8.8,128.84 -67.1,250.65 -150.4,349.39"
         style="fill:#e26739;fill-opacity:1;fill-rule:nonzero;stroke:none"
         id="path110" />
      <path
         d="m 12610.72,2506.7672 c -0.7,20.08 0.1,40.24 2.1,60.19 4.6,44.62 15.9,89.65 41.4,126.52 9.1,13.11 20.2,24.99 32.8,34.94 -4.4,-0.45 -8.8,-0.96 -13.1,-1.38 -107.3,-10.05 -226.5,-14.53 -324.3,30.63 -0.5,1.11 -1.1,2.19 -1.6,3.3 -16.4,0.04 -32.7,-0.72 -48.9,-3.27 -30.3,-4.8 -60.4,-16.32 -82.5,-37.65 -21.8,-20.96 -34.2,-49.6 -44.8,-77.87 -11.5,-30.75 -21.7,-62.62 -22.4,-95.46 -0.4,-15 0.7,-32.91 4.9,-48.97 151.9,12.61 304.2,14.93 456.4,9.02"
         style="fill:#e9e8e7;fill-opacity:1;fill-rule:nonzero;stroke:none"
         id="path112" />
      <path
         d="m 12610.72,2506.7672 c -152.2,5.91 -304.5,3.59 -456.4,-9.02 4.9,-19.13 14.3,-35.64 31.3,-41.34 56.9,-19.23 108.7,-53.13 149.6,-97.1 3.7,3.66 7.2,7.45 10.5,11.55 111.1,-5.49 220.7,-23.3 329.6,-47.45 -21.2,25.42 -37.2,55.24 -47.8,86.64 -10.4,31.16 -15.6,63.83 -16.8,96.72"
         style="fill:#ccccc9;fill-opacity:1;fill-rule:nonzero;stroke:none"
         id="path114" />
      <path
         d="m 14060.52,3321.5772 c -43.1,12.3 -88.7,10.75 -133.4,13.34 -55.8,3.18 -110.6,12.85 -164.5,26.54 43.1,-134.45 31.3,-289.82 -13.9,-426.35 -63.9,-192.7 -184.1,-360.67 -284.8,-536.95 -281.4,57.14 -567,97.5 -853.2,108.61 1.2,-32.89 6.4,-65.56 16.8,-96.72 10.6,-31.4 26.6,-61.22 47.8,-86.64 265.3,-58.86 526.1,-155.56 792.6,-204.66 54.1,-9.98 111.2,-19.69 163,-1.21 56.8,20.39 96.6,71.06 130.5,121.03 205.7,302.86 309,661.97 391,1019.36 -18.2,31.91 -56,53.33 -91.9,63.65"
         style="fill:#e26739;fill-opacity:1;fill-rule:nonzero;stroke:none"
         id="path116" />
      <g
         id="g118"
         transform="translate(2056.52,-440.68286)">
        <g
           id="g120"
           clip-path="url(#clipPath124)">
          <path
             d="m 10597.7,3134.16 c -25.5,-36.87 -36.8,-81.9 -41.4,-126.52 -2,-19.95 -2.8,-40.11 -2.1,-60.19 286.2,-11.11 571.8,-51.47 853.2,-108.61 100.7,176.28 220.9,344.25 284.8,536.95 45.2,136.53 57,291.9 13.9,426.35 -100.5,25.51 -198.2,65.2 -294.5,104.72 -10.8,-9.3 -27.6,-24.26 -38.4,-33.55 0,0.08 0,0.08 0,0.17 -11,-14.02 -22.1,-27.95 -33.3,-41.8 2.9,-237.4 -26.9,-478.94 -93.6,-706.27 -87.5,62.96 -200.1,81.03 -307.8,77.93 -84.7,-2.5 -168.6,-16.94 -252.8,-27.87 -18.4,-2.36 -36.8,-4.47 -55.2,-6.37 -12.6,-9.95 -23.7,-21.83 -32.8,-34.94"
             style="fill:url(#linearGradient130);fill-opacity:1;fill-rule:nonzero;stroke:none"
             id="path132" />
        </g>
      </g>
      <g
         id="g134"
         transform="translate(2056.52,-440.68286)">
        <g
           id="g136"
           clip-path="url(#clipPath140)">
          <path
             d="m 11356.7,6840.48 c 7,24.66 16,50.18 10.9,75.31 -14.9,73.71 -131.1,85.11 -153.2,156.99 129.6,-61.57 296.1,-84.82 437.8,-54.94 2.1,3.83 3.5,7.86 3.9,11.95 4.9,60.99 9.9,121.97 14.8,182.96 2.6,32.34 5.1,65.54 -4.4,96.5 -24.9,79.92 -123.2,124.04 -140,205.07 -28.5,12.04 -54.2,31.05 -73.8,55.13 -16.1,-9.72 -43.2,-12.13 -61.3,-6.96 -18.1,5.15 -35.2,13.58 -53.7,17.11 -29.3,5.59 -60.9,-2.15 -84.3,-20.73 -23.4,-18.58 -38.1,-47.65 -39.2,-77.5 -1.8,-48.08 -1.7,-102.19 -36.9,-135.04 8.3,-56.95 10.8,-119.13 8.7,-176.68 -37,24.69 -84.6,30.54 -128.6,23.66 -7.9,-18.58 -15.9,-37.42 -18.9,-57.37 -3.1,-20.05 -0.7,-41.64 10.8,-58.23 13,-18.84 35.9,-28.82 58.5,-31.23 22.7,-2.5 45.5,1.64 68,6.11 1.4,-47.83 -0.2,-95.82 -3.7,-143.56 1.3,-1.2 2.5,-2.41 3.7,-3.7 9.4,-47.83 13.1,-99.26 7.6,-147.86 0.1,-0.09 0,-0.17 0,-0.17 2.8,-14.28 5.3,-28.3 5,-42.84 h 87.5 c 24.8,-26.36 50.2,-58.3 73,-88.44 -15.9,69.94 -11.9,145.09 7.8,214.46"
             style="fill:url(#linearGradient146);fill-opacity:1;fill-rule:nonzero;stroke:none"
             id="path148" />
        </g>
      </g>
      <path
         d="m 13270.92,6632.0972 c 22.1,-71.88 138.3,-83.28 153.2,-156.99 5.1,-25.13 -3.9,-50.65 -10.9,-75.31 -19.7,-69.37 -23.7,-144.52 -7.8,-214.46 4.2,-5.66 8.4,-11.27 12.5,-16.75 7.5,38.1 15.2,76.46 30.1,112.33 14.9,35.87 38.4,65.89 70.7,87.48 l 48.8,22.97 c 48.4,0 89.6,46.79 99.1,94.27 1,0.6 1.9,1.12 3,1.72 1.9,21.76 3.5,44.38 5.4,65.46 12.9,2.22 27.1,12.17 33.7,24.34 -141.7,-29.88 -308.2,-6.63 -437.8,54.94"
         style="fill:#e26739;fill-opacity:1;fill-rule:nonzero;stroke:none"
         id="path150" />
      <path
         d="m 14152.82,4699.2772 c -153.8,26.71 -330.3,-52.96 -458.8,35.63 46.4,41.69 52.9,120.43 14,169.18 -169.8,-106.65 -353.2,-191.54 -544.4,-251.95 6.7,40 13.5,80 20.3,120.01 -23.2,-30.21 -47.8,-61.51 -82.4,-77.66 -34.5,-16.16 -82,-11.56 -102.8,20.42 -22.7,34.98 -4,81.36 17.2,117.26 70.3,118.61 167.1,221.39 281.3,298.61 -35.4,18.37 -77.6,-0.85 -114,-17.22 -36.4,-16.35 -83.9,-28.14 -112.3,-0.05 -20,19.84 -20.9,53.06 -9.8,78.94 11.2,25.88 32,46.15 52.3,65.69 89.1,85.81 178.3,171.63 267.5,257.45 -106.2,-62.47 -212.4,-124.94 -318.5,-187.41 -22.4,-13.15 -48.4,-26.78 -73,-18.72 -33.6,10.96 -42.7,53.47 -45,88.72 -14.5,220.1 6.7,445.99 89.4,650.47 -79.6,-96.31 -143.7,-211.1 -180.9,-330.41 -85.9,79.68 -200.3,127.37 -317.1,134.5 -5.2,-70.65 -11.4,-141.49 -20.6,-211.59 -6.8,-53.42 -15.4,-106.41 -26.5,-158.62 30.4,12.21 64.6,-0.69 94.8,-13.42 80.1,-33.89 162.7,-65.28 242.9,-99.17 -0.6,-90.58 29.6,-181.15 84.4,-253.23 39.8,-52.21 96.3,-100.03 107,-164.71 -27.8,-64.09 -56.1,-134.97 -36,-201.88 4.1,-13.68 10.2,-26.84 12.4,-40.95 2.4,-15.56 -0.1,-31.39 -2.7,-46.96 -8.5,-52.47 -7.7,-94.62 -13.8,-144.34 -0.9,-7.56 -1.9,-15.31 -3.2,-23.22 204.1,45.42 416.7,90.67 622.5,73.12 61.3,-5.26 122,-16.01 181.7,-34.07 50.4,-15.13 103.1,-35.61 154.1,-22.62 36,9.21 65.7,33.89 98.8,50.66 62,31.31 138.1,33.38 201.7,5.42 33.8,-14.79 73.6,-35.26 106.3,-61.24 29,-22.97 52.5,-50.23 61.3,-81.54 5,9.38 9.4,18.9 13.6,28.49 -32.8,121.49 -136.7,224.67 -261.7,246.41"
         style="fill:#ed134b;fill-opacity:1;fill-rule:nonzero;stroke:none"
         id="path152" />
      <g
         id="g154"
         transform="translate(2056.52,-440.68286)">
        <g
           id="g156"
           clip-path="url(#clipPath160)">
          <path
             d="m 12520.3,6731.58 c 0.7,0.34 1.5,0.77 2.3,1.12 -11.1,11.18 -20.5,24.25 -27.8,38.19 -16,30.45 -23.4,64.6 -30.4,98.31 -19.3,93.93 -35.4,192.25 -18.5,285.49 -33.1,8.34 -68.2,-0.86 -100.3,-12.65 -32.8,-12.04 -65.3,-27.01 -100.2,-29.15 -17.6,-1.13 -35.6,1.11 -52.8,-2.93 -19.6,-4.56 -50.7,-25.55 -60.8,-43.01 -58.7,24.86 -125,-4.99 -181.3,-34.66 -83.5,-43.87 -163.8,-88.17 -246.3,-133.75 -14.2,31.65 -60.6,45.84 -91.1,29.5 -1.1,-0.6 -2,-1.12 -3,-1.72 -9.5,-47.48 -50.7,-94.27 -99.1,-94.27 l -48.8,-22.97 c -32.3,-21.59 -55.8,-51.61 -70.7,-87.48 -14.9,-35.87 -22.6,-74.23 -30.1,-112.33 -25.6,34.66 -56,73.88 -85.5,105.19 h -87.5 c 0.3,14.54 -2.2,28.56 -5,42.84 0,0 0.1,0.08 0,0.17 -0.8,4.13 -1.5,8.35 -2.3,12.47 -12.2,1.9 -24.8,-2.41 -35.2,-9.2 -10.3,-6.79 -18.8,-16.09 -27.2,-25.2 -21.4,-23.23 -39.5,-50.84 -60.9,-74.06 3.5,-18.67 9.6,-38.54 12.9,-57.11 -97.8,7.39 -197.9,-18.58 -279.8,-72.6 -26.7,-17.72 -56.7,-40.6 -88.6,-37.25 -70.6,7.32 -150.9,-8.77 -212.5,-44.12 -0.1,-0.78 -0.1,-1.64 -0.2,-2.41 -3.3,-51.17 -6.5,-102.82 -10.3,-154.57 116.8,-7.13 231.2,-54.82 317.1,-134.5 37.2,119.31 101.3,234.1 180.9,330.41 -82.7,-204.48 -103.9,-430.37 -89.4,-650.47 2.3,-35.25 11.4,-77.76 45,-88.72 24.6,-8.06 50.6,5.57 73,18.72 106.1,62.47 212.3,124.94 318.5,187.41 -89.2,-85.82 -178.4,-171.64 -267.5,-257.45 -20.3,-19.54 -41.1,-39.81 -52.3,-65.69 -11.1,-25.88 -10.2,-59.1 9.8,-78.94 28.4,-28.09 75.9,-16.3 112.3,0.05 36.4,16.37 78.6,35.59 114,17.22 -114.2,-77.22 -211,-180 -281.3,-298.61 -21.2,-35.9 -39.9,-82.28 -17.2,-117.26 20.8,-31.98 68.3,-36.58 102.8,-20.42 34.6,16.15 59.2,47.45 82.4,77.66 -6.8,-40.01 -13.6,-80.01 -20.3,-120.01 191.2,60.41 374.6,145.3 544.4,251.95 38.9,-48.75 32.4,-127.49 -14,-169.18 128.5,-88.59 305,-8.92 458.8,-35.63 125,-21.74 228.9,-124.92 261.7,-246.41 67.7,154.56 46.1,335.52 22.7,504.46 -38.2,274.12 -139.3,547.65 -111.5,823.16 16.1,158.69 77.1,302.86 146.4,446.59 41.9,-3.87 87,1.72 127.6,12.47 -16,11.95 -22.7,31.4 -22.9,51.35"
             style="fill:url(#linearGradient166);fill-opacity:1;fill-rule:nonzero;stroke:none"
             id="path168" />
        </g>
      </g>
      <path
         d="m 14356.62,4118.4172 -15,38.71 c -8.6,17.98 -16.7,39.99 -25.2,57.97 4.7,30.02 5.1,59.61 9.9,89.63 -4.5,1.64 -9.1,2.67 -13.8,3.27 -31.6,4.3 -66,-10.66 -97.3,-2.15 -39.6,10.76 -70.5,39.74 -105.9,60.38 -47.5,27.8 -96.5,53.08 -146.3,76.36 -66,5.38 -132,10.77 -198,16.15 -13.5,1.11 -31.2,-0.76 -34.2,-13.91 -2.8,-12.53 11,-21.88 22.7,-27.21 45.1,-20.56 90.1,-41.12 135.1,-61.68 -68.2,1.92 -136.4,3.82 -204.6,5.73 84.3,-43.71 172.6,-79.68 263.5,-107.34 -75.1,3.34 -150.1,6.69 -225.1,10.04 109.7,-80.22 219.4,-160.42 329,-240.63 -123.1,18.85 -255.1,36.48 -367.3,-17.79 63.2,-14.4 126.3,-28.82 189.5,-43.22 -69.3,-16.06 -136.4,-41.23 -199.1,-74.69 66.7,12.9 133.4,25.8 200.2,38.71 -95.4,-64.66 -190.7,-129.32 -286.1,-193.98 24.9,82.77 34.6,170.11 28.4,256.33 -7.9,-28.14 -15.8,-56.28 -23.6,-84.42 -11.2,80.76 -46.2,158.09 -99.4,219.86 7.5,-95.16 -11.7,-192.3 -54.9,-277.47 -56.3,76.76 -112.7,153.52 -169.1,230.27 -31.5,-64.86 -63,-129.71 -94.5,-194.56 38.9,-28.25 72.7,-63.67 103.8,-100.59 83.3,-98.74 159.2,-220.55 150.4,-349.39 0,-0.09 0,-0.09 0,-0.17 10.8,9.29 27.6,24.25 38.4,33.55 148,-60.74 299.3,-122.15 459,-131.26 44.7,-2.59 90.3,-1.04 133.4,-13.34 43.1,-12.39 89.1,-40.94 100.4,-84.29 13.5,-2.07 27,6.28 34.7,17.55 7.9,11.27 11,24.94 13.9,38.36 19.2,90.83 27,186.22 22.5,278.94 5.6,6.03 8.1,10.93 16.2,11.96 17.2,60.82 41.7,119.48 72.8,174.35 12.5,22.02 26.4,43.96 32,68.56 5.7,24.68 5,57.46 -13.8,74.4 25.2,29.59 40.8,67.18 44,105.8 3.3,38.7 -6.7,77.84 -26.6,111.21"
         style="fill:#57c6bf;fill-opacity:1;fill-rule:nonzero;stroke:none"
         id="path170" />
      <g
         id="g172"
         transform="translate(2056.52,-440.68286)">
        <g
           id="g174"
           clip-path="url(#clipPath178)">
          <path
             d="m 11382.6,4287.75 c 43.2,85.17 62.4,182.31 54.9,277.47 53.2,-61.77 88.2,-139.1 99.4,-219.86 7.8,28.14 15.7,56.28 23.6,84.42 6.2,-86.22 -3.5,-173.56 -28.4,-256.33 95.4,64.66 190.7,129.32 286.1,193.98 -66.8,-12.91 -133.5,-25.81 -200.2,-38.71 62.7,33.46 129.8,58.63 199.1,74.69 -63.2,14.4 -126.3,28.82 -189.5,43.22 112.2,54.27 244.2,36.64 367.3,17.79 -109.6,80.21 -219.3,160.41 -329,240.63 75,-3.35 150,-6.7 225.1,-10.04 -90.9,27.66 -179.2,63.63 -263.5,107.34 68.2,-1.91 136.4,-3.81 204.6,-5.73 -45,20.56 -90,41.12 -135.1,61.68 -11.7,5.33 -25.5,14.68 -22.7,27.21 3,13.15 20.7,15.02 34.2,13.91 66,-5.38 132,-10.77 198,-16.15 -117.1,54.64 -240,96.89 -366,125.18 -205.8,17.55 -418.4,-27.7 -622.5,-73.12 1.3,7.91 2.3,15.66 3.2,23.22 -35.4,-43.34 -72.6,-86.53 -108,-129.79 -11.9,-14.62 -24.1,-29.5 -31.6,-46.79 -21.5,-49.72 -6.7,-113.02 13.8,-163.17 -36.3,-33.81 -57.2,-87.82 -50.2,-136.86 -25.3,-29.75 -36.9,-68.89 -28,-106.82 4.2,0.86 8.5,1.72 12.7,2.58 119.4,23.39 248.7,27.35 354.4,-31.83 12.1,-6.75 23.5,-14.33 34.7,-22.41 31.5,64.85 63,129.7 94.5,194.56 56.4,-76.75 112.8,-153.51 169.1,-230.27"
             style="fill:url(#linearGradient184);fill-opacity:1;fill-rule:nonzero;stroke:none"
             id="path186" />
        </g>
      </g>
      <path
         d="m 11826.11,3397.6172 c 4.6,1.91 9.1,4.01 13.72,5.84 -5.19,-0.65 -9.78,-2.78 -13.72,-5.84"
         style="fill:#c2202b;fill-opacity:1;fill-rule:nonzero;stroke:none"
         id="path188" />
      <path
         d="m 11826.11,3397.6172 c -114.79,-47.6 -220.29,-117.52 -308.44,-205.12 -36.11,-35.89 -69.32,-74.61 -100.52,-114.83 -29.66,-38.23 -57.8,-78.34 -75.73,-123.28 -11.58,-29.05 -18.55,-60.44 -18.58,-91.59 27.61,-7.01 56.78,-5.29 85.07,-1.31 143.96,20.51 279.2,90.88 404.51,166.38 -1.61,57.49 -21.85,115.3 -56.52,160.82 -2.41,41 8.81,82.69 31.48,116.95 9.87,14.93 20.97,27.89 33.45,39.04 -14.73,14.02 -10.15,40.93 5.28,52.94"
         style="fill:#c2202b;fill-opacity:1;fill-rule:nonzero;stroke:none"
         id="path190" />
      <path
         d="m 12105.12,3378.0872 c 6.6,6.78 12.8,15.35 18.1,24.84 -36.5,67.01 -125.52,94.15 -202.05,81.77 -80.35,-13 -150.84,-58.9 -220.75,-100.58 -85.73,-51.11 -174.91,-97.7 -252.01,-161.09 -77.1,-63.4 -142.58,-146.7 -162.7,-244.46 -6.57,-31.96 -7.87,-65.6 -1.91,-97.54 10.22,-7.52 21.85,-13.34 33.96,-16.96 1.68,-0.5 3.39,-0.84 5.08,-1.27 0.03,31.15 7,62.54 18.58,91.59 17.93,44.94 46.07,85.05 75.73,123.28 31.2,40.22 64.41,78.94 100.52,114.83 88.15,87.6 193.65,157.52 308.44,205.12 3.94,3.06 8.53,5.19 13.72,5.84 -4.62,-1.83 -9.12,-3.93 -13.72,-5.84 -15.43,-12.01 -20.01,-38.92 -5.28,-52.94 16.15,14.43 34.67,25.75 56.49,33.56 86.28,-8.82 173.55,-7.73 259.6,2.98 -10.6,-0.74 -21.2,-1.74 -31.8,-3.13"
         style="fill:#dc2e47;fill-opacity:1;fill-rule:nonzero;stroke:none"
         id="path192" />
      <path
         d="m 13869.52,8462.9772 c -15.9,-17.73 -31.3,-36.03 -46.2,-54.58 -2.7,-3.35 -7.9,-8.59 -13.3,-14.53 -0.9,1.65 -2,3.27 -3.1,4.87 10.5,11.94 20.1,25.87 29.8,37.49 12.4,14.83 24.8,29.66 37.3,44.49 1.5,-3.19 2.5,-6.4 3.1,-9.6 -2.5,-2.73 -5.1,-5.38 -7.6,-8.14 z m -76.6,11.7 c -6.7,-15.19 -15.8,-31.33 -22,-47.47 -7.6,2.61 -15.7,3.88 -24.1,3.9 7.7,12.04 14,29.25 17.8,36.37 11.4,21.68 22.4,43.58 32.7,65.86 6.3,-2.31 12.3,-4.87 18,-7.53 -7.5,-17.04 -15,-34.09 -22.4,-51.13 z m -58.6,-44.38 c -5.6,-0.66 -11.3,-1.67 -16.8,-3.03 6.1,12.13 10.4,28.33 13.3,35.28 9.1,22.04 17.8,44.24 25.8,66.74 1.5,4.23 2.8,8.54 4.2,12.8 3.4,-0.34 6.9,-0.82 10.2,-1.45 -6.3,-19.28 -12.6,-38.57 -18.8,-57.85 -5.5,-16.75 -13.4,-34.82 -17.9,-52.49 z m 270.1,131.8 c -3.2,4.66 -9.7,6.11 -15.3,4.92 -5.5,-1.19 -10.4,-4.51 -15,-7.83 -27.4,-19.76 -52.6,-42.31 -76.3,-66.32 -1.6,3.3 -3.4,6.54 -5.6,9.68 26.5,31.68 53.1,63.35 79.6,95.02 7.1,8.52 14.2,21.71 6.4,30.4 -4.2,4.62 -11.1,5.38 -16.7,3.43 -5.5,-1.95 -9.9,-6.11 -14.1,-10.24 -29.2,-28.76 -54.7,-61.24 -77.9,-95.35 -5.6,4.22 -11.5,7.99 -17.4,11.35 21.4,38.01 40.5,77.54 54.6,119.17 1.9,5.66 3.7,11.54 3.3,17.5 -0.4,5.96 -3.6,12.09 -8.9,13.95 -10.2,3.51 -18.6,-8.72 -23.1,-18.98 -17.3,-39.46 -34.6,-78.92 -51.9,-118.38 -5.7,2.65 -11.7,5.23 -17.9,7.59 16.2,37.68 30.1,76.49 39.4,116.72 1.4,5.81 2.6,11.84 1.6,17.74 -1,5.89 -4.7,11.68 -10.3,13 -10.4,2.5 -17.5,-10.5 -21,-21.14 -12.8,-39.28 -25.6,-78.56 -38.5,-117.84 -3.3,0.7 -6.7,1.31 -10.2,1.79 9.8,32.37 17.6,65.34 21.8,98.91 0.7,5.62 1.3,11.45 -0.3,16.89 -1.6,5.44 -5.9,10.45 -11.6,11.07 -10.6,1.16 -16.3,-11.9 -18.6,-22.32 -9.7,-43.54 -19.3,-87.08 -29,-130.62 -4.9,-22.22 -9.8,-44.44 -14.7,-66.67 -3.7,-16.59 -9.7,-34.73 -12.2,-52.06 -2.1,-0.72 -4.3,-1.42 -6.3,-2.19 -0.4,-0.62 -0.8,-1.3 -1.2,-1.93 15.5,7.11 32.5,11.47 49.5,10.88 17.7,-0.6 35.3,-6.73 48.6,-18.32 -4.4,4.1 -9,7.8 -13.8,10.58 9.3,11.22 17.7,28.74 22.3,35.73 12,18.28 23.7,36.82 35,55.65 5.5,-3.14 10.9,-6.54 15.9,-10.4 -13.1,-20.57 -25.6,-41.63 -37.7,-62.92 -3.6,-6.38 -12.9,-18.81 -19.1,-30.88 -0.1,0.04 -0.1,0.06 -0.2,0.1 10.6,-10.15 17.6,-24.07 18.8,-38.56 0.1,2.44 0,4.92 -0.5,7.44 8.7,7.96 17.1,16.42 25.5,23.67 17.1,14.95 34.3,29.91 51.4,44.86 33.7,29.29 67.3,58.58 100.9,87.87 8.1,7.01 16.8,18.28 10.7,27.04"
         style="fill:#ccccc9;fill-opacity:1;fill-rule:nonzero;stroke:none"
         id="path194" />
      <path
         d="m 13795.22,8411.9172 c -13.3,11.59 -30.9,17.72 -48.6,18.32 -17,0.59 -34,-3.77 -49.5,-10.88 -4.6,-6.96 -8.7,-14.33 -11.8,-22.05 8.1,7.68 20.3,10.67 31.7,11.67 15.8,1.39 32,0.17 46.7,-5.81 14.7,-5.98 27.7,-17.08 33.9,-31.69 4.5,-10.75 4.9,-23.4 0.7,-34.2 6.1,7.26 11.4,15.35 15.6,23.8 1.6,3.21 2.3,6.62 2.5,10.14 -1.2,14.49 -8.2,28.41 -18.8,38.56 -0.7,0.77 -1.6,1.41 -2.4,2.14"
         style="fill:#ed1d24;fill-opacity:1;fill-rule:nonzero;stroke:none"
         id="path196" />
      <path
         d="m 13797.62,8371.4772 c -6.2,14.61 -19.2,25.71 -33.9,31.69 -14.7,5.98 -30.9,7.2 -46.7,5.81 -11.4,-1 -23.6,-3.99 -31.7,-11.67 -3,-7.35 -5.2,-14.97 -6.2,-22.85 -2,-16.91 1.8,-34.95 12.7,-48.06 16,-19.33 45.2,-24.51 68.9,-16.1 14.8,5.25 27.4,14.97 37.6,26.98 4.2,10.8 3.8,23.45 -0.7,34.2"
         style="fill:#ccccc9;fill-opacity:1;fill-rule:nonzero;stroke:none"
         id="path198" />
      <path
         d="m 17164.82,2717.7472 c -12.4,2.83 -24.9,5.68 -37.3,8.52 10.9,-7.67 24,-11.43 37.3,-8.52"
         style="fill:#7c8480;fill-opacity:1;fill-rule:nonzero;stroke:none"
         id="path334" />
      <path
         d="m 15948.52,5929.9372 c -1,-1.95 -2,-3.9 -2.8,-5.94"
         style="fill:none;stroke:#6cab8b;stroke-width:10;stroke-linecap:butt;stroke-linejoin:miter;stroke-miterlimit:10;stroke-dasharray:none;stroke-opacity:1"
         id="path374" />
    </g>
  </g>
</svg>
