<?xml version="1.0" encoding="UTF-8" standalone="no"?>
<!-- Created with Inkscape (http://www.inkscape.org/) -->

<svg
   version="1.1"
   id="svg2"
   width="788.80426"
   height="1512.2181"
   viewBox="0 0 788.80425 1512.2181"
   sodipodi:docname="Badminton_jumpSmash.eps"
   xmlns:inkscape="http://www.inkscape.org/namespaces/inkscape"
   xmlns:sodipodi="http://sodipodi.sourceforge.net/DTD/sodipodi-0.dtd"
   xmlns="http://www.w3.org/2000/svg"
   xmlns:svg="http://www.w3.org/2000/svg">
  <defs
     id="defs6" />
  <sodipodi:namedview
     id="namedview4"
     pagecolor="#ffffff"
     bordercolor="#666666"
     borderopacity="1.0"
     inkscape:showpageshadow="2"
     inkscape:pageopacity="0.0"
     inkscape:pagecheckerboard="0"
     inkscape:deskcolor="#d1d1d1"
     showgrid="false" />
  <g
     id="g10"
     inkscape:groupmode="layer"
     inkscape:label="Page 1"
     transform="matrix(1.3333333,0,0,-1.3333333,-996.44912,2313.2466)">
    <g
       id="g18"
       transform="scale(0.106812)">
      <path
         d="m 8352.24,14590.2 c 239.85,50.6 385.04,321.5 453.22,558.4 52.88,183.8 66.12,378.3 42.55,567.8 -13.64,109.8 -30.99,220.1 -95.58,312.1 -122.75,174.8 -319.5,190.1 -506.89,47.6 -232.49,-176.8 -346.48,-445.3 -384.95,-728 -30.19,-221.7 -36.69,-468.6 120.42,-633.5 101.66,-106.6 224.59,-155.3 371.23,-124.4 z m -48.07,-7740.76 c 0,0 126.49,68.06 308.24,95.49 26.33,-109.72 20.86,-402.66 20.86,-402.66 48.57,-8.43 121,-9.37 202.9,-4.22 -104,-32.58 -196.42,-48.12 -196.42,-48.12 233.71,-13.2 656.21,126.95 656.21,126.95 193.08,61.51 561.76,-26.31 561.76,-26.31 61.42,-188.74 83.33,-425.7 83.33,-425.7 65.85,373.09 -98.68,814.05 -98.68,814.05 l 206.23,-4.4 -263.25,35.11 -17.6,171.23 c 265.55,87.73 335.75,212.81 335.75,212.81 -272.08,-210.75 -684.59,-201.85 -1154.19,-280.87 -469.56,-79.02 -645.14,-263.36 -645.14,-263.36 z m 842.4,2711.87 c 0,0 13.11,41.69 21.9,86.66 8.76,44.99 95.43,7.7 222.73,-18.66 127.33,-26.31 380.77,57.04 374.12,55.95 -6.55,-1.1 -273.19,-46.07 -405.96,-5.47 -132.76,40.62 -223.8,84.48 -246.85,19.76 -23,-64.75 34.06,-138.24 34.06,-138.24 z m 1913.33,170.02 32.9,-250.18 c 0,0 244.3,241.34 250.9,360.45 5.2,93.74 -161.4,81.17 -242.1,54.29 0,0 162.3,10.98 171.1,-41.7 8.8,-52.68 -146.9,-223.82 -146.9,-223.82 z m -2455.89,5992.77 -535.42,-333.5 234.79,106.4 z m -57.52,-202.5 -535.43,-333.5 392.76,211.7 z m 89.98,-193.1 -535.41,-333.5 332.44,170 z M 8103.94,7290.97 c 0,0 194.33,115.34 377.64,289.1 -61.51,-154.01 -64.91,-233.68 -64.91,-233.68 105.31,337.98 467.08,638.04 467.08,638.04 152.31,102.33 324.32,125.45 512.6,-56.08 0,0 -53.79,165.71 -278.7,206.34 0,0 127.18,336.76 434.4,446.49 0,0 -219.43,-30.71 -434.48,-263.36 0,0 171.17,315.97 366.41,427.86 0,0 -245.72,-114.04 -394.94,-272.07 0,0 129.39,311.57 410.3,482.72 0,0 -276.49,-109.64 -460.81,-364.2 0,0 10.89,239.02 -0.08,390.5 -10.93,151.39 175.54,366.44 175.54,366.44 0,0 272.15,116.29 500.3,125.09 0,0 -368.62,-11 -590.24,-122.94 0,0 -195.47,46.1 -162.51,294.06 32.91,247.98 228.15,162.39 427.79,89.97 199.79,-72.42 662.77,65.82 662.77,65.82 0,0 -384.05,-81.16 -596.86,-24.11 0,0 254.47,17.52 379.55,70.18 125.08,52.68 142.68,8.8 357.61,-8.77 215.1,-17.56 388.5,72.4 388.5,72.4 0,0 -150.2,-52.48 -399.5,-31.81 -249.15,20.65 -155.8,83.39 -458.58,-4.38 -302.87,-87.78 -533.28,8.78 -533.28,8.78 0,0 -60.38,166.74 -203.01,307.14 -142.63,140.5 -175.54,228.2 -175.54,228.2 0,0 269.88,-57 370.85,-144.8 0,0 -160.19,175.5 -397.17,199.7 0,0 122.61,245.7 447.38,186.4 0,0 -267.69,88.9 -504.66,-96.5 0,0 -60.44,130.5 -121.87,170 0,0 -227.26,-96.1 -447.79,-107.1 l -205.25,-19.8 c 0,0 -176.76,207.3 -225.04,398.2 0,0 2.17,-175.6 126.14,-348.9 0,0 -311.68,-22.1 -454.32,46 0,0 -245.75,147 -263.32,537.6 -17.56,390.5 26.33,481.6 26.33,481.6 0,0 195.23,-76.8 337.87,52.6 0,0 -226.03,-87.7 -331.36,2.2 l -24.13,138.5 c 0,0 102.34,-60.3 207.67,11 0,0 -121.1,-67.2 -259.35,61.2 -138.24,128.4 -84.46,167.8 -92.15,224.9 0,0 -12.19,41.1 28.97,72.6 63.07,-19.1 91.44,-72.1 91.44,-72.1 -6,60.7 -57.33,87.3 -82.93,96.8 5.55,23.5 19.63,61.4 54.94,85.4 72.74,-14.9 105.27,-75.6 105.27,-75.6 -5.5,55.6 -48.96,82.5 -75.94,94 5.24,18.2 30.29,87.8 107.55,94.5 41.48,3.2 79.29,-39 100.07,-69 0,0 -22.35,70.6 -59.5,85.4 l 27.4,39 c 0,0 -33.46,-17.1 -71.86,-1.1 -38.42,15.9 -93.85,130.5 97.02,115.2 l 11.13,-5.5 c 47.62,159.4 158.84,466.5 278.52,568.3 54.15,160.1 465.88,1260.5 409.25,1349.4 -265.98,176.8 -270.02,486.1 -231.54,768.8 35.01,257.2 139.2,567.2 412.2,774.7 220.54,167.7 474.43,148.6 621.58,-84.3 142.31,-225.2 116.77,-683.2 48.94,-918.9 -96.08,-334.1 -335.14,-711.7 -745.96,-597.4 -70.86,-70.9 -408.23,-1133.4 -469.56,-1313.4 27.81,-150.7 -136.99,-536.6 -195.36,-697.8 0,0 61.42,-114.1 83.36,-193.1 21.94,-79 10.89,-270 -37.37,-399.5 0,0 50.49,-188.7 63.65,-333.5 13.15,-144.8 76.77,-297.3 129.45,-341.2 0,0 305.54,88.1 463.7,165.8 81.6,31.7 259.54,80.3 522.51,41.6 0,0 -168.86,59.8 -410.4,34.4 104.26,79.9 282.78,177.7 580.61,197 337.9,22 592.41,223.9 592.41,223.9 0,0 -283,-128.4 -453.06,-137.2 0,0 113.03,58.1 136.06,98.7 0,0 -297.53,83.9 -464.1,310.3 168.06,-120.5 275.46,-120.5 275.46,-120.5 -236.96,79 -370.98,322.6 -370.98,322.6 l -0.84,0.4 c -45.66,149.6 -57.7,253.4 -46.03,331.7 41.1,-169.3 128.19,-233.4 128.19,-233.4 -92.77,151.1 -85.03,290.3 -64.39,376.8 7.01,8.4 14.44,16.5 22.26,24.5 -0.12,-31.1 5.69,-70.7 26.69,-113.7 0,0 -9.34,84.1 42.71,174.2 75.39,59.3 168.08,121.6 256.79,230.6 -47.5,-146.8 -121.63,-240.4 -121.63,-240.4 141.79,165 192.54,292.8 210.31,370.2 7.37,12.9 14.66,26.2 21.84,40 l -2.2,-134.7 c 0,0 63.63,172 173.37,205 0,0 -37.32,-40.7 -48.29,-97.7 0,0 54.87,76.3 245.73,33.5 0,0 -80.38,-1.5 -139.68,-35.4 116.93,-5.3 198.38,-64.6 198.38,-64.6 0,0 -86.69,30.2 -200.79,-26.8 0,0 133.95,33.2 290.3,-174 -75.93,23.3 -140.07,52.8 -140.07,52.8 81.08,-68.6 303.25,-136.7 317.1,-140.9 l 0.47,-0.2 h 0.19 c 69.94,-21.4 242.76,-9.4 163.75,-151.2 0,0 90.53,-51.3 67.5,-108.3 -23.13,-57.1 47.89,-21.7 66.49,-71.6 18.4,-49.9 -10.5,-83.6 23,-136.1 83.3,-130.6 6.6,-177.7 -142.58,-300.6 -68.06,-45 -127.32,-173.4 -127.32,-173.4 0,0 151.39,171.2 305,217.3 153.7,46.1 511.3,182.1 884.4,-212.9 0,0 -79.1,170 -279.9,263.3 0,0 310.6,-73.6 525.6,-481.7 0,0 -70.2,183.3 -160.1,318.2 0,0 235.8,-124 341,-255.7 0,0 90.9,-211.7 -8.6,-454.7 0,0 52.2,68.3 68,127.8 0,0 194.1,-99.9 334.5,-262.2 140.4,-162.4 289.6,-243.7 379.5,-320.5 86,-73.3 142.1,-135.6 216,-219.8 32.1,-28.7 61.6,-57.7 65.1,-71.6 7.4,-29.5 15.3,-52.8 49.1,-115.5 33.7,-62.8 17,-90.5 14.9,-128.7 -2.1,-38.3 -18.2,-60.9 -33.2,-83.5 -15,-22.5 -50.8,-56.3 -50.8,-56.3 0,0 -24.8,8.1 -22,37.8 3,29.8 25.9,83.9 25.9,83.9 -10.9,-27.6 -61.6,-95.4 -67.4,-102.6 -5.9,-7.3 -27.8,-10.8 -54,-26.4 -26.3,-15.7 -51.8,-12.4 -58.6,15.5 -6.9,27.8 53,64.3 60.2,70.8 7.4,6.4 18.4,27.1 27.7,50.7 9.2,23.6 -10.7,51.8 -10.7,51.8 0,0 -0.5,-36.6 -12.6,-59.6 -12.1,-23.1 -64.6,-54.4 -91.8,-67.5 -27.1,-13 -48.4,-2.6 -65.9,14.2 -17.4,16.8 17.5,39.2 17.5,39.2 0,0 -41.9,12.3 -49.5,26.4 -7.8,14.1 22.8,30.7 42.4,50 19.6,19.2 36.3,70.3 28.5,92.4 -2.8,7.7 -14,19.1 -27.5,30.8 24.9,5.6 56.3,-7 56.3,-7 -43.9,31.6 -74.4,19.5 -90,7.7 -21.2,-16.1 -77.7,-57.8 -101.4,-34.1 -37.6,37.4 93.9,175.5 93.9,175.5 -41.8,0 -78.4,-40.6 -78.4,-40.6 l -0.1,0.2 -0.4,0.4 c -15.1,20.5 -32.3,38.8 -51.2,55.5 -72.2,70.9 -220.5,193.8 -447.5,276.1 0,0 159.2,-79.6 256.8,-167.4 -182.6,74 -411.6,124.6 -592.7,289.1 l -54.8,68.1 c 0,0 -142.6,-13.2 -223.8,-4.4 0,0 -151.5,151.4 -348.9,177.7 0,0 245.8,-85.6 337.9,-331.3 0,0 -136,118.5 -337.9,164.6 0,0 296.1,-118.6 421.2,-392.9 0,0 -76.8,101 -206.3,153.6 0,0 199.7,-193 283.1,-399.3 83.3,-206.3 89.8,-386.2 89.8,-386.2 0,0 -131.6,300.6 -340,381.8 0,0 243.4,-193.1 326.8,-535.4 0,0 170.1,18.6 268.8,-54.86 0,0 -125,36.16 -307.1,-45.04 0,0 287.4,72.4 331.3,-70.22 43.9,-142.63 -197.6,-452.04 -456.5,-609.96 l -24.4,447.52 -50.4,-697.77 -326.9,140.44 c 0,0 332.3,-179.95 367.3,-223.86 35.1,-43.9 24.1,-126.2 24.1,-126.2 l -219.5,131.63 c 0,0 445.4,-318.13 498,-462.96 52.7,-144.83 -107.5,-245.76 -162.3,-241.36 -54.9,4.4 -112.1,-8.8 -112.1,-8.8 0,0 87.8,-344.53 79,-537.58 0,0 -74.6,272.07 -232.6,447.61 0,0 184.3,-355.49 254.5,-675.86 l -114.1,175.54 c 0,0 118.5,-219.36 109.7,-579.24 l -83.4,122.83 c 0,0 87.8,-223.85 101,-368.69 0,0 -548.6,35.11 -776.8,83.42 0,0 399.3,-116.28 708.8,-125.08 0,0 -169.1,-645.16 -423.7,-1009.35 0,0 -228.1,-149.23 -522.2,-26.4 0,0 155.8,-116.28 410.3,-79.02 0,0 -221.7,-73.21 -565.81,4.4 -2.34,1.13 -726.31,369.72 -1313.9,449.96 0,0 214.98,-54.96 480.69,-188.19 -235.26,89.22 -513.86,177.42 -767.14,211.96 0,0 210.65,-53.83 472.67,-184.15 -283,57.39 -623.35,86.97 -693.94,133.97 0,0 56.98,276.47 302.72,368.59 0,0 -258.94,-39.5 -416.92,-353.33 0,0 -151.37,-2.15 -272.09,81.27 0,0 63.64,204 261.14,291.82 0,0 -283.1,-59.26 -379.65,-467.36 0,0 -48.31,-197.55 -239.21,-201.86 0,0 -342.36,122.84 -263.37,570.45 0,0 46.58,234.62 202.5,425.33 76.8,82.67 179.98,167.21 318.17,240.14 0,0 -48.85,-12.45 -121.86,-45.97 122.19,143.34 86.85,244.54 156.14,350.33 83.4,127.33 267.73,239.21 520.09,65.82 -41.19,-71.71 -93.61,-115.9 -97.19,-118.05 v 0"
         style="fill:#051223;fill-opacity:1;fill-rule:evenodd;stroke:none"
         id="path20" />
    </g>
  </g>
</svg>
