<?xml version="1.0" encoding="UTF-8" standalone="no"?>
<!-- Created with Inkscape (http://www.inkscape.org/) -->

<svg
   version="1.1"
   id="svg2"
   width="1220.3754"
   height="851.75195"
   viewBox="0 0 1220.3754 851.75198"
   sodipodi:docname="Badminton_players_woman.svg"
   inkscape:export-filename="Badminton_players.eps.svg"
   inkscape:export-xdpi="96"
   inkscape:export-ydpi="96"
   inkscape:version="1.2.2 (732a01da63, 2022-12-09)"
   xmlns:inkscape="http://www.inkscape.org/namespaces/inkscape"
   xmlns:sodipodi="http://sodipodi.sourceforge.net/DTD/sodipodi-0.dtd"
   xmlns="http://www.w3.org/2000/svg"
   xmlns:svg="http://www.w3.org/2000/svg">
  <defs
     id="defs6">
    <clipPath
       clipPathUnits="userSpaceOnUse"
       id="clipPath58">
      <path
         d="m 14525.6,8093.89 c -0.1,14.75 -16,31 -30.5,28.57 5.6,9.64 -1.5,22.71 -11.7,27.33 -10.2,4.62 -22,3.24 -33.1,1.75 -86,-11.49 -172.8,-18.24 -258.8,-30.52 -144.7,-20.68 -281,-94.7 -378.1,-203.87 -20.3,-19.03 -53.8,-50.5 -53.8,-50.5 -141.9,-133.16 -302.1,-246.81 -474.6,-336.73 -158.3,-82.52 -330.6,-148.16 -463.9,-266.94 -124.4,-23.72 -255,-61.9 -369.7,-115.55 0,2.87 -3.4,3.96 -3.4,6.82 -0.7,0.19 -1.4,0.25 -2.1,0.43 -11.3,-62.38 -7.8,-127.07 1.5,-191.18 145.8,55.21 307,76.87 461.6,72.76 278.5,331.74 787,416.85 1024.7,778.94 68.7,-25.35 145.2,-27.72 215.9,-8.72 13.8,10.53 27.4,21.36 41.1,31.85 73,55.5 162.5,97.63 242.1,143.09 18.2,10.4 37.7,23.99 57.4,31.04 10.5,3.74 18.3,14.18 18.8,25.29 0.5,11.12 -2.7,25.89 -12.8,30.59 14.6,-2.18 29.5,10.8 29.4,25.55 z"
         id="path56" />
    </clipPath>
    <linearGradient
       x1="0"
       y1="0"
       x2="1"
       y2="0"
       gradientUnits="userSpaceOnUse"
       gradientTransform="matrix(-2613.67,1889.4,1889.4,2613.67,15051.3,6410.47)"
       spreadMethod="pad"
       id="linearGradient64">
      <stop
         style="stop-opacity:1;stop-color:#e16839"
         offset="0"
         id="stop60" />
      <stop
         style="stop-opacity:1;stop-color:#fabfbc"
         offset="1"
         id="stop62" />
    </linearGradient>
    <clipPath
       clipPathUnits="userSpaceOnUse"
       id="clipPath76">
      <path
         d="m 9951.91,6579.93 c -33.35,-140.14 -35.56,-287.6 -6.42,-428.67 156.61,98.26 348.21,152.89 535.31,163.13 3.2,44.73 6,89.35 8.8,133.6 -108.3,-6.79 -217.5,-15.06 -324.3,-33.46 -35.9,112.68 -46.7,233.44 -37.4,351.37 30.6,42.41 39.2,95.48 63.4,141.84 12.6,24.08 33.3,42.66 50,64.08 16.7,21.42 29.8,48.77 23.2,75.09 -4.1,16.26 -15.2,29.68 -26,42.58 -11.8,14.19 -23.6,28.3 -35.4,42.49 -24.9,29.68 -49.7,59.44 -74.6,89.11 -11.1,13.33 -22.2,26.75 -33.4,40.08 -6.4,7.66 -14,15.91 -23.9,16.52 -15,0.94 -25,-15.74 -27.3,-30.54 -2.4,-14.88 -1.8,-31.05 -10.4,-43.35 -6.8,4.91 -14.6,10.15 -22.8,8.77 -10.93,-1.89 -16.61,-14.1 -18.59,-25.03 -1.97,-10.83 -2.15,-22.01 -9.46,-30.45 -11.61,2.5 -24.6,4.65 -34.57,-1.88 -8.7,-5.77 -12.48,-17.04 -11.97,-27.45 0.52,-10.49 2.93,-19.26 6.98,-28.9 -16.35,-2.83 -23.06,-22.36 -25.3,-38.79 -11.27,-82.32 9.72,-170.05 59.36,-236.63 -1.49,-6.44 -3.73,-13.05 -6.32,-19.69 7.87,-23.42 11.1,-48.87 10.33,-73.52 -1.6,-51.12 -17.4,-100.55 -29.25,-150.3 z"
         id="path74" />
    </clipPath>
    <linearGradient
       x1="0"
       y1="0"
       x2="1"
       y2="0"
       gradientUnits="userSpaceOnUse"
       gradientTransform="matrix(-4729.16,2231.74,2231.74,4729.16,13486.2,5074.02)"
       spreadMethod="pad"
       id="linearGradient82">
      <stop
         style="stop-opacity:1;stop-color:#e16839"
         offset="0"
         id="stop78" />
      <stop
         style="stop-opacity:1;stop-color:#fabfbc"
         offset="1"
         id="stop80" />
    </linearGradient>
    <clipPath
       clipPathUnits="userSpaceOnUse"
       id="clipPath100">
      <path
         d="m 9952.48,3713.65 c 61.92,-26.71 116.12,-54.07 138.72,-75.18 57.2,-53.48 111.1,-111.54 177.3,-153.41 66.1,-41.88 135.8,-57.17 211,-35.22 72.6,94.53 171.6,164.63 259.1,245.63 181.9,168.4 314.9,388.56 381.4,627.26 -11.4,8.36 -23.3,16.19 -35.7,23.14 -105.7,59.18 -235,55.22 -354.4,31.83 -103.6,-207.3 -207.1,-422.77 -301.4,-633.68 -48.6,45.34 -115.3,67.27 -181.4,73.21 -45.8,4.17 -91.8,7.32 -137.7,6.07 -48.9,-19.34 -94.9,-46.06 -132.52,-82.57 -8.7,-8.44 -16.74,-17.6 -24.4,-27.08 z"
         id="path98" />
    </clipPath>
    <linearGradient
       x1="0"
       y1="0"
       x2="1"
       y2="0"
       gradientUnits="userSpaceOnUse"
       gradientTransform="matrix(-2613.67,1889.4,1889.4,2613.67,12365.6,2695.17)"
       spreadMethod="pad"
       id="linearGradient106">
      <stop
         style="stop-opacity:1;stop-color:#e16839"
         offset="0"
         id="stop102" />
      <stop
         style="stop-opacity:1;stop-color:#fabfbc"
         offset="1"
         id="stop104" />
    </linearGradient>
    <clipPath
       clipPathUnits="userSpaceOnUse"
       id="clipPath124">
      <path
         d="m 10597.7,3134.16 c -25.5,-36.87 -36.8,-81.9 -41.4,-126.52 -2,-19.95 -2.8,-40.11 -2.1,-60.19 286.2,-11.11 571.8,-51.47 853.2,-108.61 100.7,176.28 220.9,344.25 284.8,536.95 45.2,136.53 57,291.9 13.9,426.35 -100.5,25.51 -198.2,65.2 -294.5,104.72 -10.8,-9.3 -27.6,-24.26 -38.4,-33.55 0,0.08 0,0.08 0,0.17 -11,-14.02 -22.1,-27.95 -33.3,-41.8 2.9,-237.4 -26.9,-478.94 -93.6,-706.27 -87.5,62.96 -200.1,81.03 -307.8,77.93 -84.7,-2.5 -168.6,-16.94 -252.8,-27.87 -18.4,-2.36 -36.8,-4.47 -55.2,-6.37 -12.6,-9.95 -23.7,-21.83 -32.8,-34.94 z"
         id="path122" />
    </clipPath>
    <linearGradient
       x1="0"
       y1="0"
       x2="1"
       y2="0"
       gradientUnits="userSpaceOnUse"
       gradientTransform="matrix(-2613.67,1889.39,1889.39,2613.67,12264.2,2554.99)"
       spreadMethod="pad"
       id="linearGradient130">
      <stop
         style="stop-opacity:1;stop-color:#e16839"
         offset="0"
         id="stop126" />
      <stop
         style="stop-opacity:1;stop-color:#fabfbc"
         offset="1"
         id="stop128" />
    </linearGradient>
    <clipPath
       clipPathUnits="userSpaceOnUse"
       id="clipPath140">
      <path
         d="m 11356.7,6840.48 c 7,24.66 16,50.18 10.9,75.31 -14.9,73.71 -131.1,85.11 -153.2,156.99 129.6,-61.57 296.1,-84.82 437.8,-54.94 2.1,3.83 3.5,7.86 3.9,11.95 4.9,60.99 9.9,121.97 14.8,182.96 2.6,32.34 5.1,65.54 -4.4,96.5 -24.9,79.92 -123.2,124.04 -140,205.07 -28.5,12.04 -54.2,31.05 -73.8,55.13 -16.1,-9.72 -43.2,-12.13 -61.3,-6.96 -18.1,5.15 -35.2,13.58 -53.7,17.11 -29.3,5.59 -60.9,-2.15 -84.3,-20.73 -23.4,-18.58 -38.1,-47.65 -39.2,-77.5 -1.8,-48.08 -1.7,-102.19 -36.9,-135.04 8.3,-56.95 10.8,-119.13 8.7,-176.68 -37,24.69 -84.6,30.54 -128.6,23.66 -7.9,-18.58 -15.9,-37.42 -18.9,-57.37 -3.1,-20.05 -0.7,-41.64 10.8,-58.23 13,-18.84 35.9,-28.82 58.5,-31.23 22.7,-2.5 45.5,1.64 68,6.11 1.4,-47.83 -0.2,-95.82 -3.7,-143.56 1.3,-1.2 2.5,-2.41 3.7,-3.7 9.4,-47.83 13.1,-99.26 7.6,-147.86 0.1,-0.09 0,-0.17 0,-0.17 2.8,-14.28 5.3,-28.3 5,-42.84 h 87.5 c 24.8,-26.36 50.2,-58.3 73,-88.44 -15.9,69.94 -11.9,145.09 7.8,214.46 z"
         id="path138" />
    </clipPath>
    <linearGradient
       x1="0"
       y1="0"
       x2="1"
       y2="0"
       gradientUnits="userSpaceOnUse"
       gradientTransform="matrix(636.032,0,0,-636.032,11037.2,7103.7)"
       spreadMethod="pad"
       id="linearGradient146">
      <stop
         style="stop-opacity:1;stop-color:#e16839"
         offset="0"
         id="stop142" />
      <stop
         style="stop-opacity:1;stop-color:#fabfbc"
         offset="1"
         id="stop144" />
    </linearGradient>
    <clipPath
       clipPathUnits="userSpaceOnUse"
       id="clipPath160">
      <path
         d="m 12520.3,6731.58 c 0.7,0.34 1.5,0.77 2.3,1.12 -11.1,11.18 -20.5,24.25 -27.8,38.19 -16,30.45 -23.4,64.6 -30.4,98.31 -19.3,93.93 -35.4,192.25 -18.5,285.49 -33.1,8.34 -68.2,-0.86 -100.3,-12.65 -32.8,-12.04 -65.3,-27.01 -100.2,-29.15 -17.6,-1.13 -35.6,1.11 -52.8,-2.93 -19.6,-4.56 -50.7,-25.55 -60.8,-43.01 -58.7,24.86 -125,-4.99 -181.3,-34.66 -83.5,-43.87 -163.8,-88.17 -246.3,-133.75 -14.2,31.65 -60.6,45.84 -91.1,29.5 -1.1,-0.6 -2,-1.12 -3,-1.72 -9.5,-47.48 -50.7,-94.27 -99.1,-94.27 l -48.8,-22.97 c -32.3,-21.59 -55.8,-51.61 -70.7,-87.48 -14.9,-35.87 -22.6,-74.23 -30.1,-112.33 -25.6,34.66 -56,73.88 -85.5,105.19 h -87.5 c 0.3,14.54 -2.2,28.56 -5,42.84 0,0 0.1,0.08 0,0.17 -0.8,4.13 -1.5,8.35 -2.3,12.47 -12.2,1.9 -24.8,-2.41 -35.2,-9.2 -10.3,-6.79 -18.8,-16.09 -27.2,-25.2 -21.4,-23.23 -39.5,-50.84 -60.9,-74.06 3.5,-18.67 9.6,-38.54 12.9,-57.11 -97.8,7.39 -197.9,-18.58 -279.8,-72.6 -26.7,-17.72 -56.7,-40.6 -88.6,-37.25 -70.6,7.32 -150.9,-8.77 -212.5,-44.12 -0.1,-0.78 -0.1,-1.64 -0.2,-2.41 -3.3,-51.17 -6.5,-102.82 -10.3,-154.57 116.8,-7.13 231.2,-54.82 317.1,-134.5 37.2,119.31 101.3,234.1 180.9,330.41 -82.7,-204.48 -103.9,-430.37 -89.4,-650.47 2.3,-35.25 11.4,-77.76 45,-88.72 24.6,-8.06 50.6,5.57 73,18.72 106.1,62.47 212.3,124.94 318.5,187.41 -89.2,-85.82 -178.4,-171.64 -267.5,-257.45 -20.3,-19.54 -41.1,-39.81 -52.3,-65.69 -11.1,-25.88 -10.2,-59.1 9.8,-78.94 28.4,-28.09 75.9,-16.3 112.3,0.05 36.4,16.37 78.6,35.59 114,17.22 -114.2,-77.22 -211,-180 -281.3,-298.61 -21.2,-35.9 -39.9,-82.28 -17.2,-117.26 20.8,-31.98 68.3,-36.58 102.8,-20.42 34.6,16.15 59.2,47.45 82.4,77.66 -6.8,-40.01 -13.6,-80.01 -20.3,-120.01 191.2,60.41 374.6,145.3 544.4,251.95 38.9,-48.75 32.4,-127.49 -14,-169.18 128.5,-88.59 305,-8.92 458.8,-35.63 125,-21.74 228.9,-124.92 261.7,-246.41 67.7,154.56 46.1,335.52 22.7,504.46 -38.2,274.12 -139.3,547.65 -111.5,823.16 16.1,158.69 77.1,302.86 146.4,446.59 41.9,-3.87 87,1.72 127.6,12.47 -16,11.95 -22.7,31.4 -22.9,51.35 z"
         id="path158" />
    </clipPath>
    <linearGradient
       x1="0"
       y1="0"
       x2="1"
       y2="0"
       gradientUnits="userSpaceOnUse"
       gradientTransform="matrix(3158.84,1505.61,1505.61,-3158.84,9718.53,4859.62)"
       spreadMethod="pad"
       id="linearGradient166">
      <stop
         style="stop-opacity:1;stop-color:#ed124b"
         offset="0"
         id="stop162" />
      <stop
         style="stop-opacity:1;stop-color:#f5787b"
         offset="1"
         id="stop164" />
    </linearGradient>
    <clipPath
       clipPathUnits="userSpaceOnUse"
       id="clipPath178">
      <path
         d="m 11382.6,4287.75 c 43.2,85.17 62.4,182.31 54.9,277.47 53.2,-61.77 88.2,-139.1 99.4,-219.86 7.8,28.14 15.7,56.28 23.6,84.42 6.2,-86.22 -3.5,-173.56 -28.4,-256.33 95.4,64.66 190.7,129.32 286.1,193.98 -66.8,-12.91 -133.5,-25.81 -200.2,-38.71 62.7,33.46 129.8,58.63 199.1,74.69 -63.2,14.4 -126.3,28.82 -189.5,43.22 112.2,54.27 244.2,36.64 367.3,17.79 -109.6,80.21 -219.3,160.41 -329,240.63 75,-3.35 150,-6.7 225.1,-10.04 -90.9,27.66 -179.2,63.63 -263.5,107.34 68.2,-1.91 136.4,-3.81 204.6,-5.73 -45,20.56 -90,41.12 -135.1,61.68 -11.7,5.33 -25.5,14.68 -22.7,27.21 3,13.15 20.7,15.02 34.2,13.91 66,-5.38 132,-10.77 198,-16.15 -117.1,54.64 -240,96.89 -366,125.18 -205.8,17.55 -418.4,-27.7 -622.5,-73.12 1.3,7.91 2.3,15.66 3.2,23.22 -35.4,-43.34 -72.6,-86.53 -108,-129.79 -11.9,-14.62 -24.1,-29.5 -31.6,-46.79 -21.5,-49.72 -6.7,-113.02 13.8,-163.17 -36.3,-33.81 -57.2,-87.82 -50.2,-136.86 -25.3,-29.75 -36.9,-68.89 -28,-106.82 4.2,0.86 8.5,1.72 12.7,2.58 119.4,23.39 248.7,27.35 354.4,-31.83 12.1,-6.75 23.5,-14.33 34.7,-22.41 31.5,64.85 63,129.7 94.5,194.56 56.4,-76.75 112.8,-153.51 169.1,-230.27 z"
         id="path176" />
    </clipPath>
    <linearGradient
       x1="0"
       y1="0"
       x2="1"
       y2="0"
       gradientUnits="userSpaceOnUse"
       gradientTransform="matrix(-1700.45,1271.4,1271.4,1700.45,12192.3,3970.89)"
       spreadMethod="pad"
       id="linearGradient184">
      <stop
         style="stop-opacity:1;stop-color:#72cfc7"
         offset="0"
         id="stop180" />
      <stop
         style="stop-opacity:1;stop-color:#c7ece7"
         offset="1"
         id="stop182" />
    </linearGradient>
    <clipPath
       clipPathUnits="userSpaceOnUse"
       id="clipPath214">
      <path
         d="m 16249.2,3654.17 c -16.7,78.67 -71.6,145.14 -136.8,192.34 -65.1,47.21 -135.8,84.03 -210.5,113.98 -58,137.38 -116,274.85 -182.6,408.09 -34.2,68.2 -71,135.97 -121.4,193.16 -84,95.53 -199.7,155.74 -303.6,229.06 -170.3,120.24 -312.6,279.9 -412.6,462.77 -19.4,-41.11 -37.3,-82.63 -54.3,-124.42 61.7,-78.74 118.4,-161.49 169.2,-247.69 30.3,-51.38 59,-104.62 100.6,-147.37 29.1,-29.86 65.8,-54.31 105.6,-64.82 40.7,-10.72 77,-33.65 102.2,-67.23 104.3,-138.74 186.6,-298.66 234,-466.06 71.2,-86.4 138.6,-172.07 212.8,-287.55 3.4,-32.98 65.9,-106.52 93.3,-125.07 27.5,-18.56 58.5,-31.78 84.2,-52.85 15.3,-12.51 28.3,-27.75 43.7,-40.15 15.5,-12.4 34,-26.82 53.8,-25.82 9,-14.02 17.1,-29.05 26.1,-43.07 -12.1,-5.14 -24.2,-10.29 -36.3,-15.53 -7,-2.92 -13.9,-5.95 -19.5,-10.89 -5.6,-5.05 -9.5,-12.51 -8.3,-19.87 1.3,-8.58 9.1,-15.03 17.4,-17.36 8.4,-2.31 15.5,-1.61 24.1,-0.6 -3.2,-6.96 -4.2,-14.83 -2.9,-22.4 26.3,-2.41 54.3,7.27 71.7,27.14 -1.9,-7.36 5.6,-14.42 13.1,-15.12 7.6,-0.61 14.9,3.22 21.4,6.95 30.4,17.35 59.7,37.32 81.8,64.45 22,27.14 41.1,61.73 33.8,95.93 z"
         id="path212" />
    </clipPath>
    <linearGradient
       x1="0"
       y1="0"
       x2="1"
       y2="0"
       gradientUnits="userSpaceOnUse"
       gradientTransform="matrix(1423.39,0,0,-1423.39,14827.4,4364.02)"
       spreadMethod="pad"
       id="linearGradient220">
      <stop
         style="stop-opacity:1;stop-color:#ee8966"
         offset="0"
         id="stop216" />
      <stop
         style="stop-opacity:1;stop-color:#fabfbc"
         offset="1"
         id="stop218" />
    </linearGradient>
    <clipPath
       clipPathUnits="userSpaceOnUse"
       id="clipPath230">
      <path
         d="m 12924.5,2521.01 c 22.7,45.74 47.4,91.68 55.2,142.11 3.7,23.78 3.7,48.78 14.2,70.43 14.1,29.16 44.3,46.44 72.7,61.95 105.3,57.42 338.2,179.01 564.2,297.14 -42,51.93 -88.8,100.07 -133.2,150.06 -33.8,37.92 -67.9,78.34 -114.5,98.25 -37.7,16.05 -81.4,16.28 -119.7,2.07 -56.3,-44.13 -108,-95.75 -156.9,-147.79 -62.6,-66.77 -123.1,-135.45 -183.5,-204.15 -53.5,-60.72 -107.3,-122.14 -145.2,-193.55 -37.9,-71.42 -40.9,-175.41 -62,-259.48 -0.8,-1.8 -1.5,-3.52 -2.3,-5.3 53.2,-38.71 113.1,-67.75 176.1,-86.58 11.2,25.13 22.7,50.13 34.9,74.84 z"
         id="path228" />
    </clipPath>
    <linearGradient
       x1="0"
       y1="0"
       x2="1"
       y2="0"
       gradientUnits="userSpaceOnUse"
       gradientTransform="matrix(917.259,0,0,-917.259,12713.5,2899.76)"
       spreadMethod="pad"
       id="linearGradient236">
      <stop
         style="stop-opacity:1;stop-color:#ee8966"
         offset="0"
         id="stop232" />
      <stop
         style="stop-opacity:1;stop-color:#fabfbc"
         offset="1"
         id="stop234" />
    </linearGradient>
    <clipPath
       clipPathUnits="userSpaceOnUse"
       id="clipPath254">
      <path
         d="m 15385.7,2916.04 c -12.4,-11.91 -25.1,-23.41 -38.1,-34.5 71.6,-57.23 137.9,-121.13 197.2,-190.95 57.6,-67.76 109.4,-141.4 177.4,-198.74 67.9,-57.35 157.1,-97.58 244.7,-82.77 76.5,12.92 148.3,-0.65 216.4,-31.73 -0.6,10.48 -1.4,20.94 -2.5,31.34 -2.3,21.88 -5.6,43.96 -12.5,64.78 -2.6,7.79 -5.6,15.42 -9.4,22.77 -6.9,13.74 -16.5,26.49 -28,36.7 -30.6,1.82 -61.2,-0.3 -91.1,-7.34 -73.1,56.58 -142,121.24 -200.5,192.85 -92.9,113.87 -169.2,248.12 -284.1,335.88 -23.1,-13.25 -46.9,-24.33 -71.4,-33.62 -21,-24 -42.3,-47.87 -64.4,-70.88 -11,-11.51 -22.2,-22.8 -33.7,-33.79 z"
         id="path252" />
    </clipPath>
    <linearGradient
       x1="0"
       y1="0"
       x2="1"
       y2="0"
       gradientUnits="userSpaceOnUse"
       gradientTransform="matrix(835.607,0,0,-835.607,15347.6,2715.84)"
       spreadMethod="pad"
       id="linearGradient260">
      <stop
         style="stop-opacity:1;stop-color:#ee8966"
         offset="0"
         id="stop256" />
      <stop
         style="stop-opacity:1;stop-color:#fabfbc"
         offset="1"
         id="stop258" />
    </linearGradient>
    <clipPath
       clipPathUnits="userSpaceOnUse"
       id="clipPath284">
      <path
         d="m 11698,5591.46 c 173.3,-17.69 349.7,-11.31 519.9,-48.72 106.4,-23.4 209.4,-63.78 317.8,-75.88 197.4,-22.06 397.5,51.17 593.8,46.04 16.9,59.32 46.4,117.7 79.9,161.07 -121.4,31.37 -253.1,-7.26 -380,-21.48 -285.3,-31.87 -567.2,64.05 -850,113.17 -246.7,42.87 -498.1,50.13 -748.4,57.39 -56.6,42.26 -134.7,60.82 -205.1,54.26 -15.4,11.81 -34.3,22.09 -53.5,25.32 -19.2,3.13 -42,-6.25 -46.9,-25.01 -11.5,-1.72 -22.9,-5.25 -32.8,-11.4 -9.9,-6.15 -17.3,-17.86 -14.9,-29.25 -26.4,-3.93 -51.9,-29.15 -57.1,-55.28 -27.4,-13.21 -50.2,-36.91 -68.2,-61.42 -22.2,-6.96 -46.1,-16.54 -68.3,-23.6 -6.2,-1.92 -12.6,-3.94 -17.4,-8.27 -4.9,-4.44 -7.7,-11.7 -5,-17.56 -21.8,-11.89 -34.8,-43.57 -27.6,-67.37 46.9,6.35 97.3,11.9 144.2,18.26 40.9,5.44 86.7,9.78 119.5,-15.24 -39.9,-0.6 -77.5,-19.06 -109.1,-43.47 -31.6,-24.41 -55,-59.21 -65.7,-97.74 8.5,-0.4 17,-0.9 25.5,-1.31 50.4,-2.62 96.6,34.9 143.8,52.75 14,5.31 28.1,10.6 42.4,15.18 88.5,66.63 205.5,97.42 318.1,101.82 149.1,5.81 296.6,-27.11 445.1,-42.26 z"
         id="path282" />
    </clipPath>
    <linearGradient
       x1="0"
       y1="0"
       x2="1"
       y2="0"
       gradientUnits="userSpaceOnUse"
       gradientTransform="matrix(2577.14,0,0,-2577.14,10632.2,5682.97)"
       spreadMethod="pad"
       id="linearGradient290">
      <stop
         style="stop-opacity:1;stop-color:#ee8966"
         offset="0"
         id="stop286" />
      <stop
         style="stop-opacity:1;stop-color:#fabfbc"
         offset="1"
         id="stop288" />
    </linearGradient>
    <clipPath
       clipPathUnits="userSpaceOnUse"
       id="clipPath344">
      <path
         d="m 15345.5,3349.85 c -19.8,25.42 -39.6,50.94 -59.3,76.36 -26.6,34.19 -54,69.2 -91.6,90.58 -27.3,93.49 -76.3,180.43 -141.7,252.43 -25.1,-19.38 -50.1,-38.74 -75.2,-58.12 -67.7,-52.36 -133,-112.67 -171.4,-189.21 74.8,4.85 148.5,25.31 215,59.7 -54.5,-52.64 -108.9,-105.28 -163.4,-157.92 115.1,-35.3 230.2,-70.6 345.3,-105.91 -34.3,-2.49 -69.4,-5.21 -100.4,-19.75 -31.1,-14.55 -57.8,-43.74 -59.1,-78.03 -0.8,-20.67 10.7,-41.39 27.3,-53.03 12.4,-2.84 24.9,-5.69 37.3,-8.52 -13.3,-2.91 -26.4,0.85 -37.3,8.52 -385.1,87.88 -772.6,179.35 -1129.3,348.65 -71.8,34.11 -142.1,71.44 -210.8,111.57 -3,-20.13 -17.6,-38.55 -35.3,-49.76 -22.1,-14.02 -48.3,-19.57 -73.3,-27.54 -69.6,-21.99 -136.6,-53.66 -184.4,-107.72 -3.7,-4.13 -7.3,-8.37 -10.7,-12.81 65.1,21.38 136,18.45 201,-2.83 l 50.5,-30.25 c 450.5,0 843.2,-324.69 1288.7,-392.16 197.9,-29.96 415.3,-48.92 587.8,50.23 4.2,2.42 8.4,4.94 12.6,7.46 -73.7,96.42 -148,192.24 -222.3,288.06 z"
         id="path342" />
    </clipPath>
    <linearGradient
       x1="0"
       y1="0"
       x2="1"
       y2="0"
       gradientUnits="userSpaceOnUse"
       gradientTransform="matrix(2140.54,0,0,-2140.54,13427.2,3374.64)"
       spreadMethod="pad"
       id="linearGradient350">
      <stop
         style="stop-opacity:1;stop-color:#72cfc7"
         offset="0"
         id="stop346" />
      <stop
         style="stop-opacity:1;stop-color:#c7ece7"
         offset="1"
         id="stop348" />
    </linearGradient>
    <clipPath
       clipPathUnits="userSpaceOnUse"
       id="clipPath362">
      <path
         d="m 15066.8,3792.96 c -92.9,207.07 -264.9,389.23 -305.6,612.55 -18.7,101.87 -63.5,204.74 -133.5,281.1 35.9,46.7 56.2,108.03 44.4,165.63 18.4,-1.42 34.6,8.86 53.1,7.46 0.1,0.19 0.1,0.3 0.2,0.51 49.3,133.03 95.8,265.06 156.3,393.36 2,4.55 4.1,8.98 6.2,13.41 -20.4,67.29 -113.7,69.9 -173.4,107.02 -30.1,18.66 -52.3,47.41 -78.1,71.62 -55.7,52.24 -127.8,82.81 -198.6,111.25 -133,53.15 -268.8,102.68 -410.8,121.14 -120.6,15.53 -242.7,8.37 -364.1,1.21 -145.5,-8.68 -338.5,-42.56 -448.2,1.61 -1.8,-2.22 -3.6,-4.54 -5.3,-6.86 -35.1,-45.53 -66,-107.58 -82.4,-169.92 73.9,-114.91 250.5,-146.33 359.5,-63.9 -16.6,-34.21 -33.2,-68.4 -49.8,-102.61 54.3,-9.05 111.8,3.1 157.8,33.35 -36.5,-85.6 -73.7,-178.02 -54.5,-269.04 19.2,-91.03 122.3,-169.23 205.3,-127.11 16.6,8.45 31.4,21.07 49.5,25.76 54.5,14.13 98.1,-49.27 105.6,-105.04 7.5,-55.77 -0.4,-117.69 32.3,-163.47 55.7,-77.9 178.5,-48.78 260.2,1.2 81.7,49.99 172.7,115.96 263.6,86.02 -81.6,-45.66 -82.5,-184.66 -1.5,-231.41 22.9,-13.25 50.9,-20.51 66.7,-41.78 27.4,-36.84 2.2,-87.56 -13.6,-130.63 -47.9,-130.8 12.3,-292.24 134.2,-359.64 -158,-53.63 -322.1,-88.96 -488.2,-105.06 149.3,5.81 298.5,11.63 447.7,17.44 18.8,0.74 39,1.11 54.8,-9.19 34.4,-22.45 21.1,-80.95 -14,-102.29 -35.1,-21.34 -79.5,-16.89 -120.2,-11.73 99,-11.2 195.4,-44.85 279.8,-97.71 -154.8,-40.7 -309.7,-81.4 -464.5,-122.09 202.2,-21.4 404.3,-42.81 606.5,-64.2 6.5,-0.69 13.4,-0.89 20.5,-0.69 23,12.79 44.5,27.83 63.1,46.53 46.1,46.39 65.8,126.58 39,186.2 z"
         id="path360" />
    </clipPath>
    <linearGradient
       x1="0"
       y1="0"
       x2="1"
       y2="0"
       gradientUnits="userSpaceOnUse"
       gradientTransform="matrix(1951.89,0,0,-1951.89,13127,4623.71)"
       spreadMethod="pad"
       id="linearGradient368">
      <stop
         style="stop-opacity:1;stop-color:#72cfc7"
         offset="0"
         id="stop364" />
      <stop
         style="stop-opacity:1;stop-color:#c7ece7"
         offset="1"
         id="stop366" />
    </linearGradient>
    <clipPath
       clipPathUnits="userSpaceOnUse"
       id="clipPath384">
      <path
         d="m 14259.6,5956.57 c -5.9,8.07 -15.8,12.15 -25.6,14.46 -46.6,11.08 -99.1,-10.83 -124,-51.73 24.7,86.95 -61.6,170.88 -49.9,260.49 3.2,24.39 13.5,47.37 16.3,71.86 5,41.61 -13.5,85.17 -47,110.45 -33.3,25.29 -99.3,34.6 -133.9,11.01 -1.1,-0.81 -2.4,-1.6 -3.5,-2.49 -55.9,-38.95 -101.4,-92.71 -130.7,-154.19 -24.2,-12.25 -31,-46.76 -34.6,-73.64 -3.6,-26.97 -1.8,-54.74 -9.3,-80.83 -5.5,-19.07 -30.4,-27.32 -45.3,-40.36 -14.9,-13.05 -28.5,-28.75 -33.7,-47.91 -5.1,-19.16 0.2,-42.14 16.7,-53.06 -6.7,-71.68 -13.5,-143.37 -20.2,-215.05 -1.9,-19.65 -3.1,-41.26 3.7,-59.13 111.8,-31.2 233.4,-26 341.9,15.09 30.8,11.63 61.1,26.5 84.1,49.97 23,23.47 37.7,56.88 32.3,89.28 16.4,-58.89 1.5,-125.54 -38.4,-171.83 -28.1,-32.57 -67.9,-56.17 -86,-95.17 -16.6,-35.69 -11.6,-77.08 -9.8,-116.4 1.1,-25.22 0.1,-52.16 -8.1,-75.59 4.8,1.26 9.6,2.52 14.4,3.93 62.5,18.54 115.2,62.28 155.4,113.56 40.3,51.28 69.5,110.19 98.5,168.66 0,0.09 -0.1,0.09 -0.1,0.17 -26.4,39.13 -39.4,86.6 -47.6,132.99 29.7,8.7 50.2,38.15 63.7,65.93 13.5,27.85 19.1,58.73 24.4,89.16 2.4,13.66 4.4,29.1 -3.7,40.37 z"
         id="path382" />
    </clipPath>
    <linearGradient
       x1="0"
       y1="0"
       x2="1"
       y2="0"
       gradientUnits="userSpaceOnUse"
       gradientTransform="matrix(632.008,0,0,-632.008,13633.4,5864.25)"
       spreadMethod="pad"
       id="linearGradient390">
      <stop
         style="stop-opacity:1;stop-color:#ee8966"
         offset="0"
         id="stop386" />
      <stop
         style="stop-opacity:1;stop-color:#fabfbc"
         offset="1"
         id="stop388" />
    </linearGradient>
  </defs>
  <sodipodi:namedview
     id="namedview4"
     pagecolor="#ffffff"
     bordercolor="#666666"
     borderopacity="1.0"
     inkscape:showpageshadow="2"
     inkscape:pageopacity="0.0"
     inkscape:pagecheckerboard="0"
     inkscape:deskcolor="#d1d1d1"
     showgrid="false"
     inkscape:zoom="0.40845701"
     inkscape:cx="366.01159"
     inkscape:cy="506.78528"
     inkscape:window-width="1920"
     inkscape:window-height="1017"
     inkscape:window-x="1592"
     inkscape:window-y="-8"
     inkscape:window-maximized="1"
     inkscape:current-layer="g12" />
  <g
     id="g10"
     inkscape:groupmode="layer"
     inkscape:label="Page 1"
     transform="matrix(1.3333333,0,0,-1.3333333,-1181.7951,1104.3961)">
    <g
       id="g12"
       transform="scale(0.1)">
      <g
         id="g953">
        <path
           d="m 9362.02,5414.91 c 150.97,256.2 317.75,503.42 505.34,734.34 451.64,555.95 1036.64,1021.24 1719.44,1237.69 547.3,173.51 1131.5,180.18 1702.3,93.27 -101.5,55.36 -201.7,113.2 -300.3,173.75 -386.5,237.5 -763.9,520.14 -1209.7,604.01 -662.3,124.6 -1342.7,-231.1 -1780.95,-742.99 -678.9,-792.92 -1058.88,-1835.91 -1049.87,-2869.78 -0.02,-2.74 0.03,-5.49 0.03,-8.23 21.41,36.72 40.84,69.82 52.67,94.51 111.31,232.43 230.18,461.37 361.04,683.43"
           style="fill:#fae861;fill-opacity:1;fill-rule:nonzero;stroke:none"
           id="path18" />
        <path
           d="m 13262.9,2305.35 c -1077.4,129.21 -2121.2,528.5 -3009.8,1151.22 -393.82,276.01 -766.1,601.76 -1219.3,778.67 -21.18,8.27 -42.75,14.6 -63.49,20.71 3.82,-36.21 8.1,-72.37 12.92,-108.46 74.13,-555.73 279.69,-1110.27 674.03,-1508.82 570.64,-576.69 1439.04,-741.11 2250.24,-743.8 802.5,-2.65 1603,131.04 2364.1,384.39 -334.9,-27.67 -675,-13.94 -1008.7,26.09"
           style="fill:#fae861;fill-opacity:1;fill-rule:nonzero;stroke:none"
           id="path20" />
        <g
           id="g22"
           transform="scale(1.10993)">
          <path
             d="m 16217.2,5071.24 c -73.3,382.86 -421.2,662.06 -790.5,786.82 -369.3,124.75 -766.5,128.23 -1154.3,167.85 -163.4,16.69 -326.1,40.21 -487.6,70.16 254.3,-160.38 486.3,-352.23 683.2,-580.96 507.2,-589.39 738.1,-1454.27 437.4,-2171.39 -50.7,-120.84 -115.1,-234.48 -190.5,-340.36 364.9,263.52 703.5,563.29 1007.4,895.93 297,325.11 577.7,739.45 494.9,1171.95"
             style="fill:#fae861;fill-opacity:1;fill-rule:nonzero;stroke:none"
             id="path24" />
        </g>
        <g
           id="g26"
           transform="scale(1.03544)">
          <path
             d="m 15508.8,5911.88 c -211,245.17 -459.8,450.83 -732.3,622.75 -678.3,125.81 -1336.5,359.36 -1942.3,689.54 -551.2,83.94 -1115.4,77.5 -1644,-90.07 C 10530.8,6925.06 9965.8,6475.69 9529.61,5938.77 9348.45,5715.76 9187.38,5477 9041.57,5229.57 8915.19,5015.11 8800.39,4794 8692.89,4569.53 c -11.43,-23.85 -30.19,-55.81 -50.87,-91.28 0.01,-11.9 0.16,-23.85 0.57,-35.89 2.2,-110.97 9.06,-221.77 20.68,-332.09 20.03,-5.9 40.86,-12.01 61.32,-20 437.68,-170.85 797.22,-485.45 1177.56,-752.01 858.15,-601.41 1866.25,-987.03 2906.75,-1111.82 322.3,-38.66 650.8,-51.92 974.2,-25.19 709.8,236.28 1384.1,580.43 1990.4,1018.18 80.8,113.5 149.8,235.31 204.2,364.85 322.3,768.7 74.9,1695.8 -468.9,2327.6"
             style="fill:#fde294;fill-opacity:1;fill-rule:nonzero;stroke:none"
             id="path28" />
        </g>
      </g>
      <path
         d="m 10045.017,5509.2225 c 4.6,1.91 9.1,4.01 13.72,5.84 -5.19,-0.65 -9.78,-2.78 -13.72,-5.84"
         style="fill:#c2202b;fill-opacity:1;fill-rule:nonzero;stroke:none"
         id="path188" />
      <path
         d="m 15478.227,6340.1925 c -39.8,10.51 -76.5,34.96 -105.6,64.82 -41.6,42.75 -70.3,95.99 -100.6,147.37 -50.8,86.2 -107.5,168.95 -169.2,247.69 -36.2,-88.62 -68.5,-178.53 -102,-268.94 102.4,-97.65 214.8,-184.69 334.8,-259.44 58.5,-36.4 137.1,-66.26 190.2,-110.14 59.9,-49.21 90.9,-113.77 139.4,-173.99 53.5,-66.38 102.2,-123.67 149.2,-180.66 -47.4,167.4 -129.7,327.32 -234,466.06 -25.2,33.58 -61.5,56.51 -102.2,67.23"
         style="fill:#e26739;fill-opacity:1;fill-rule:nonzero;stroke:none"
         id="path206" />
      <g
         id="g208"
         transform="translate(275.42679,1670.9225)">
        <g
           id="g210"
           clip-path="url(#clipPath214)">
          <path
             d="m 16249.2,3654.17 c -16.7,78.67 -71.6,145.14 -136.8,192.34 -65.1,47.21 -135.8,84.03 -210.5,113.98 -58,137.38 -116,274.85 -182.6,408.09 -34.2,68.2 -71,135.97 -121.4,193.16 -84,95.53 -199.7,155.74 -303.6,229.06 -170.3,120.24 -312.6,279.9 -412.6,462.77 -19.4,-41.11 -37.3,-82.63 -54.3,-124.42 61.7,-78.74 118.4,-161.49 169.2,-247.69 30.3,-51.38 59,-104.62 100.6,-147.37 29.1,-29.86 65.8,-54.31 105.6,-64.82 40.7,-10.72 77,-33.65 102.2,-67.23 104.3,-138.74 186.6,-298.66 234,-466.06 71.2,-86.4 138.6,-172.07 212.8,-287.55 3.4,-32.98 65.9,-106.52 93.3,-125.07 27.5,-18.56 58.5,-31.78 84.2,-52.85 15.3,-12.51 28.3,-27.75 43.7,-40.15 15.5,-12.4 34,-26.82 53.8,-25.82 9,-14.02 17.1,-29.05 26.1,-43.07 -12.1,-5.14 -24.2,-10.29 -36.3,-15.53 -7,-2.92 -13.9,-5.95 -19.5,-10.89 -5.6,-5.05 -9.5,-12.51 -8.3,-19.87 1.3,-8.58 9.1,-15.03 17.4,-17.36 8.4,-2.31 15.5,-1.61 24.1,-0.6 -3.2,-6.96 -4.2,-14.83 -2.9,-22.4 26.3,-2.41 54.3,7.27 71.7,27.14 -1.9,-7.36 5.6,-14.42 13.1,-15.12 7.6,-0.61 14.9,3.22 21.4,6.95 30.4,17.35 59.7,37.32 81.8,64.45 22,27.14 41.1,61.73 33.8,95.93"
             style="fill:url(#linearGradient220);fill-opacity:1;fill-rule:nonzero;stroke:none"
             id="path222" />
        </g>
      </g>
      <g
         id="g224"
         transform="translate(275.42679,1670.9225)">
        <g
           id="g226"
           clip-path="url(#clipPath230)">
          <path
             d="m 12924.5,2521.01 c 22.7,45.74 47.4,91.68 55.2,142.11 3.7,23.78 3.7,48.78 14.2,70.43 14.1,29.16 44.3,46.44 72.7,61.95 105.3,57.42 338.2,179.01 564.2,297.14 -42,51.93 -88.8,100.07 -133.2,150.06 -33.8,37.92 -67.9,78.34 -114.5,98.25 -37.7,16.05 -81.4,16.28 -119.7,2.07 -56.3,-44.13 -108,-95.75 -156.9,-147.79 -62.6,-66.77 -123.1,-135.45 -183.5,-204.15 -53.5,-60.72 -107.3,-122.14 -145.2,-193.55 -37.9,-71.42 -40.9,-175.41 -62,-259.48 -0.8,-1.8 -1.5,-3.52 -2.3,-5.3 53.2,-38.71 113.1,-67.75 176.1,-86.58 11.2,25.13 22.7,50.13 34.9,74.84"
             style="fill:url(#linearGradient236);fill-opacity:1;fill-rule:nonzero;stroke:none"
             id="path238" />
        </g>
      </g>
      <path
         d="m 14032.327,4487.9325 c -5.7,84.59 -44.2,164.05 -93.5,233.04 -10.4,14.57 -21.4,28.68 -32.6,42.59 -226,-118.13 -458.9,-239.72 -564.2,-297.14 -28.4,-15.51 -58.6,-32.79 -72.7,-61.95 -10.5,-21.65 -10.5,-46.65 -14.2,-70.43 -7.8,-50.43 -32.5,-96.37 -55.2,-142.11 -12.2,-24.71 -23.7,-49.71 -34.9,-74.84 69.1,-20.66 142,-28.98 213.9,-23.66 3.5,12.28 8,24.23 14.3,35.51 33.2,60.31 103,88.85 167.6,112.97 152.6,56.99 307,112.87 461,170.62 9.6,22.94 12.2,50.33 10.5,75.4"
         style="fill:#e26739;fill-opacity:1;fill-rule:nonzero;stroke:none"
         id="path240" />
      <path
         d="m 13165.027,4117.0625 c -118.1,-264.38 -182.7,-550.31 -246.1,-833.44 -36.3,-161.86 -138.8,-296 -193.3,-449.98 19,-9.73 39,-17.4 59.7,-22.7 9.3,-2.42 20,-4.23 28.2,1.02 6.1,3.92 9.3,10.88 12.2,17.45 12.6,28.13 25.3,56.28 38,84.52 3.2,7.06 6.4,14.12 9.6,21.28 66.6,147.87 142.1,310.26 242.2,435.63 71.4,89.67 153.2,174.19 197.7,279.8 46.6,110.64 48.1,234.21 54,354.13 1.5,29.75 3.6,60.22 11.7,88.66 v 0 -0.01 c -71.9,-5.34 -144.8,2.99 -213.9,23.64"
         style="fill:#ed134b;fill-opacity:1;fill-rule:nonzero;stroke:none"
         id="path242" />
      <path
         d="m 13165.027,4117.0625 c -63,18.83 -123,47.87 -176.1,86.58 0,0.01 0,0.02 0,0.03 v 0 c -101.5,-236.31 -182.8,-352.92 -233.8,-564.22 -50.5,-209.1 -85,-423.24 -162.7,-623.75 -1.4,-3.64 -2.8,-7.26 -4.2,-10.89 34,-25.93 66,-51.75 79.6,-92.3 4.7,-13.91 6.5,-29.04 13.7,-41.96 8.9,-16.13 25.1,-27.03 41.4,-35.61 0.9,-0.46 1.8,-0.85 2.7,-1.3 54.5,153.98 157,288.12 193.3,449.98 63.4,283.13 128,569.06 246.1,833.44"
         style="fill:#f14094;fill-opacity:1;fill-rule:nonzero;stroke:none"
         id="path244" />
      <path
         d="m 13658.527,5011.8725 c 46.6,-19.91 80.7,-60.33 114.5,-98.25 44.4,-49.99 91.2,-98.13 133.2,-150.06 169.9,88.81 335.5,175.5 440.5,231.63 -127.7,42.69 -257.5,71.99 -392.6,71.99 l -50.5,30.25 c -65,21.28 -135.9,24.21 -201,2.83 3.4,4.44 7,8.68 10.7,12.81 -63.5,-22.14 -121.1,-57.27 -174.5,-99.13 38.3,14.21 82,13.98 119.7,-2.07"
         style="fill:#f14094;fill-opacity:1;fill-rule:nonzero;stroke:none"
         id="path246" />
      <g
         id="g248"
         transform="translate(275.42679,1670.9225)">
        <g
           id="g250"
           clip-path="url(#clipPath254)">
          <path
             d="m 15385.7,2916.04 c -12.4,-11.91 -25.1,-23.41 -38.1,-34.5 71.6,-57.23 137.9,-121.13 197.2,-190.95 57.6,-67.76 109.4,-141.4 177.4,-198.74 67.9,-57.35 157.1,-97.58 244.7,-82.77 76.5,12.92 148.3,-0.65 216.4,-31.73 -0.6,10.48 -1.4,20.94 -2.5,31.34 -2.3,21.88 -5.6,43.96 -12.5,64.78 -2.6,7.79 -5.6,15.42 -9.4,22.77 -6.9,13.74 -16.5,26.49 -28,36.7 -30.6,1.82 -61.2,-0.3 -91.1,-7.34 -73.1,56.58 -142,121.24 -200.5,192.85 -92.9,113.87 -169.2,248.12 -284.1,335.88 -23.1,-13.25 -46.9,-24.33 -71.4,-33.62 -21,-24 -42.3,-47.87 -64.4,-70.88 -11,-11.51 -22.2,-22.8 -33.7,-33.79"
             style="fill:url(#linearGradient260);fill-opacity:1;fill-rule:nonzero;stroke:none"
             id="path262" />
        </g>
      </g>
      <path
         d="m 16257.627,3825.9225 c 42.4,-3.54 84.3,0 120,21.71 3.7,2.25 7.2,4.77 10.6,7.34 17.8,13.28 32.3,30.63 43.3,50.17 8.1,14.43 14.3,30 18.6,45.92 3,10.96 5.1,22.11 6.6,33.34 2.7,21.07 3,42.5 2,63.87 -68.1,31.08 -139.9,44.65 -216.4,31.73 -87.6,-14.81 -176.8,25.42 -244.7,82.77 -68,57.34 -119.8,130.98 -177.4,198.74 -59.3,69.82 -125.6,133.72 -197.2,190.95 -22.9,-19.63 -46.9,-37.84 -72.1,-53.93 -26.4,-16.78 -54.1,-31.29 -83.5,-42.82 -10.5,-4.13 -21.2,-7.84 -31.9,-11.38 -32.2,-10.61 -65,-19.58 -96,-32.82 90.2,-56.29 170.2,-109.27 266.7,-201.48 150,-143.12 225.7,-237.24 516.5,-334.76 39.4,-13.19 78.3,-29.18 116.6,-47.43 0.1,-0.01 0.1,-0.01 0.1,-0.01 0,0.01 0,0.01 0,0.02 6,-0.77 12.1,-1.42 18.2,-1.93"
         style="fill:#e26739;fill-opacity:1;fill-rule:nonzero;stroke:none"
         id="path264" />
      <g
         id="g266"
         transform="matrix(1.0437,0,0,1.0437,275.42679,1670.9225)">
        <path
           d="m 15505.7,2277.8 c 1.1,-20.46 0.7,-41 -1.9,-61.18 -1.4,-10.78 -3.5,-21.48 -6.2,-32 -4.2,-15.21 -10.2,-30.12 -17.9,-43.95 -10.6,-18.73 -24.5,-35.34 -41.5,-48.06 -3.3,-2.47 -6.7,-4.89 -10.2,-7.04 -34.2,-20.79 -74.3,-24.21 -115,-20.8 -5.8,0.48 -11.6,1.1 -17.4,1.83 87.9,-41.84 172.2,-96.15 250.5,-157.5 74,-57.89 173.3,-72.29 260,-108.43 86.7,-36.04 172.2,-81.56 234.2,-152.11 8.1,-9.27 15.9,-18.94 23.3,-28.8 25.8,-33.83 49.2,-69.49 80.1,-98.49 39.9,-37.49 98.8,-62.52 149.6,-42.13 2.3,0.95 4.5,2.11 6.7,3.19 -90.6,105.63 -184.4,208.48 -281.5,308.25 -154.8,159.25 -317.8,398.2 -512.8,487.22"
           style="fill:#ed134b;fill-opacity:1;fill-rule:nonzero;stroke:none"
           id="path268" />
      </g>
      <g
         id="g270"
         transform="matrix(1.04915,0,0,1.04915,275.42679,1670.9225)">
        <path
           d="m 16290.2,1639.23 c -10.2,64.71 -59.3,121.71 -121.9,141.32 -15.6,19.81 -31.5,39.51 -47.6,58.93 -124.6,151.04 -263.7,292.08 -415.6,414.85 -59.6,48.25 -121.9,94.6 -192.2,125.36 -43.5,19.04 -90.5,31.82 -137.7,34.61 11,-9.71 20.2,-21.92 26.7,-34.99 3.7,-7.01 6.5,-14.28 9,-21.71 6.6,-19.83 9.8,-40.89 11.9,-61.76 1.1,-9.92 1.9,-19.88 2.4,-29.87 194,-88.55 356.1,-326.26 510.1,-484.68 96.6,-99.26 189.9,-201.58 280.1,-306.66 56.2,27.45 84.6,102.26 74.8,164.6"
           style="fill:#f14094;fill-opacity:1;fill-rule:nonzero;stroke:none"
           id="path272" />
      </g>
      <path
         d="m 15661.127,4586.9625 c 11.5,10.99 22.7,22.28 33.7,33.79 22.1,23.01 43.4,46.88 64.4,70.88 -86.3,-32.69 -180.6,-42.33 -276.2,-40.25 48.6,-30.15 95.4,-63.19 140,-98.92 13,11.09 25.7,22.59 38.1,34.5"
         style="fill:#f14094;fill-opacity:1;fill-rule:nonzero;stroke:none"
         id="path274" />
      <path
         d="m 15467.427,4455.7125 c 29.4,11.53 57.1,26.04 83.5,42.82 25.2,16.09 49.2,34.3 72.1,53.93 -44.6,35.73 -91.4,68.77 -140,98.92 -80.5,1.76 -161.8,11.78 -240.2,23.64 -311.9,47.24 -598,220.48 -896.1,320.17 -105,-56.13 -270.6,-142.82 -440.5,-231.63 11.2,-13.91 22.2,-28.02 32.6,-42.59 49.3,-68.99 87.8,-148.45 93.5,-233.04 1.7,-25.07 -0.9,-52.46 -10.5,-75.4 280.9,105.39 560.2,217.11 824.1,353.87 229.1,-195.73 370.9,-278.37 493.6,-354.89 31,13.24 63.8,22.21 96,32.82 10.7,3.54 21.4,7.25 31.9,11.38"
         style="fill:#ed134b;fill-opacity:1;fill-rule:nonzero;stroke:none"
         id="path276" />
      <g
         id="g278"
         transform="translate(275.42679,1670.9225)">
        <g
           id="g280"
           clip-path="url(#clipPath284)">
          <path
             d="m 11698,5591.46 c 173.3,-17.69 349.7,-11.31 519.9,-48.72 106.4,-23.4 209.4,-63.78 317.8,-75.88 197.4,-22.06 397.5,51.17 593.8,46.04 16.9,59.32 46.4,117.7 79.9,161.07 -121.4,31.37 -253.1,-7.26 -380,-21.48 -285.3,-31.87 -567.2,64.05 -850,113.17 -246.7,42.87 -498.1,50.13 -748.4,57.39 -56.6,42.26 -134.7,60.82 -205.1,54.26 -15.4,11.81 -34.3,22.09 -53.5,25.32 -19.2,3.13 -42,-6.25 -46.9,-25.01 -11.5,-1.72 -22.9,-5.25 -32.8,-11.4 -9.9,-6.15 -17.3,-17.86 -14.9,-29.25 -26.4,-3.93 -51.9,-29.15 -57.1,-55.28 -27.4,-13.21 -50.2,-36.91 -68.2,-61.42 -22.2,-6.96 -46.1,-16.54 -68.3,-23.6 -6.2,-1.92 -12.6,-3.94 -17.4,-8.27 -4.9,-4.44 -7.7,-11.7 -5,-17.56 -21.8,-11.89 -34.8,-43.57 -27.6,-67.37 46.9,6.35 97.3,11.9 144.2,18.26 40.9,5.44 86.7,9.78 119.5,-15.24 -39.9,-0.6 -77.5,-19.06 -109.1,-43.47 -31.6,-24.41 -55,-59.21 -65.7,-97.74 8.5,-0.4 17,-0.9 25.5,-1.31 50.4,-2.62 96.6,34.9 143.8,52.75 14,5.31 28.1,10.6 42.4,15.18 88.5,66.63 205.5,97.42 318.1,101.82 149.1,5.81 296.6,-27.11 445.1,-42.26"
             style="fill:url(#linearGradient290);fill-opacity:1;fill-rule:nonzero;stroke:none"
             id="path292" />
        </g>
      </g>
      <path
         d="m 13404.927,7183.8225 c -196.3,5.13 -396.4,-68.1 -593.8,-46.04 -108.4,12.1 -211.4,52.48 -317.8,75.88 -170.2,37.41 -346.6,31.03 -519.9,48.72 -148.5,15.15 -296,48.07 -445.1,42.26 -112.6,-4.4 -229.6,-35.19 -318.1,-101.82 18.3,5.88 37,10.56 56.1,12.26 39.5,3.53 80.3,-5.24 118.2,6.46 27.3,8.47 50.2,26.83 74.8,41.25 24.7,14.42 53.4,21.89 81.5,16.94 250.9,-43.97 493.7,-152.2 749.6,-173.68 94.7,-7.97 186.2,-50.03 281.2,-52.85 128.7,-3.74 256.9,-20.28 382.6,-48.22 53.4,-11.9 106.4,-25.82 160.7,-32.18 97.9,-11.49 203.8,0.31 291.8,-38.93 -5.1,41.45 -10.7,86.14 -15.2,125.07 -4.5,38.6 1.1,81.98 13.4,124.88"
         style="fill:#e26739;fill-opacity:1;fill-rule:nonzero;stroke:none"
         id="path294" />
      <g
         id="g296"
         transform="matrix(1.02866,0,0,1.02866,275.42679,1670.9225)">
        <path
           d="m 16298.5,1643.44 c -1,13.34 -0.6,26.78 1.5,40.41"
           style="fill:none;stroke:#6b553d;stroke-width:9.72142;stroke-linecap:butt;stroke-linejoin:miter;stroke-miterlimit:10;stroke-dasharray:none;stroke-opacity:1"
           id="path298" />
      </g>
      <g
         id="g300"
         transform="matrix(1.03761,0,0,1.03761,275.42679,1670.9225)">
        <path
           d="m 16300,1859.94 c -3.2,-1.27 -6.4,-2.82 -9.4,-4.47"
           style="fill:none;stroke:#6b553d;stroke-width:9.63756;stroke-linecap:butt;stroke-linejoin:miter;stroke-miterlimit:10;stroke-dasharray:none;stroke-opacity:1"
           id="path302" />
      </g>
      <path
         d="m 12595.727,3001.4825 c -0.7,4.73 -1.8,9.58 -3.3,14.22"
         style="fill:none;stroke:#6b553d;stroke-width:10;stroke-linecap:butt;stroke-linejoin:miter;stroke-miterlimit:10;stroke-dasharray:none;stroke-opacity:1"
         id="path304" />
      <path
         d="m 12873.327,2935.2125 c -0.9,0.91 -1.9,1.81 -2.9,2.72"
         style="fill:none;stroke:#6b553d;stroke-width:10;stroke-linecap:butt;stroke-linejoin:miter;stroke-miterlimit:10;stroke-dasharray:none;stroke-opacity:1"
         id="path306" />
      <path
         d="m 13437.827,6917.3325 c -10.1,6.35 -20.4,11.8 -31.1,16.54"
         style="fill:none;stroke:#6b553d;stroke-width:10;stroke-linecap:butt;stroke-linejoin:miter;stroke-miterlimit:10;stroke-dasharray:none;stroke-opacity:1"
         id="path308" />
      <path
         d="m 13518.927,7334.1025 c -11.2,4.34 -22.7,7.87 -34.1,10.79"
         style="fill:none;stroke:#6b553d;stroke-width:10;stroke-linecap:butt;stroke-linejoin:miter;stroke-miterlimit:10;stroke-dasharray:none;stroke-opacity:1"
         id="path310" />
      <path
         d="m 14506.827,7291.6425 c -6.1,-5.35 -11.4,-11.91 -15.2,-19.67"
         style="fill:none;stroke:#6cab8b;stroke-width:10;stroke-linecap:butt;stroke-linejoin:miter;stroke-miterlimit:10;stroke-dasharray:none;stroke-opacity:1"
         id="path312" />
      <path
         d="m 12321.027,2510.3715 c 27.9,3.133 55.8,6.93 83.9,6.703 36,-0.293 71.6,-7.203 107.5,-9.543 132.7,-8.589 260.5,45.133 382.6,97.77 27.1,11.711 54.8,23.781 76.5,43.851 18.1,16.75 31.3,40.37 31.9,64.57 -1,0.6 -1.9,1.35 -2.9,1.91 -18.3,84.01 -63.4,161.88 -127.2,219.58 -3.2,-7.16 -6.4,-14.22 -9.6,-21.28 -12.7,-28.24 -25.4,-56.39 -38,-84.53 -2.9,-6.56 -6.1,-13.52 -12.2,-17.44 -8.2,-5.25 -18.9,-3.44 -28.2,-1.02 -21.6,5.55 -42.6,13.62 -62.4,24 -16.3,8.58 -32.5,19.48 -41.4,35.61 -7.2,12.91 -9,28.05 -13.7,41.96 -13.6,40.55 -45.6,66.37 -79.6,92.3 1.4,3.63 2.8,7.25 4.2,10.89 -7.2,23.2 -23.2,43.87 -45.6,52.65 -26.9,10.59 -62.1,-0.2 -74,-26.63 -13.9,-30.87 6.3,-66.27 4.8,-100.16 -1.8,-43.68 -38.4,-76.75 -72.6,-104.09 -49.1,-39.24 -99,-77.57 -149.8,-114.89 -47.4,-34.89 -96.6,-69.59 -152.9,-87.25 -30.9,-9.668 -63.1,-14.012 -94.4,-22.691 -31.2,-8.668 -62.2,-22.289 -83.5,-46.699 -12.5,-14.321 -20.6,-32.989 -22.3,-51.758 138.8,-18.012 279.8,-19.371 418.9,-3.813"
         style="fill:#57c6bf;fill-opacity:1;fill-rule:nonzero;stroke:none"
         id="path314" />
      <path
         d="m 13055.227,2620.3135 c -5.3,36.058 -20.8,74.879 -51.8,93.409 -0.6,-24.2 -13.8,-47.82 -31.9,-64.57 -21.7,-20.07 -49.4,-32.14 -76.5,-43.851 -122.1,-52.637 -249.9,-106.359 -382.6,-97.77 -35.9,2.34 -71.5,9.25 -107.5,9.543 -28.1,0.227 -56,-3.57 -83.9,-6.703 -139.1,-15.558 -280.1,-14.199 -418.9,3.813 -1.3,-13.211 0.6,-26.473 6.9,-38.313 20.4,-39.047 72.3,-46.547 116.4,-48.047 139.4,-4.8 279.1,1.5 418.5,10.797 202.3,13.403 403.2,44.114 604.3,69.731 6.2,37.011 12.4,74.84 7,111.961"
         style="fill:#f25454;fill-opacity:1;fill-rule:nonzero;stroke:none"
         id="path316" />
      <g
         id="g318"
         transform="matrix(1.06193,0,0,1.06193,275.42679,1670.9225)">
        <path
           d="m 16241.9,1591.76 c 18.1,-11.15 37.8,-18.88 58.1,-25.31 -27.4,13.14 -54.4,27.09 -78.6,45.29 -16.8,12.54 -31.8,26.91 -46.3,41.97 19.3,-23.96 40.7,-45.99 66.8,-61.95"
           style="fill:#f25454;fill-opacity:1;fill-rule:nonzero;stroke:none"
           id="path320" />
      </g>
      <g
         id="g322"
         transform="matrix(1.0538,0,0,1.0538,275.42679,1670.9225)">
        <path
           d="m 16220,1751.63 c 28.5,-26.51 53.1,-57.08 80,-85.15 -10.5,13.07 -20.4,26.69 -30.2,40.26 -27.7,38.58 -55.7,78.4 -95,105.11 -36.4,24.79 -85.1,36.27 -125.2,19.52 5.5,-6.64 10.8,-13.46 16.2,-20.17 55.6,10.16 112.4,-20.64 154.2,-59.57"
           style="fill:#f25454;fill-opacity:1;fill-rule:nonzero;stroke:none"
           id="path324" />
      </g>
      <g
         id="g326"
         transform="matrix(1.08518,0,0,1.08518,275.42679,1670.9225)">
        <path
           d="m 16298.9,1114.76 c -1.9,82.91 -23.9,165.82 -67.8,236.09 -43.9,70.27 -110.2,127.15 -188.3,155.03 -30,10.73 -61.7,17.36 -92.1,27 9,-4.33 18.1,-8.57 27.1,-12.85 86.3,-41 173.8,-90.21 225.4,-170.63 30.2,-47.08 45.9,-101.98 56.3,-156.96 6.5,-34.83 11,-70.63 5.5,-105.65 -5.5,-35.01 -22,-69.5 -50.8,-90.257 -12.1,-8.689 -27.1,-16.763 -42.6,-21.756 30,-4.683 59.7,-2.019 83.6,15.626 37,27.037 44.8,78.637 43.7,124.357"
           style="fill:#f25454;fill-opacity:1;fill-rule:nonzero;stroke:none"
           id="path328" />
      </g>
      <g
         id="g330"
         transform="matrix(1.08322,0,0,1.08322,275.42679,1670.9225)">
        <path
           d="m 16294.5,1088.76 c 5.5,35.08 1,70.95 -5.6,105.84 -10.3,55.08 -26.1,110.08 -56.3,157.25 -51.7,80.56 -139.4,129.86 -225.9,170.93 -8.9,4.3 -18.1,8.54 -27,12.88 -20,6.31 -39.3,13.89 -57,24.82 -25.6,15.64 -46.5,37.24 -65.5,60.73 -26.1,27.31 -50.1,57.05 -77.8,82.84 -40.7,37.88 -95.9,67.83 -150,57.96 10.2,-12.46 20.4,-24.88 30.3,-37.47 60.6,-19 108.2,-74.2 118.1,-136.88 9.8,-62.75 -20.2,-138.74 -79,-162.48 -48.9,-19.65 -105.7,4.46 -144.2,40.59 -29.7,27.94 -52.2,62.29 -77.1,94.89 5.6,-69.55 53.6,-134.17 110.3,-178.23 66.8,-52.23 146.6,-85.66 213.9,-137.25 50.9,-39.01 93.7,-87.43 142,-129.51 58.2,-50.48 124.5,-91.54 195.7,-120.969 19.3,-7.984 40.5,-14.865 61.5,-18.157 15.6,5.001 30.6,13.09 42.7,21.795 28.8,20.801 45.3,55.351 50.9,90.421"
           style="fill:#57c6bf;fill-opacity:1;fill-rule:nonzero;stroke:none"
           id="path332" />
      </g>
      <path
         d="m 15383.727,4829.3525 c -12.4,2.83 -24.9,5.68 -37.3,8.52 10.9,-7.67 24,-11.43 37.3,-8.52"
         style="fill:#7c8480;fill-opacity:1;fill-rule:nonzero;stroke:none"
         id="path334" />
      <path
         d="m 15346.427,4837.8725 c -16.6,11.64 -28.1,32.36 -27.3,53.03 1.3,34.29 28,63.48 59.1,78.03 31,14.54 66.1,17.26 100.4,19.75 -115.1,35.31 -230.2,70.61 -345.3,105.91 54.5,52.64 108.9,105.28 163.4,157.92 -66.5,-34.39 -140.2,-54.85 -215,-59.7 38.4,76.54 103.7,136.85 171.4,189.21 25.1,19.38 50.1,38.74 75.2,58.12 -2.9,3.1 -5.5,6.36 -8.4,9.41 l -1313.5,-136.16 c 0.9,-5.17 0.7,-10.27 -0.1,-15.3 68.7,-40.13 139,-77.46 210.8,-111.57 356.7,-169.3 744.2,-260.77 1129.3,-348.65"
         style="fill:#57c6bf;fill-opacity:1;fill-rule:nonzero;stroke:none"
         id="path336" />
      <g
         id="g945"
         transform="rotate(65.604402,12152.613,5918.0766)">
        <path
           d="m 11813,8903.66 c -15.9,-17.73 -31.3,-36.03 -46.2,-54.58 -2.7,-3.35 -7.9,-8.59 -13.3,-14.53 -0.9,1.65 -2,3.27 -3.1,4.87 10.5,11.94 20.1,25.87 29.8,37.49 12.4,14.83 24.8,29.66 37.3,44.49 1.5,-3.19 2.5,-6.4 3.1,-9.6 -2.5,-2.73 -5.1,-5.38 -7.6,-8.14 z m -76.6,11.7 c -6.7,-15.19 -15.8,-31.33 -22,-47.47 -7.6,2.61 -15.7,3.88 -24.1,3.9 7.7,12.04 14,29.25 17.8,36.37 11.4,21.68 22.4,43.58 32.7,65.86 6.3,-2.31 12.3,-4.87 18,-7.53 -7.5,-17.04 -15,-34.09 -22.4,-51.13 z m -58.6,-44.38 c -5.6,-0.66 -11.3,-1.67 -16.8,-3.03 6.1,12.13 10.4,28.33 13.3,35.28 9.1,22.04 17.8,44.24 25.8,66.74 1.5,4.23 2.8,8.54 4.2,12.8 3.4,-0.34 6.9,-0.82 10.2,-1.45 -6.3,-19.28 -12.6,-38.57 -18.8,-57.85 -5.5,-16.75 -13.4,-34.82 -17.9,-52.49 z m 270.1,131.8 c -3.2,4.66 -9.7,6.11 -15.3,4.92 -5.5,-1.19 -10.4,-4.51 -15,-7.83 -27.4,-19.76 -52.6,-42.31 -76.3,-66.32 -1.6,3.3 -3.4,6.54 -5.6,9.68 26.5,31.68 53.1,63.35 79.6,95.02 7.1,8.52 14.2,21.71 6.4,30.4 -4.2,4.62 -11.1,5.38 -16.7,3.43 -5.5,-1.95 -9.9,-6.11 -14.1,-10.24 -29.2,-28.76 -54.7,-61.24 -77.9,-95.35 -5.6,4.22 -11.5,7.99 -17.4,11.35 21.4,38.01 40.5,77.54 54.6,119.17 1.9,5.66 3.7,11.54 3.3,17.5 -0.4,5.96 -3.6,12.09 -8.9,13.95 -10.2,3.51 -18.6,-8.72 -23.1,-18.98 -17.3,-39.46 -34.6,-78.92 -51.9,-118.38 -5.7,2.65 -11.7,5.23 -17.9,7.59 16.2,37.68 30.1,76.49 39.4,116.72 1.4,5.81 2.6,11.84 1.6,17.74 -1,5.89 -4.7,11.68 -10.3,13 -10.4,2.5 -17.5,-10.5 -21,-21.14 -12.8,-39.28 -25.6,-78.56 -38.5,-117.84 -3.3,0.7 -6.7,1.31 -10.2,1.79 9.8,32.37 17.6,65.34 21.8,98.91 0.7,5.62 1.3,11.45 -0.3,16.89 -1.6,5.44 -5.9,10.45 -11.6,11.07 -10.6,1.16 -16.3,-11.9 -18.6,-22.32 -9.7,-43.54 -19.3,-87.08 -29,-130.62 -4.9,-22.22 -9.8,-44.44 -14.7,-66.67 -3.7,-16.59 -9.7,-34.73 -12.2,-52.06 -2.1,-0.72 -4.3,-1.42 -6.3,-2.19 -0.4,-0.62 -0.8,-1.3 -1.2,-1.93 15.5,7.11 32.5,11.47 49.5,10.88 17.7,-0.6 35.3,-6.73 48.6,-18.32 -4.4,4.1 -9,7.8 -13.8,10.58 9.3,11.22 17.7,28.74 22.3,35.73 12,18.28 23.7,36.82 35,55.65 5.5,-3.14 10.9,-6.54 15.9,-10.4 -13.1,-20.57 -25.6,-41.63 -37.7,-62.92 -3.6,-6.38 -12.9,-18.81 -19.1,-30.88 -0.1,0.04 -0.1,0.06 -0.2,0.1 10.6,-10.15 17.6,-24.07 18.8,-38.56 0.1,2.44 0,4.92 -0.5,7.44 8.7,7.96 17.1,16.42 25.5,23.67 17.1,14.95 34.3,29.91 51.4,44.86 33.7,29.29 67.3,58.58 100.9,87.87 8.1,7.01 16.8,18.28 10.7,27.04"
           style="fill:#ccccc9;fill-opacity:1;fill-rule:nonzero;stroke:none"
           id="path194" />
        <path
           d="m 11738.7,8852.6 c -13.3,11.59 -30.9,17.72 -48.6,18.32 -17,0.59 -34,-3.77 -49.5,-10.88 -4.6,-6.96 -8.7,-14.33 -11.8,-22.05 8.1,7.68 20.3,10.67 31.7,11.67 15.8,1.39 32,0.17 46.7,-5.81 14.7,-5.98 27.7,-17.08 33.9,-31.69 4.5,-10.75 4.9,-23.4 0.7,-34.2 6.1,7.26 11.4,15.35 15.6,23.8 1.6,3.21 2.3,6.62 2.5,10.14 -1.2,14.49 -8.2,28.41 -18.8,38.56 -0.7,0.77 -1.6,1.41 -2.4,2.14"
           style="fill:#ed1d24;fill-opacity:1;fill-rule:nonzero;stroke:none"
           id="path196" />
        <path
           d="m 11741.1,8812.16 c -6.2,14.61 -19.2,25.71 -33.9,31.69 -14.7,5.98 -30.9,7.2 -46.7,5.81 -11.4,-1 -23.6,-3.99 -31.7,-11.67 -3,-7.35 -5.2,-14.97 -6.2,-22.85 -2,-16.91 1.8,-34.95 12.7,-48.06 16,-19.33 45.2,-24.51 68.9,-16.1 14.8,5.25 27.4,14.97 37.6,26.98 4.2,10.8 3.8,23.45 -0.7,34.2"
           style="fill:#ccccc9;fill-opacity:1;fill-rule:nonzero;stroke:none"
           id="path198" />
      </g>
      <g
         id="g338"
         transform="translate(275.42679,1670.9225)">
        <g
           id="g340"
           clip-path="url(#clipPath344)">
          <path
             d="m 15345.5,3349.85 c -19.8,25.42 -39.6,50.94 -59.3,76.36 -26.6,34.19 -54,69.2 -91.6,90.58 -27.3,93.49 -76.3,180.43 -141.7,252.43 -25.1,-19.38 -50.1,-38.74 -75.2,-58.12 -67.7,-52.36 -133,-112.67 -171.4,-189.21 74.8,4.85 148.5,25.31 215,59.7 -54.5,-52.64 -108.9,-105.28 -163.4,-157.92 115.1,-35.3 230.2,-70.6 345.3,-105.91 -34.3,-2.49 -69.4,-5.21 -100.4,-19.75 -31.1,-14.55 -57.8,-43.74 -59.1,-78.03 -0.8,-20.67 10.7,-41.39 27.3,-53.03 12.4,-2.84 24.9,-5.69 37.3,-8.52 -13.3,-2.91 -26.4,0.85 -37.3,8.52 -385.1,87.88 -772.6,179.35 -1129.3,348.65 -71.8,34.11 -142.1,71.44 -210.8,111.57 -3,-20.13 -17.6,-38.55 -35.3,-49.76 -22.1,-14.02 -48.3,-19.57 -73.3,-27.54 -69.6,-21.99 -136.6,-53.66 -184.4,-107.72 -3.7,-4.13 -7.3,-8.37 -10.7,-12.81 65.1,21.38 136,18.45 201,-2.83 l 50.5,-30.25 c 450.5,0 843.2,-324.69 1288.7,-392.16 197.9,-29.96 415.3,-48.92 587.8,50.23 4.2,2.42 8.4,4.94 12.6,7.46 -73.7,96.42 -148,192.24 -222.3,288.06"
             style="fill:url(#linearGradient350);fill-opacity:1;fill-rule:nonzero;stroke:none"
             id="path352" />
        </g>
      </g>
      <path
         d="m 15219.627,5231.8425 c -202.2,21.39 -404.3,42.8 -606.5,64.2 154.8,40.69 309.7,81.39 464.5,122.09 -84.4,52.86 -180.8,86.51 -279.8,97.71 40.7,-5.16 85.1,-9.61 120.2,11.73 35.1,21.34 48.4,79.84 14,102.29 -15.8,10.3 -36,9.93 -54.8,9.19 -149.2,-5.81 -298.4,-11.63 -447.7,-17.44 166.1,16.1 330.2,51.43 488.2,105.06 -121.9,67.4 -182.1,228.84 -134.2,359.64 15.8,43.07 41,93.79 13.6,130.63 -15.8,21.27 -43.8,28.53 -66.7,41.78 -81,46.75 -80.1,185.75 1.5,231.41 -90.9,29.94 -181.9,-36.03 -263.6,-86.02 -81.7,-49.98 -204.5,-79.1 -260.2,-1.2 -32.7,45.78 -24.8,107.7 -32.3,163.47 -7.5,55.77 -51.1,119.17 -105.6,105.04 -18.1,-4.69 -32.9,-17.31 -49.5,-25.76 -83,-42.12 -186.1,36.08 -205.3,127.11 -19.2,91.02 18,183.44 54.5,269.04 -46,-30.25 -103.5,-42.4 -157.8,-33.35 16.6,34.21 33.2,68.4 49.8,102.61 -109,-82.43 -285.6,-51.01 -359.5,63.9 -10.5,-39.98 -15.1,-80.08 -10.9,-116.03 4.5,-38.93 10.1,-83.62 15.2,-125.07 1.4,-12.1 2.8,-24 4.1,-35.3 48.4,-21.79 97.9,-44.28 136.3,-80.89 38.4,-36.62 57,-122.96 46.8,-170.06 -17,-78.67 14.1,-157.65 44.2,-232.19 29.9,-74.64 72.9,-97.94 117.6,-164.81 181.7,-271.13 259.8,-618.7 226.2,-943.49 152.2,-132.54 353.9,-200.52 555.3,-212.92 201.4,-12.31 403.2,27.94 594.7,91.89 36.9,12.38 74.3,26.2 108.2,45.05 -7.1,-0.2 -14,0 -20.5,0.69"
         style="fill:#57c6bf;fill-opacity:1;fill-rule:nonzero;stroke:none"
         id="path354" />
      <g
         id="g356"
         transform="translate(275.42679,1670.9225)">
        <g
           id="g358"
           clip-path="url(#clipPath362)">
          <path
             d="m 15066.8,3792.96 c -92.9,207.07 -264.9,389.23 -305.6,612.55 -18.7,101.87 -63.5,204.74 -133.5,281.1 35.9,46.7 56.2,108.03 44.4,165.63 18.4,-1.42 34.6,8.86 53.1,7.46 0.1,0.19 0.1,0.3 0.2,0.51 49.3,133.03 95.8,265.06 156.3,393.36 2,4.55 4.1,8.98 6.2,13.41 -20.4,67.29 -113.7,69.9 -173.4,107.02 -30.1,18.66 -52.3,47.41 -78.1,71.62 -55.7,52.24 -127.8,82.81 -198.6,111.25 -133,53.15 -268.8,102.68 -410.8,121.14 -120.6,15.53 -242.7,8.37 -364.1,1.21 -145.5,-8.68 -338.5,-42.56 -448.2,1.61 -1.8,-2.22 -3.6,-4.54 -5.3,-6.86 -35.1,-45.53 -66,-107.58 -82.4,-169.92 73.9,-114.91 250.5,-146.33 359.5,-63.9 -16.6,-34.21 -33.2,-68.4 -49.8,-102.61 54.3,-9.05 111.8,3.1 157.8,33.35 -36.5,-85.6 -73.7,-178.02 -54.5,-269.04 19.2,-91.03 122.3,-169.23 205.3,-127.11 16.6,8.45 31.4,21.07 49.5,25.76 54.5,14.13 98.1,-49.27 105.6,-105.04 7.5,-55.77 -0.4,-117.69 32.3,-163.47 55.7,-77.9 178.5,-48.78 260.2,1.2 81.7,49.99 172.7,115.96 263.6,86.02 -81.6,-45.66 -82.5,-184.66 -1.5,-231.41 22.9,-13.25 50.9,-20.51 66.7,-41.78 27.4,-36.84 2.2,-87.56 -13.6,-130.63 -47.9,-130.8 12.3,-292.24 134.2,-359.64 -158,-53.63 -322.1,-88.96 -488.2,-105.06 149.3,5.81 298.5,11.63 447.7,17.44 18.8,0.74 39,1.11 54.8,-9.19 34.4,-22.45 21.1,-80.95 -14,-102.29 -35.1,-21.34 -79.5,-16.89 -120.2,-11.73 99,-11.2 195.4,-44.85 279.8,-97.71 -154.8,-40.7 -309.7,-81.4 -464.5,-122.09 202.2,-21.4 404.3,-42.81 606.5,-64.2 6.5,-0.69 13.4,-0.89 20.5,-0.69 23,12.79 44.5,27.83 63.1,46.53 46.1,46.39 65.8,126.58 39,186.2"
             style="fill:url(#linearGradient368);fill-opacity:1;fill-rule:nonzero;stroke:none"
             id="path370" />
        </g>
      </g>
      <path
         d="m 15431.627,7330.7125 c -29.7,-87.65 -64.7,-182.22 -143.5,-230.84 -83,-51.2 -189.6,-35.84 -284.4,-12.96 -40.2,9.67 -83.5,22.63 -107.4,56.43 -23.1,32.65 -23.9,79.85 -54.6,105.4 -35.4,29.36 -88.3,13.48 -133.7,20.14 -40.5,6.03 -75.7,30.43 -114.8,42.67 -31.6,9.94 -71.5,8.25 -95,-12.51 -26.4,39.13 -39.4,86.6 -47.6,132.99 29.7,8.7 50.2,38.15 63.7,65.92 13.5,27.86 19.1,58.74 24.4,89.17 2.4,13.66 4.4,29.1 -3.7,40.37 -5.9,8.07 -15.8,12.15 -25.6,14.46 -46.6,11.08 -99.1,-10.83 -124,-51.73 24.7,86.95 -61.6,170.88 -49.9,260.49 3.2,24.39 13.5,47.37 16.3,71.86 5,41.61 -13.5,85.17 -47,110.45 -33.3,25.29 -99.3,34.6 -133.9,11.01 -1.1,-0.81 -2.4,-1.6 -3.5,-2.49 23.9,47.02 75.9,75.68 128.4,83.75 54.5,8.43 110.2,-1.95 164.2,-13.75 70.3,-15.35 143.2,-34.51 197.1,-82.24 63.3,-55.89 90.6,-143.81 91.5,-228.28 0.8,-84.37 -21.8,-167.06 -44.3,-248.5 42.3,-4.79 90.3,-13.13 112.7,-49.15 17.6,-28.31 13.7,-65.57 28.7,-95.38 20.5,-40.9 72.3,-57.22 117.8,-52.17 45.5,5.15 87,26.89 129.2,44.54 42.2,17.65 88.9,31.5 133.2,20.05 37.1,-9.67 67.3,-35.75 98.7,-57.49 31.6,-21.74 69.5,-40.36 107,-32.21"
         style="fill:#911631;fill-opacity:1;fill-rule:nonzero;stroke:none"
         id="path372" />
      <path
         d="m 14167.427,8041.5425 c -1,-1.95 -2,-3.9 -2.8,-5.94"
         style="fill:none;stroke:#6cab8b;stroke-width:10;stroke-linecap:butt;stroke-linejoin:miter;stroke-miterlimit:10;stroke-dasharray:none;stroke-opacity:1"
         id="path374" />
      <path
         d="m 14238.127,7088.3125 c -1.8,39.32 -6.8,80.71 9.8,116.4 18.1,39 57.9,62.6 86,95.17 39.9,46.29 54.8,112.94 38.4,171.83 5.4,-32.4 -9.3,-65.81 -32.3,-89.28 -23,-23.47 -53.3,-38.34 -84.1,-49.97 -108.5,-41.09 -230.1,-46.29 -341.9,-15.09 2.4,-6.26 5.8,-12.08 10.5,-17.17 14.3,-15.53 36.8,-19.7 57.3,-25.11 20.5,-5.32 42.8,-14.9 50.2,-34.69 -9.9,-53.68 22.4,-105.67 49.2,-153.13 25.1,-44.62 50.3,-89.25 75.5,-133.79 -3.1,20.58 10.2,33.18 28.3,43.48 13.9,7.84 29.5,11.72 45,15.76 8.2,23.43 9.2,50.37 8.1,75.59"
         style="fill:#e26739;fill-opacity:1;fill-rule:nonzero;stroke:none"
         id="path376" />
      <g
         id="g378"
         transform="translate(275.42679,1670.9225)">
        <g
           id="g380"
           clip-path="url(#clipPath384)">
          <path
             d="m 14259.6,5956.57 c -5.9,8.07 -15.8,12.15 -25.6,14.46 -46.6,11.08 -99.1,-10.83 -124,-51.73 24.7,86.95 -61.6,170.88 -49.9,260.49 3.2,24.39 13.5,47.37 16.3,71.86 5,41.61 -13.5,85.17 -47,110.45 -33.3,25.29 -99.3,34.6 -133.9,11.01 -1.1,-0.81 -2.4,-1.6 -3.5,-2.49 -55.9,-38.95 -101.4,-92.71 -130.7,-154.19 -24.2,-12.25 -31,-46.76 -34.6,-73.64 -3.6,-26.97 -1.8,-54.74 -9.3,-80.83 -5.5,-19.07 -30.4,-27.32 -45.3,-40.36 -14.9,-13.05 -28.5,-28.75 -33.7,-47.91 -5.1,-19.16 0.2,-42.14 16.7,-53.06 -6.7,-71.68 -13.5,-143.37 -20.2,-215.05 -1.9,-19.65 -3.1,-41.26 3.7,-59.13 111.8,-31.2 233.4,-26 341.9,15.09 30.8,11.63 61.1,26.5 84.1,49.97 23,23.47 37.7,56.88 32.3,89.28 16.4,-58.89 1.5,-125.54 -38.4,-171.83 -28.1,-32.57 -67.9,-56.17 -86,-95.17 -16.6,-35.69 -11.6,-77.08 -9.8,-116.4 1.1,-25.22 0.1,-52.16 -8.1,-75.59 4.8,1.26 9.6,2.52 14.4,3.93 62.5,18.54 115.2,62.28 155.4,113.56 40.3,51.28 69.5,110.19 98.5,168.66 0,0.09 -0.1,0.09 -0.1,0.17 -26.4,39.13 -39.4,86.6 -47.6,132.99 29.7,8.7 50.2,38.15 63.7,65.93 13.5,27.85 19.1,58.73 24.4,89.16 2.4,13.66 4.4,29.1 -3.7,40.37"
             style="fill:url(#linearGradient390);fill-opacity:1;fill-rule:nonzero;stroke:none"
             id="path392" />
        </g>
      </g>
      <path
         d="m 8939.6568,6215.9225 32.2,15.69 26.29,-13.26 -32.2,-15.7 z m 69.69,33.99 26.29,-13.27 -32.21,-15.7 -26.29,13.26 z m -26.25,18.5 32.2,15.7 26.29,-13.27 -32.2,-15.7 z m 69.69,33.99 26.28,-13.27 -32.2,-15.7 -26.29,13.26 z m 37.49,18.29 26.28,-13.28 -32.2,-15.7 -26.28,13.27 z m 37.49,18.29 26.29,-13.27 -32.2,-15.7 -26.29,13.26 z m 37.48,18.29 26.29,-13.27 -32.2,-15.71 -26.28,13.26 z m 37.5,18.29 26.28,-13.28 -32.2,-15.71 -26.29,13.28 z m 37.49,18.28 26.28,-13.26 -32.2,-15.7 -26.28,13.26 z m 37.48,18.29 26.29,-13.26 -32.2,-15.71 -26.29,13.27 z m 37.49,18.28 26.29,-13.26 -32.21,-15.7 -26.28,13.26 z m 37.5,18.29 26.28,-13.26 -32.21,-15.7 -26.28,13.25 z m 37.48,18.29 26.28,-13.27 -32.19,-15.7 -26.29,13.27 z m 37.49,18.3 26.29,-13.28 -32.21,-15.7 -26.29,13.27 z m 37.49,18.28 26.3,-13.27 -32.22,-15.71 -26.29,13.27 z m 37.49,18.29 26.28,-13.27 -32.2,-15.7 -26.28,13.26 z m 37.49,18.28 26.28,-13.26 -32.2,-15.71 -26.29,13.27 z m 37.48,18.29 26.29,-13.26 -32.2,-15.71 -26.29,13.27 z m 37.5,18.28 26.28,-13.26 -32.2,-15.69 -26.28,13.26 z m -26.26,18.51 32.2,15.71 26.29,-13.27 -32.2,-15.71 z m 90.03,-13.47 -32.21,-15.7 -26.28,13.25 32.21,15.71 z m 11.2,31.54 26.29,-13.26 -32.21,-15.7 -26.28,13.26 z m 37.49,18.29 26.28,-13.26 -32.19,-15.71 -26.29,13.27 z m 37.49,18.29 26.29,-13.27 -32.2,-15.7 -26.29,13.26 z m 37.5,18.29 26.27,-13.27 -32.2,-15.71 -26.29,13.28 z m 57.81,-29.18 -32.2,-15.71 -26.29,13.27 32.21,15.71 z m -69.69,-34 -26.28,13.27 32.2,15.72 26.29,-13.28 z m -37.48,-18.28 -26.3,13.26 32.21,15.71 26.29,-13.27 z m -37.5,-18.29 -26.28,13.26 32.2,15.71 26.29,-13.27 z m 26.26,-18.5 -32.2,-15.7 -26.29,13.26 32.2,15.71 z m -69.7,-33.99 -26.28,13.26 32.21,15.71 26.27,-13.27 z m -37.48,-18.29 -26.29,13.27 32.2,15.69 26.29,-13.25 z m -37.49,-18.29 -26.29,13.27 32.2,15.7 26.28,-13.26 z m -37.5,-18.28 -26.27,13.26 32.19,15.71 26.29,-13.27 z m -37.49,-18.29 -26.28,13.26 32.21,15.71 26.28,-13.26 z m 26.26,-18.5 -32.21,-15.7 -26.29,13.26 32.21,15.7 z m -69.69,-33.99 -26.29,13.26 32.21,15.7 26.27,-13.26 z m -37.5,-18.3 -26.28,13.28 32.2,15.7 26.29,-13.26 z m -37.48,-18.29 -26.29,13.27 32.2,15.71 26.29,-13.27 z m -37.49,-18.28 -26.28,13.26 32.19,15.72 26.29,-13.27 z m -37.49,-18.29 -26.29,13.27 32.2,15.71 26.29,-13.28 z m -37.49,-18.29 -26.29,13.26 32.2,15.7 26.3,-13.25 z m -37.49,-18.28 -26.28,13.27 32.19,15.69 26.29,-13.26 z m -37.48,-18.29 -26.29,13.27 32.2,15.7 26.29,-13.27 z m -37.5,-18.29 -26.29,13.27 32.21,15.69 26.29,-13.25 z m -37.49,-18.29 -26.28,13.28 32.2,15.69 26.29,-13.27 z m -37.48,-18.29 -26.29,13.27 32.2,15.7 26.29,-13.26 z m -57.82,29.18 32.2,15.71 26.28,-13.26 -32.2,-15.71 z m 26.95,18.35 -32.2,-15.7 -26.29,13.27 32.2,15.71 z m 37.49,18.29 -32.21,-15.7 -26.29,13.26 32.21,15.71 z m 37.48,18.3 -32.21,-15.71 -26.29,13.26 32.21,15.71 z m 37.5,18.29 -32.21,-15.71 -26.29,13.27 32.21,15.7 z m 37.48,18.28 -32.2,-15.7 -26.29,13.27 32.2,15.7 z m 37.5,18.29 -32.21,-15.71 -26.29,13.27 32.2,15.7 z m 37.48,18.29 -32.2,-15.7 -26.29,13.26 32.21,15.7 z m 37.5,18.28 -32.21,-15.7 -26.29,13.27 32.2,15.7 z m 37.48,18.29 -32.2,-15.7 -26.29,13.26 32.2,15.7 z m 37.49,18.29 -32.21,-15.71 -26.28,13.28 32.2,15.7 z m 37.49,18.28 -32.2,-15.7 -26.29,13.27 32.2,15.71 z m 37.48,18.3 -32.2,-15.71 -26.29,13.26 32.2,15.72 z m -26.94,-18.36 32.2,15.71 26.28,-13.26 -32.21,-15.71 z m -37.49,-18.28 32.19,15.7 26.29,-13.26 -32.2,-15.71 z m -37.5,-18.3 32.21,15.72 26.28,-13.26 -32.2,-15.71 z m -37.48,-18.29 32.2,15.71 26.28,-13.27 -32.2,-15.7 z m -37.5,-18.28 32.21,15.7 26.29,-13.26 -32.21,-15.7 z m -37.48,-18.29 32.21,15.7 26.28,-13.26 -32.21,-15.7 z m -37.49,-18.29 32.21,15.71 26.27,-13.27 -32.2,-15.7 z m -37.49,-18.28 32.21,15.7 26.27,-13.26 -32.19,-15.71 z m -37.49,-18.29 32.21,15.7 26.28,-13.26 -32.21,-15.7 z m -16.49,-34.14 -32.19,-15.7 -26.29,13.26 32.2,15.7 z m -21,15.85 32.2,15.71 26.29,-13.27 -32.2,-15.71 z m 401.84,201.25 -32.2,-15.72 -26.29,13.27 32.2,15.71 z m 37.5,18.28 -32.21,-15.71 -26.28,13.27 32.19,15.69 z m 37.48,18.28 -32.2,-15.7 -26.29,13.27 32.2,15.7 z m 37.49,18.28 -32.2,-15.7 -26.29,13.28 32.21,15.7 z m 16.48,34.15 32.21,15.7 26.28,-13.26 -32.2,-15.7 z m 21.01,-15.85 -32.2,-15.7 -26.29,13.27 32.2,15.69 z m -637.98,-342.51 -26.28,13.25 32.2,15.72 26.28,-13.27 z m -37.48,-18.29 -26.29,13.26 32.2,15.7 26.28,-13.27 z m -91.39,-18.5 59.81,29.17 26.28,-13.27 -43.17,-21.05 c 6.4,1.39 12.79,2.77 19.17,4.14 l 29.25,14.27 10.94,-5.52 c 2.4,0.54 4.78,1.09 7.18,1.64 l -12.83,6.46 32.2,15.71 23.35,-11.79 c 2.26,0.6 4.51,1.23 6.77,1.85 l -24.83,12.53 32.2,15.7 26.29,-13.26 -26.81,-13.08 c 9.43,2.65 18.81,5.48 28.13,8.51 l 3.94,1.91 0.74,-0.37 c 2.09,0.69 4.2,1.35 6.29,2.07 l -1.75,0.88 32.21,15.7 5.48,-2.76 c 1.85,0.79 3.7,1.64 5.54,2.46 l -5.74,2.9 32.2,15.69 5.89,-2.97 c 1.71,0.89 3.42,1.77 5.14,2.66 l -5.75,2.9 32.21,15.7 4.76,-2.4 c 1.71,0.89 3.42,1.78 5.13,2.67 l -4.6,2.32 32.2,15.7 3.63,-1.83 c 1.71,0.89 3.42,1.78 5.13,2.66 l -3.48,1.75 32.2,15.71 2.5,-1.26 c 1.72,0.88 3.43,1.77 5.14,2.66 l -2.35,1.19 32.2,15.71 1.37,-0.7 c 1.71,0.89 3.43,1.77 5.14,2.66 l -1.22,0.61 32.21,15.71 0.23,-0.12 c 1.71,0.89 3.42,1.77 5.13,2.66 l -0.08,0.05 2.71,1.31 c 21.06,10.93 42.12,21.87 63.2,32.79 38.61,20 77.71,39.46 116.18,60.03 l -26.18,13.21 32.21,15.71 24.36,-12.29 c 1.65,0.93 3.32,1.81 4.96,2.74 l -24.04,12.14 32.2,15.7 21.25,-10.72 c 1.58,0.95 3.14,1.91 4.71,2.87 l -20.68,10.43 32.21,15.7 16.67,-8.4 c 1.49,0.97 2.95,2.02 4.43,3 l -15.82,7.99 32.21,15.71 10.57,-5.34 c 1.45,1.03 2.93,2.03 4.38,3.04 l -9.67,4.88 32.2,15.7 4.22,-2.12 c 1.48,1 2.96,2 4.45,3.01 l -3.38,1.7 21.22,10.35 c 9.21,6.21 18.41,12.43 27.59,18.67 l -16.57,-8.09 -26.28,13.26 32.2,15.71 23.65,-11.93 c 1.46,1.02 2.91,2.03 4.37,3.05 l -22.73,11.47 32.19,15.7 16.84,-8.5 c 1.42,1.04 2.82,2.08 4.24,3.13 l -15.79,7.96 32.2,15.7 8.87,-4.48 c 1.35,1.06 2.69,2.15 4.04,3.22 l -7.62,3.85 29.85,14.55 c 4.43,3.82 8.81,7.67 13.12,11.61 l -10.72,-5.23 -26.3,13.27 32.2,15.7 19.42,-9.8 c 1.17,1.16 2.31,2.34 3.47,3.51 l -13.09,6.6 c -2.16,0.07 -4.29,-0.05 -6.47,0.15 -3.74,0.34 -7.34,0.68 -10.96,1.02 l -29.81,-14.54 -26.29,13.28 9.6,4.68 c -3.58,0.1 -7.1,0.1 -10.57,0.04 l -4.28,-2.08 -3.77,1.9 c -2.97,-0.16 -5.86,-0.5 -8.76,-0.83 l 7.24,-3.65 -32.2,-15.7 -16.17,8.15 c -1.98,-0.75 -3.96,-1.5 -5.93,-2.26 l 16.8,-8.48 -32.2,-15.7 -20.66,10.43 c -1.97,-0.75 -3.95,-1.52 -5.92,-2.27 l 21.3,-10.75 -32.2,-15.69 -24.84,12.53 c -1.94,-0.77 -3.87,-1.57 -5.81,-2.32 l 25.37,-12.81 -32.21,-15.7 -26.29,13.27 22.89,11.16 c -14.42,-5.69 -28.91,-11.24 -43.21,-17.19 -20.19,-8.39 -37.29,-19.01 -54.51,-30.48 l 32.05,15.64 26.29,-13.27 -32.19,-15.71 -26.28,13.27 c -1.51,-1.01 -3.01,-1.97 -4.51,-2.98 l 25.5,-12.87 -32.21,-15.71 -20.53,10.36 c -0.54,-0.35 -1.06,-0.7 -1.6,-1.05 -1,-0.65 -2.05,-1.2 -3.06,-1.84 l 19.91,-10.05 -32.2,-15.7 -16.82,8.49 c -1.68,-0.93 -3.4,-1.78 -5.08,-2.7 l 16.6,-8.37 -32.19,-15.71 -15.51,7.83 c -1.74,-0.88 -3.48,-1.75 -5.23,-2.61 l 15.45,-7.81 -32.21,-15.7 -14.97,7.56 c -1.73,-0.88 -3.46,-1.75 -5.2,-2.63 l 14.89,-7.51 -32.2,-15.7 -14.31,7.22 c -1.74,-0.87 -3.47,-1.77 -5.2,-2.63 l 14.22,-7.18 -32.21,-15.7 -14.24,7.19 c -1.78,-0.84 -3.55,-1.72 -5.33,-2.56 l 14.29,-7.22 -32.2,-15.7 -15.12,7.63 c -1.84,-0.83 -3.68,-1.64 -5.52,-2.47 l 15.36,-7.75 -32.21,-15.7 -16.77,8.46 c -1.86,-0.81 -3.71,-1.62 -5.57,-2.43 l 17.05,-8.61 -32.2,-15.71 -18.85,9.52 c -1.87,-0.8 -3.73,-1.62 -5.6,-2.43 l 19.17,-9.67 -32.2,-15.71 -21.13,10.67 c -1.87,-0.81 -3.74,-1.61 -5.62,-2.42 l 21.46,-10.82 -32.21,-15.72 -23.34,11.78 c -0.58,-0.25 -1.16,-0.5 -1.74,-0.75 -1.24,-0.54 -2.56,-1.14 -3.82,-1.69 l 23.62,-11.92 -32.21,-15.7 -24.68,12.46 c -1.78,-0.84 -3.56,-1.7 -5.35,-2.56 l 24.74,-12.48 -32.2,-15.7 -24.19,12.21 c -1.69,-0.9 -3.38,-1.79 -5.07,-2.7 l 23.98,-12.1 -32.21,-15.71 -21.48,10.84 c -1.57,-0.95 -3.1,-1.93 -4.66,-2.9 l 20.85,-10.52 -32.19,-15.71 -15.83,8 c -1.42,-1.04 -2.83,-2.08 -4.22,-3.13 l 14.76,-7.45 -32.2,-15.7 -6.5,3.28 c -1.22,-1.13 -2.47,-2.27 -3.64,-3.41 l 4.86,-2.45 -13.76,-6.71 c -2.61,-2.9 -5.01,-5.83 -7.32,-8.78 l 26.33,12.83 26.29,-13.26 -32.22,-15.71 -23.53,11.88 c -0.93,-1.3 -1.81,-2.6 -2.68,-3.9 l 20.93,-10.56 -32.2,-15.7 -5.59,2.82 c -1.03,-1.25 -2.07,-2.48 -3.12,-3.68 l 3.42,-1.72 -8.8,-4.3 c -3.8,-3.91 -7.7,-7.57 -11.72,-10.93 l 25.77,12.57 26.29,-13.27 -56.61,-27.62 2.05,-4.2"
         style="fill:#ccccc9;fill-opacity:1;fill-rule:nonzero;stroke:none"
         id="path394" />
      <path
         d="m 8907.8168,6167.5325 c 0.58,-0.02 1.18,-0.03 1.79,-0.03 51.4,0 240.49,64.95 512.21,204.14 275,140.87 438.82,257.48 465.96,297.9 -0.57,0.02 -1.18,0.03 -1.79,0.03 -51.39,0 -240.48,-64.95 -512.21,-204.16 -274.99,-140.86 -438.81,-257.47 -465.96,-297.88 z m -0.1,-39.72 c -25.34,0 -35.28,8.38 -40.65,18.84 -11.36,22.17 -3.07,55.53 133.28,148.64 91.25,62.34 217.34,135.5 355.04,206.04 137.7,70.54 270.75,130.12 374.64,167.75 155.24,56.27 187.15,43.49 198.51,21.33 v 0 c 11.35,-22.18 3.06,-55.53 -133.28,-148.65 -91.26,-62.32 -217.34,-135.49 -355.04,-206.03 -137.69,-70.53 -270.75,-130.11 -374.64,-167.76 -81.95,-29.7 -129.53,-40.16 -157.86,-40.16"
         style="fill:#ed134b;fill-opacity:1;fill-rule:nonzero;stroke:none"
         id="path396" />
      <path
         d="m 10871.527,7185.7425 c -6.1,10.06 -17.4,16.04 -28.9,18.33 -6.8,1.34 -13.6,1.52 -20.5,1.29 l -98.2,-75.51 -831.2102,-427.03 16.42,-40.11 837.4902,431.03 103.4,25.14 h 3.9 c 5.2,5.53 9.8,11.57 13.6,18.16 8.6,14.82 12.9,34.07 4,48.7"
         style="fill:#ed134b;fill-opacity:1;fill-rule:nonzero;stroke:none"
         id="path398" />
    </g>
  </g>
</svg>
