<?xml version="1.0" encoding="UTF-8" standalone="no"?>
<!-- Generator: Adobe Illustrator 27.5.0, SVG Export Plug-In . SVG Version: 6.00 Build 0)  -->

<svg
   version="1.1"
   x="0px"
   y="0px"
   viewBox="0 0 226.49201 260.814"
   xml:space="preserve"
   id="svg75"
   width="226.492"
   height="260.814"
   xmlns:xlink="http://www.w3.org/1999/xlink"
   xmlns="http://www.w3.org/2000/svg"
   xmlns:svg="http://www.w3.org/2000/svg"><defs
   id="defs79"><rect
     x="111.71186"
     y="340.86441"
     width="193.51759"
     height="38.683121"
     id="rect1782" /><rect
     x="98.23391"
     y="329.64059"
     width="116.46288"
     height="66.333206"
     id="rect1776" /></defs>

<g
   id="piopup"
   transform="matrix(0.57194915,0,0,0.57194915,-17.158474,-34.360572)">
	
	<g
   id="g62">
		<g
   id="g60">
			<defs
   id="defs8"><rect
     id="SVGID_1_"
     x="78"
     y="78"
     width="300"
     height="300" /></defs>
			<clipPath
   id="SVGID_00000000219798173715957600000015722608633723956617_">
				<use
   xlink:href="#SVGID_1_"
   style="overflow:visible"
   id="use10" />
			</clipPath>
			<g
   clip-path="url(#SVGID_00000000219798173715957600000015722608633723956617_)"
   id="g58">
				
					<linearGradient
   id="SVGID_00000061474120719677854610000008763745681961313424_"
   gradientUnits="userSpaceOnUse"
   x1="227.0722"
   y1="610.07489"
   x2="229.5302"
   y2="188.653"
   gradientTransform="matrix(1,0,0,-1,0,678)">
					<stop
   offset="0"
   style="stop-color:#F2F2F2"
   id="stop13" />
					<stop
   offset="1"
   style="stop-color:#EFEFEF"
   id="stop15" />
				</linearGradient>
				<path
   style="fill:url(#SVGID_00000061474120719677854610000008763745681961313424_)"
   d="m 228,347 c 66.274,0 120,-53.726 120,-120 0,-66.274 -53.726,-120 -120,-120 -66.274,0 -120,53.726 -120,120 0,66.274 53.726,120 120,120 z"
   id="path18" />
				<g
   id="g22">
					<path
   style="fill:#ffffff"
   d="m 183,141.556 h 92.537 c 8.837,0 16,7.163 16,16 v 123.029 c 0,8.837 -7.163,16 -16,16 H 183 c -8.837,0 -16,-7.163 -16,-16 V 157.556 c 0,-8.837 7.163,-16 16,-16 z"
   id="path20" />
				</g>
				<path
   style="fill:#011625"
   d="m 182.9,161.556 h 40.2 c 2.706,0 4.9,2.194 4.9,4.9 v 0 c 0,2.706 -2.194,4.9 -4.9,4.9 h -40.2 c -2.706,0 -4.9,-2.194 -4.9,-4.9 v 0 c 0,-2.706 2.194,-4.9 4.9,-4.9 z"
   id="path24" />
				<path
   style="fill:#d5d5d5"
   d="m 182.9,189.356 h 90.2 c 2.706,0 4.9,2.194 4.9,4.9 v 0 c 0,2.706 -2.194,4.9 -4.9,4.9 h -90.2 c -2.706,0 -4.9,-2.194 -4.9,-4.9 v 0 c 0,-2.706 2.194,-4.9 4.9,-4.9 z"
   id="path26" />
				<path
   style="fill:#d5d5d5"
   d="m 182.9,217.156 h 90.2 c 2.706,0 4.9,2.194 4.9,4.9 v 0 c 0,2.706 -2.194,4.9 -4.9,4.9 h -90.2 c -2.706,0 -4.9,-2.194 -4.9,-4.9 v 0 c 0,-2.706 2.194,-4.9 4.9,-4.9 z"
   id="path28" />
				<path
   style="fill:#d5d5d5"
   d="m 182.9,244.956 h 90.2 c 2.706,0 4.9,2.194 4.9,4.9 v 0 c 0,2.706 -2.194,4.9 -4.9,4.9 h -90.2 c -2.706,0 -4.9,-2.194 -4.9,-4.9 v 0 c 0,-2.706 2.194,-4.9 4.9,-4.9 z"
   id="path30" />
				<path
   style="fill:#d5d5d5"
   d="m 182.9,272.756 h 90.2 c 2.706,0 4.9,2.194 4.9,4.9 v 0 c 0,2.706 -2.194,4.9 -4.9,4.9 h -90.2 c -2.706,0 -4.9,-2.194 -4.9,-4.9 v 0 c 0,-2.706 2.194,-4.9 4.9,-4.9 z"
   id="path32" />
				<g
   id="g36">
					<path
   style="fill:#ffffff"
   d="m 366.15,124.424 h -60.081 c -2.799,0 -5.069,2.389 -5.069,5.335 v 29.719 c 0,2.946 2.27,5.335 5.069,5.335 h 60.081 c 2.8,0 5.069,-2.389 5.069,-5.335 v -29.719 c 0,-2.946 -2.269,-5.335 -5.069,-5.335 z"
   id="path34" />
				</g>
				<path
   style="fill:#ccc6d9"
   d="m 316,151 c 3.314,0 6,-2.686 6,-6 0,-3.314 -2.686,-6 -6,-6 -3.314,0 -6,2.686 -6,6 0,3.314 2.686,6 6,6 z"
   id="path38" />
				<path
   style="fill:#d5d5d5"
   d="m 336,139 h 20 c 3.314,0 6,2.686 6,6 v 0 c 0,3.314 -2.686,6 -6,6 h -20 c -3.314,0 -6,-2.686 -6,-6 v 0 c 0,-3.314 2.686,-6 6,-6 z"
   id="path40" />
				<path
   style="clip-rule:evenodd;fill:#ccc6d9;fill-rule:evenodd"
   d="m 263.11,303.563 c 12.879,0 24.849,-3.896 34.795,-10.574 l 40.699,38.852 14.761,-17.126 -39.273,-37.489 c 7.253,-10.208 11.518,-22.687 11.518,-36.163 0,-34.518 -27.983,-62.5 -62.5,-62.5 -34.518,0 -62.5,27.982 -62.5,62.5 0,34.518 27.982,62.5 62.5,62.5 z m 53.309,-62.5 c 0,29.223 -23.691,52.914 -52.914,52.914 -29.223,0 -52.913,-23.691 -52.913,-52.914 0,-29.223 23.69,-52.913 52.913,-52.913 29.223,0 52.914,23.69 52.914,52.913 z"
   id="path42" />
				<g
   id="g46">
					<path
   style="fill:#ffffff;fill-opacity:0.3"
   d="m 263.5,295 c 30.1,0 54.5,-24.177 54.5,-54 0,-29.823 -24.4,-54 -54.5,-54 -30.1,0 -54.5,24.177 -54.5,54 0,29.823 24.4,54 54.5,54 z"
   id="path44" />
				</g>
				<path
   style="fill:#ff4040"
   d="m 272.923,241 13.189,-13.138 c 1.236,-1.3 1.913,-3.027 1.887,-4.815 -0.025,-1.788 -0.751,-3.495 -2.023,-4.76 -1.272,-1.264 -2.99,-1.986 -4.789,-2.011 -1.799,-0.025 -3.537,0.647 -4.845,1.875 l -13.218,13.138 -13.189,-13.138 c -0.635,-0.667 -1.398,-1.201 -2.244,-1.571 -0.846,-0.369 -1.758,-0.566 -2.682,-0.579 -0.924,-0.013 -1.841,0.158 -2.697,0.503 -0.856,0.346 -1.634,0.858 -2.288,1.508 -0.653,0.649 -1.169,1.422 -1.516,2.273 -0.348,0.851 -0.52,1.763 -0.507,2.682 0.013,0.918 0.211,1.824 0.583,2.665 0.371,0.841 0.909,1.599 1.581,2.23 L 253.376,241 240.165,254.138 c -0.672,0.631 -1.21,1.389 -1.581,2.23 -0.372,0.841 -0.57,1.747 -0.583,2.665 -0.013,0.919 0.159,1.83 0.507,2.682 0.347,0.851 0.863,1.624 1.516,2.273 0.654,0.649 1.432,1.162 2.288,1.508 0.856,0.345 1.773,0.516 2.697,0.503 0.924,-0.013 1.836,-0.21 2.682,-0.579 0.846,-0.37 1.609,-0.904 2.244,-1.571 l 13.218,-13.138 13.219,13.138 c 1.32,1.155 3.033,1.767 4.792,1.71 1.758,-0.056 3.428,-0.777 4.67,-2.015 1.242,-1.239 1.962,-2.901 2.014,-4.648 0.052,-1.748 -0.569,-3.45 -1.736,-4.758 z"
   id="path48" />
				<path
   style="fill:#e1dceb"
   d="m 338.601,331.843 14.761,-17.126 2.223,2.123 c 2.157,2.059 3.448,4.935 3.59,7.996 0.142,3.062 -0.878,6.057 -2.834,8.327 -1.957,2.27 -4.69,3.629 -7.599,3.778 -2.909,0.149 -5.755,-0.924 -7.912,-2.983 l -2.223,-2.122 z"
   id="path50" />
				<path
   style="clip-rule:evenodd;fill:#011625;fill-rule:evenodd"
   d="m 134.314,169.172 c -0.018,-1.426 -0.197,-2.865 -0.555,-4.313 -1.255,-5.082 -6.853,-8.345 -12.811,-9.112 -5.955,-0.767 -12.149,0.979 -14.536,5.4 -1.365,2.527 -1.553,4.705 -0.995,6.542 0.555,1.827 1.873,3.341 3.662,4.522 4.988,3.287 13.724,3.958 17.71,2.584 1.843,-0.637 3.644,-1.404 5.397,-2.282 -1.002,5.746 -4.738,11.189 -9.724,16.094 -10.836,10.661 -27.65,18.753 -36.807,21.728 -0.492,0.16 -0.765,0.705 -0.612,1.219 0.153,0.514 0.676,0.802 1.168,0.642 9.338,-3.034 26.48,-11.298 37.53,-22.17 5.709,-5.615 9.776,-11.937 10.471,-18.583 12.905,-7.201 23.502,-20.266 32.563,-31.262 0.337,-0.405 0.292,-1.022 -0.099,-1.374 -0.391,-0.349 -0.979,-0.305 -1.316,0.103 -8.692,10.546 -18.779,23.09 -31.046,30.262 z m -1.876,1.045 c 0.071,-1.603 -0.08,-3.231 -0.487,-4.873 -1.085,-4.399 -6.073,-7 -11.231,-7.664 -3.161,-0.406 -6.412,-0.071 -8.962,1.119 -1.603,0.747 -2.923,1.831 -3.719,3.306 -1.045,1.935 -1.271,3.59 -0.843,4.994 0.429,1.414 1.493,2.55 2.879,3.462 4.546,2.997 12.5,3.634 16.128,2.382 2.139,-0.737 4.216,-1.657 6.235,-2.726 z"
   id="path52" />
				<circle
   style="fill:#417ba4"
   cx="363"
   cy="262"
   r="6"
   id="circle54" />
				<path
   style="clip-rule:evenodd;fill:#417ba4;fill-rule:evenodd"
   d="m 136.384,303.394 c 1.071,-0.401 2.198,-0.935 3.067,-1.708 1.032,-0.917 1.452,-2.099 1.733,-3.343 0.362,-1.599 0.507,-3.301 0.946,-4.902 0.162,-0.595 0.475,-0.82 0.609,-0.919 0.339,-0.252 0.682,-0.32 1.004,-0.294 0.382,0.029 0.907,0.181 1.253,0.855 0.049,0.097 0.113,0.244 0.156,0.445 0.031,0.148 0.052,0.609 0.085,0.8 0.083,0.469 0.152,0.938 0.218,1.409 0.217,1.569 0.342,2.902 1.028,4.344 0.931,1.957 1.864,3.154 3.129,3.685 1.224,0.513 2.686,0.416 4.555,0.014 0.178,-0.045 0.354,-0.084 0.528,-0.116 0.824,-0.151 1.612,0.418 1.774,1.282 0.162,0.863 -0.362,1.704 -1.179,1.894 -0.17,0.04 -0.338,0.077 -0.504,0.112 -2.526,0.658 -5.45,3.006 -7.149,5.062 -0.523,0.634 -1.29,2.407 -2.072,3.537 -0.577,0.835 -1.226,1.384 -1.771,1.579 -0.365,0.131 -0.672,0.11 -0.926,0.044 -0.37,-0.095 -0.676,-0.306 -0.911,-0.641 -0.128,-0.183 -0.247,-0.429 -0.304,-0.742 -0.027,-0.151 -0.03,-0.534 -0.029,-0.708 -0.16,-0.577 -0.355,-1.14 -0.497,-1.723 -0.339,-1.389 -1.004,-2.268 -1.794,-3.43 -0.739,-1.087 -1.533,-1.771 -2.697,-2.316 -0.151,-0.039 -1.373,-0.354 -1.804,-0.534 -0.63,-0.265 -0.931,-0.709 -1.04,-0.948 -0.185,-0.405 -0.204,-0.759 -0.167,-1.055 0.055,-0.436 0.241,-0.809 0.571,-1.11 0.204,-0.187 0.509,-0.369 0.918,-0.458 0.315,-0.069 1.153,-0.109 1.27,-0.115 z m 7.167,-2.264 c 0.056,0.133 0.117,0.266 0.181,0.401 1.363,2.866 2.888,4.467 4.742,5.243 l 0.062,0.025 c -1.24,0.969 -2.363,2.052 -3.22,3.09 -0.354,0.428 -0.821,1.316 -1.327,2.226 -0.459,-1.57 -1.209,-2.68 -2.153,-4.07 -0.722,-1.06 -1.477,-1.858 -2.406,-2.508 0.721,-0.389 1.408,-0.845 2.007,-1.377 0.997,-0.887 1.656,-1.914 2.114,-3.03 z"
   id="path56" />
			</g>
		</g>
	</g>
	<path
   style="fill:#303030"
   d="m 134.521,404.04466 -3.504,-6.36 h -0.984 v 6.36 h -4.104 v -16.848 h 6.888 c 1.328,0 2.456,0.232 3.384,0.696 0.944,0.464 1.648,1.104 2.112,1.92 0.464,0.8 0.696,1.696 0.696,2.688 0,1.12 -0.32,2.12 -0.96,3 -0.624,0.88 -1.552,1.504 -2.784,1.872 l 3.888,6.672 z m -4.488,-9.264 h 2.544 c 0.752,0 1.312,-0.184 1.68,-0.552 0.384,-0.368 0.576,-0.888 0.576,-1.56 0,-0.64 -0.192,-1.144 -0.576,-1.512 -0.368,-0.368 -0.928,-0.552 -1.68,-0.552 h -2.544 z m 24.177,2.352 c 0,0.384 -0.024,0.784 -0.072,1.2 h -9.288 c 0.064,0.832 0.328,1.472 0.792,1.92 0.48,0.432 1.064,0.648 1.752,0.648 1.024,0 1.736,-0.432 2.136,-1.296 h 4.368 c -0.224,0.88 -0.632,1.672 -1.224,2.376 -0.576,0.704 -1.304,1.256 -2.184,1.656 -0.88,0.4 -1.864,0.6 -2.952,0.6 -1.312,0 -2.48,-0.28 -3.504,-0.84 -1.024,-0.56 -1.824,-1.36 -2.4,-2.4 -0.576,-1.04 -0.864,-2.256 -0.864,-3.648 0,-1.392 0.28,-2.608 0.84,-3.648 0.576,-1.04 1.376,-1.84 2.4,-2.4 1.024,-0.56 2.2,-0.84 3.528,-0.84 1.296,0 2.448,0.272 3.456,0.816 1.008,0.544 1.792,1.32 2.352,2.328 0.576,1.008 0.864,2.184 0.864,3.528 z m -4.2,-1.08 c 0,-0.704 -0.24,-1.264 -0.72,-1.68 -0.48,-0.416 -1.08,-0.624 -1.8,-0.624 -0.688,0 -1.272,0.2 -1.752,0.6 -0.464,0.4 -0.752,0.968 -0.864,1.704 z m 11.813,8.184 c -1.168,0 -2.208,-0.2 -3.12,-0.6 -0.912,-0.4 -1.632,-0.944 -2.16,-1.632 -0.528,-0.704 -0.824,-1.488 -0.888,-2.352 h 4.056 c 0.048,0.464 0.264,0.84 0.648,1.128 0.384,0.288 0.856,0.432 1.416,0.432 0.512,0 0.904,-0.096 1.176,-0.288 0.288,-0.208 0.432,-0.472 0.432,-0.792 0,-0.384 -0.2,-0.664 -0.6,-0.84 -0.4,-0.192 -1.048,-0.4 -1.944,-0.624 -0.96,-0.224 -1.76,-0.456 -2.4,-0.696 -0.64,-0.256 -1.192,-0.648 -1.656,-1.176 -0.464,-0.544 -0.696,-1.272 -0.696,-2.184 0,-0.768 0.208,-1.464 0.624,-2.088 0.432,-0.64 1.056,-1.144 1.872,-1.512 0.832,-0.368 1.816,-0.552 2.952,-0.552 1.68,0 3,0.416 3.96,1.248 0.976,0.832 1.536,1.936 1.68,3.312 h -3.792 c -0.064,-0.464 -0.272,-0.832 -0.624,-1.104 -0.336,-0.272 -0.784,-0.408 -1.344,-0.408 -0.48,0 -0.848,0.096 -1.104,0.288 -0.256,0.176 -0.384,0.424 -0.384,0.744 0,0.384 0.2,0.672 0.6,0.864 0.416,0.192 1.056,0.384 1.92,0.576 0.992,0.256 1.8,0.512 2.424,0.768 0.624,0.24 1.168,0.64 1.632,1.2 0.48,0.544 0.728,1.28 0.744,2.208 0,0.784 -0.224,1.488 -0.672,2.112 -0.432,0.608 -1.064,1.088 -1.896,1.44 -0.816,0.352 -1.768,0.528 -2.856,0.528 z m 21.159,-13.584 v 13.392 h -4.104 v -1.824 c -0.416,0.592 -0.984,1.072 -1.704,1.44 -0.704,0.352 -1.488,0.528 -2.352,0.528 -1.024,0 -1.928,-0.224 -2.712,-0.672 -0.784,-0.464 -1.392,-1.128 -1.824,-1.992 -0.432,-0.864 -0.648,-1.88 -0.648,-3.048 v -7.824 h 4.08 v 7.272 c 0,0.896 0.232,1.592 0.696,2.088 0.464,0.496 1.088,0.744 1.872,0.744 0.8,0 1.432,-0.248 1.896,-0.744 0.464,-0.496 0.696,-1.192 0.696,-2.088 v -7.272 z m 7.051,-4.368 v 17.76 h -4.104 v -17.76 z m 10.439,14.28 v 3.48 h -2.088 c -1.488,0 -2.648,-0.36 -3.48,-1.08 -0.832,-0.736 -1.248,-1.928 -1.248,-3.576 v -5.328 h -1.632 v -3.408 h 1.632 v -3.264 h 4.104 v 3.264 h 2.688 v 3.408 h -2.688 v 5.376 c 0,0.4 0.096,0.688 0.288,0.864 0.192,0.176 0.512,0.264 0.96,0.264 z m 22.443,3.48 h -4.104 l -6.864,-10.392 v 10.392 h -4.104 v -16.848 h 4.104 l 6.864,10.44 v -10.44 h 4.104 z m 9.071,0.192 c -1.312,0 -2.496,-0.28 -3.552,-0.84 -1.04,-0.56 -1.864,-1.36 -2.472,-2.4 -0.592,-1.04 -0.888,-2.256 -0.888,-3.648 0,-1.376 0.304,-2.584 0.912,-3.624 0.608,-1.056 1.44,-1.864 2.496,-2.424 1.056,-0.56 2.24,-0.84 3.552,-0.84 1.312,0 2.496,0.28 3.552,0.84 1.056,0.56 1.888,1.368 2.496,2.424 0.608,1.04 0.912,2.248 0.912,3.624 0,1.376 -0.312,2.592 -0.936,3.648 -0.608,1.04 -1.448,1.84 -2.52,2.4 -1.056,0.56 -2.24,0.84 -3.552,0.84 z m 0,-3.552 c 0.784,0 1.448,-0.288 1.992,-0.864 0.56,-0.576 0.84,-1.4 0.84,-2.472 0,-1.072 -0.272,-1.896 -0.816,-2.472 -0.528,-0.576 -1.184,-0.864 -1.968,-0.864 -0.8,0 -1.464,0.288 -1.992,0.864 -0.528,0.56 -0.792,1.384 -0.792,2.472 0,1.072 0.256,1.896 0.768,2.472 0.528,0.576 1.184,0.864 1.968,0.864 z m 16.65,-0.12 v 3.48 h -2.088 c -1.488,0 -2.648,-0.36 -3.48,-1.08 -0.832,-0.736 -1.248,-1.928 -1.248,-3.576 v -5.328 h -1.632 v -3.408 h 1.632 v -3.264 h 4.104 v 3.264 h 2.688 v 3.408 h -2.688 v 5.376 c 0,0.4 0.096,0.688 0.288,0.864 0.192,0.176 0.512,0.264 0.96,0.264 z m 18.34,-13.368 v 3.288 h -6.864 v 3.552 h 5.136 v 3.192 h -5.136 v 6.816 h -4.104 v -16.848 z m 8.253,17.04 c -1.312,0 -2.496,-0.28 -3.552,-0.84 -1.04,-0.56 -1.864,-1.36 -2.472,-2.4 -0.592,-1.04 -0.888,-2.256 -0.888,-3.648 0,-1.376 0.304,-2.584 0.912,-3.624 0.608,-1.056 1.44,-1.864 2.496,-2.424 1.056,-0.56 2.24,-0.84 3.552,-0.84 1.312,0 2.496,0.28 3.552,0.84 1.056,0.56 1.888,1.368 2.496,2.424 0.608,1.04 0.912,2.248 0.912,3.624 0,1.376 -0.312,2.592 -0.936,3.648 -0.608,1.04 -1.448,1.84 -2.52,2.4 -1.056,0.56 -2.24,0.84 -3.552,0.84 z m 0,-3.552 c 0.784,0 1.448,-0.288 1.992,-0.864 0.56,-0.576 0.84,-1.4 0.84,-2.472 0,-1.072 -0.272,-1.896 -0.816,-2.472 -0.528,-0.576 -1.184,-0.864 -1.968,-0.864 -0.8,0 -1.464,0.288 -1.992,0.864 -0.528,0.56 -0.792,1.384 -0.792,2.472 0,1.072 0.256,1.896 0.768,2.472 0.528,0.576 1.184,0.864 1.968,0.864 z m 22.409,-10.032 v 13.392 h -4.104 v -1.824 c -0.416,0.592 -0.984,1.072 -1.704,1.44 -0.704,0.352 -1.488,0.528 -2.352,0.528 -1.024,0 -1.928,-0.224 -2.712,-0.672 -0.784,-0.464 -1.392,-1.128 -1.824,-1.992 -0.432,-0.864 -0.648,-1.88 -0.648,-3.048 v -7.824 h 4.08 v 7.272 c 0,0.896 0.232,1.592 0.696,2.088 0.464,0.496 1.088,0.744 1.872,0.744 0.8,0 1.432,-0.248 1.896,-0.744 0.464,-0.496 0.696,-1.192 0.696,-2.088 v -7.272 z m 11.108,-0.144 c 1.568,0 2.816,0.512 3.744,1.536 0.944,1.008 1.416,2.4 1.416,4.176 v 7.824 h -4.08 v -7.272 c 0,-0.896 -0.232,-1.592 -0.696,-2.088 -0.464,-0.496 -1.088,-0.744 -1.872,-0.744 -0.784,0 -1.408,0.248 -1.872,0.744 -0.464,0.496 -0.696,1.192 -0.696,2.088 v 7.272 h -4.104 v -13.392 h 4.104 v 1.776 c 0.416,-0.592 0.976,-1.056 1.68,-1.392 0.704,-0.352 1.496,-0.528 2.376,-0.528 z m 7.196,6.816 c 0,-1.376 0.256,-2.584 0.768,-3.624 0.528,-1.04 1.24,-1.84 2.136,-2.4 0.896,-0.56 1.896,-0.84 3,-0.84 0.88,0 1.68,0.184 2.4,0.552 0.736,0.368 1.312,0.864 1.728,1.488 v -6.216 h 4.104 v 17.76 h -4.104 v -1.92 c -0.384,0.64 -0.936,1.152 -1.656,1.536 -0.704,0.384 -1.528,0.576 -2.472,0.576 -1.104,0 -2.104,-0.28 -3,-0.84 -0.896,-0.576 -1.608,-1.384 -2.136,-2.424 -0.512,-1.056 -0.768,-2.272 -0.768,-3.648 z m 10.032,0.024 c 0,-1.024 -0.288,-1.832 -0.864,-2.424 -0.56,-0.592 -1.248,-0.888 -2.064,-0.888 -0.816,0 -1.512,0.296 -2.088,0.888 -0.56,0.576 -0.84,1.376 -0.84,2.4 0,1.024 0.28,1.84 0.84,2.448 0.576,0.592 1.272,0.888 2.088,0.888 0.816,0 1.504,-0.296 2.064,-0.888 0.576,-0.592 0.864,-1.4 0.864,-2.424 z"
   id="path64" />
	
	
<text
   xml:space="preserve"
   transform="matrix(1.7484072,0,0,1.7484072,-22.452216,-44.961513)"
   id="text1774"
   style="font-size:40px;line-height:1.25;font-family:'Atkinson Hyperlegible';-inkscape-font-specification:'Atkinson Hyperlegible';white-space:pre;shape-inside:url(#rect1776);display:inline" /><g
   aria-label="Whoops...information you requested is not available"
   transform="matrix(1.7484072,0,0,1.7484072,-129.70767,-180.22827)"
   id="text1780"
   style="font-size:10.6667px;line-height:1.25;font-family:'Atkinson Hyperlegible';-inkscape-font-specification:'Atkinson Hyperlegible';text-align:center;text-anchor:middle;white-space:pre;shape-inside:url(#rect1782);display:inline"><path
     d="m 121.09878,350.30812 h 1.20534 l 1.376,-5.88802 1.37601,5.88802 h 1.216 l 1.78134,-7.12536 h -1.09867 l -1.38667,5.88802 -1.30134,-5.88802 h -1.17334 l -1.30134,5.88802 -1.38667,-5.88802 h -1.09867 z"
     style="fill:#999999"
     id="path1887" /><path
     d="m 128.90681,343.18276 v 7.12536 h 0.896 v -2.86935 c 0,-1.13067 0.53333,-1.73867 1.39734,-1.73867 1.024,0 1.16267,0.71467 1.16267,1.52534 v 3.08268 h 0.896 v -3.34935 c 0,-1.20533 -0.46934,-2.02667 -1.74934,-2.02667 -0.896,0 -1.408,0.384 -1.70667,0.88534 v -2.63468 z"
     style="fill:#999999"
     id="path1889" /><path
     d="m 134.27215,347.68411 c 0,1.90934 1.32267,2.75201 2.53868,2.75201 1.22667,0 2.53867,-0.84267 2.53867,-2.75201 0,-1.90934 -1.312,-2.75201 -2.53867,-2.75201 -1.21601,0 -2.53868,0.84267 -2.53868,2.75201 z m 0.96001,0 c 0,-1.36534 0.82133,-1.96267 1.57867,-1.96267 0.768,0 1.57867,0.59733 1.57867,1.96267 0,1.36534 -0.81067,1.96267 -1.57867,1.96267 -0.75734,0 -1.57867,-0.59733 -1.57867,-1.96267 z"
     style="fill:#999999"
     id="path1891" /><path
     d="m 140.16017,347.68411 c 0,1.90934 1.32267,2.75201 2.53868,2.75201 1.22667,0 2.53867,-0.84267 2.53867,-2.75201 0,-1.90934 -1.312,-2.75201 -2.53867,-2.75201 -1.21601,0 -2.53868,0.84267 -2.53868,2.75201 z m 0.96001,0 c 0,-1.36534 0.82133,-1.96267 1.57867,-1.96267 0.768,0 1.57867,0.59733 1.57867,1.96267 0,1.36534 -0.81067,1.96267 -1.57867,1.96267 -0.75734,0 -1.57867,-0.59733 -1.57867,-1.96267 z"
     style="fill:#999999"
     id="path1893" /><path
     d="m 146.38953,345.01743 v 7.00803 h 0.896 v -2.51735 c 0.32,0.56534 0.88534,0.92801 1.71734,0.92801 1.20534,0 2.27201,-1.01334 2.27201,-2.75201 0,-1.74934 -1.06667,-2.75201 -2.27201,-2.75201 -0.832,0 -1.39734,0.36267 -1.71734,0.91734 l -0.24533,-0.83201 z m 0.87467,2.66668 c 0,-1.25867 0.59733,-1.98401 1.504,-1.98401 0.90667,0 1.50401,0.72534 1.50401,1.98401 0,1.25867 -0.59734,1.984 -1.50401,1.984 -0.90667,0 -1.504,-0.72533 -1.504,-1.984 z"
     style="fill:#999999"
     id="path1895" /><path
     d="m 152.01088,349.11345 c 0.352,0.90667 1.30133,1.32267 2.21867,1.32267 1.09867,0 2.15467,-0.576 2.15467,-1.57867 0,-2.25068 -3.36001,-1.19467 -3.36001,-2.47468 0,-0.45867 0.52267,-0.704 1.06667,-0.704 0.50134,0 1.02401,0.20267 1.20534,0.62933 l 0.84267,-0.30933 c -0.32,-0.736 -1.152,-1.07734 -1.98401,-1.07734 -1.024,0 -2.03734,0.52267 -2.03734,1.47201 0,2.112 3.36001,1.04533 3.36001,2.49601 0,0.48 -0.61866,0.78933 -1.248,0.78933 -0.58667,0 -1.19467,-0.256 -1.35467,-0.88533 z"
     style="fill:#999999"
     id="path1897" /><path
     d="m 157.10957,349.75345 c 0,0.37333 0.30933,0.68267 0.68267,0.68267 0.384,0 0.69333,-0.30934 0.69333,-0.68267 0,-0.384 -0.30933,-0.69334 -0.69333,-0.69334 -0.37334,0 -0.68267,0.30934 -0.68267,0.69334 z"
     style="fill:#999999"
     id="path1899" /><path
     d="m 159.29624,349.75345 c 0,0.37333 0.30934,0.68267 0.68267,0.68267 0.384,0 0.69334,-0.30934 0.69334,-0.68267 0,-0.384 -0.30934,-0.69334 -0.69334,-0.69334 -0.37333,0 -0.68267,0.30934 -0.68267,0.69334 z"
     style="fill:#999999"
     id="path1901" /><path
     d="m 161.48291,349.75345 c 0,0.37333 0.30934,0.68267 0.68267,0.68267 0.384,0 0.69334,-0.30934 0.69334,-0.68267 0,-0.384 -0.30934,-0.69334 -0.69334,-0.69334 -0.37333,0 -0.68267,0.30934 -0.68267,0.69334 z"
     style="fill:#999999"
     id="path1903" /><path
     d="m 163.74425,345.01743 v 0.71467 h 0.736 v 4.57602 h 0.89601 v -5.29069 z m 1.18401,-1.00267 c 0.37333,0 0.672,-0.29866 0.672,-0.672 0,-0.36267 -0.29867,-0.66133 -0.672,-0.66133 -0.36267,0 -0.66134,0.29866 -0.66134,0.66133 0,0.37334 0.29867,0.672 0.66134,0.672 z"
     style="fill:#999999"
     id="path1905" /><path
     d="m 166.97626,345.01743 v 5.29069 h 0.896 v -2.86935 c 0,-1.13067 0.53334,-1.73867 1.39734,-1.73867 1.024,0 1.16267,0.71467 1.16267,1.52534 v 3.08268 h 0.896 v -3.34935 c 0,-1.20533 -0.46933,-2.02667 -1.74934,-2.02667 -0.896,0 -1.408,0.384 -1.70667,0.88534 l -0.23467,-0.80001 z"
     style="fill:#999999"
     id="path1907" /><path
     d="m 172.21361,345.7321 h 0.896 v 4.57602 h 0.896 v -4.57602 h 1.09867 v -0.71467 h -1.09867 v -0.8 c 0,-0.544 0.0853,-0.68267 0.544,-0.68267 h 0.55467 v -0.75733 h -0.576 c -1.184,0 -1.41867,0.36266 -1.41867,1.45067 v 0.78933 h -0.896 z"
     style="fill:#999999"
     id="path1909" /><path
     d="m 175.55229,347.68411 c 0,1.90934 1.32267,2.75201 2.53868,2.75201 1.22667,0 2.53867,-0.84267 2.53867,-2.75201 0,-1.90934 -1.312,-2.75201 -2.53867,-2.75201 -1.21601,0 -2.53868,0.84267 -2.53868,2.75201 z m 0.96,0 c 0,-1.36534 0.82134,-1.96267 1.57868,-1.96267 0.768,0 1.57867,0.59733 1.57867,1.96267 0,1.36534 -0.81067,1.96267 -1.57867,1.96267 -0.75734,0 -1.57868,-0.59733 -1.57868,-1.96267 z"
     style="fill:#999999"
     id="path1911" /><path
     d="m 181.78164,345.01743 v 5.29069 h 0.89601 v -2.27201 c 0,-1.408 0.48,-2.17601 1.93067,-2.17601 v -0.928 c -0.88534,0 -1.51467,0.42667 -1.88801,1.06667 l -0.288,-0.98134 z"
     style="fill:#999999"
     id="path1913" /><path
     d="m 185.40832,345.01743 v 5.29069 h 0.89601 v -2.86935 c 0,-1.13067 0.512,-1.73867 1.28,-1.73867 0.97067,0 1.13067,0.71467 1.13067,1.52534 v 3.08268 h 0.896 v -2.86935 c 0,-1.13067 0.50134,-1.73867 1.26934,-1.73867 0.98134,0 1.13067,0.71467 1.13067,1.52534 v 3.08268 h 0.896 v -3.34935 c 0,-1.20533 -0.48,-2.02667 -1.70667,-2.02667 -0.736,0 -1.35467,0.27733 -1.78134,0.928 -0.23466,-0.576 -0.71467,-0.928 -1.52534,-0.928 -0.78933,0 -1.29067,0.384 -1.58933,0.88534 l -0.23467,-0.80001 z"
     style="fill:#999999"
     id="path1915" /><path
     d="m 195.86169,350.43612 c 0.928,0 1.48267,-0.32 1.80267,-0.85334 l 0.21334,0.72534 h 0.82133 c -0.096,-0.50134 -0.17066,-1.10934 -0.18133,-1.99468 l -0.0107,-1.23733 c -0.0107,-1.48267 -0.64,-2.14401 -2.10134,-2.14401 -0.94933,0 -1.73867,0.46933 -2.02667,1.28 l 0.864,0.256 c 0.11734,-0.512 0.53334,-0.82133 1.17334,-0.82133 0.85333,0 1.22667,0.50133 1.19467,1.39734 -2.16534,0.24533 -3.57335,0.608 -3.57335,1.86667 0,0.97067 0.82134,1.52534 1.82401,1.52534 z m 1.82401,-2.67734 v 0.33066 c 0,1.24801 -0.80001,1.63201 -1.63201,1.63201 -0.64,0 -1.024,-0.33067 -1.024,-0.832 0,-0.72534 1.03467,-0.96001 2.65601,-1.13067 z"
     style="fill:#999999"
     id="path1917" /><path
     d="m 199.45638,345.01743 v 0.71467 h 0.896 v 3.25335 c 0,1.09867 0.23467,1.32267 1.24801,1.32267 h 0.672 v -0.78934 h -0.48 c -0.51201,0 -0.54401,-0.13867 -0.54401,-0.68267 v -3.10401 h 1.02401 v -0.71467 h -1.02401 v -1.33333 h -0.896 v 1.33333 z"
     style="fill:#999999"
     id="path1919" /><path
     d="m 203.17905,345.01743 v 0.71467 h 0.736 v 4.57602 h 0.896 v -5.29069 z m 1.184,-1.00267 c 0.37334,0 0.672,-0.29866 0.672,-0.672 0,-0.36267 -0.29866,-0.66133 -0.672,-0.66133 -0.36267,0 -0.66133,0.29866 -0.66133,0.66133 0,0.37334 0.29866,0.672 0.66133,0.672 z"
     style="fill:#999999"
     id="path1921" /><path
     d="m 206.06972,347.68411 c 0,1.90934 1.32267,2.75201 2.53868,2.75201 1.22667,0 2.53867,-0.84267 2.53867,-2.75201 0,-1.90934 -1.312,-2.75201 -2.53867,-2.75201 -1.21601,0 -2.53868,0.84267 -2.53868,2.75201 z m 0.96,0 c 0,-1.36534 0.82134,-1.96267 1.57868,-1.96267 0.768,0 1.57867,0.59733 1.57867,1.96267 0,1.36534 -0.81067,1.96267 -1.57867,1.96267 -0.75734,0 -1.57868,-0.59733 -1.57868,-1.96267 z"
     style="fill:#999999"
     id="path1923" /><path
     d="m 212.29908,345.01743 v 5.29069 h 0.896 v -2.86935 c 0,-1.13067 0.53334,-1.73867 1.39734,-1.73867 1.024,0 1.16267,0.71467 1.16267,1.52534 v 3.08268 h 0.896 v -3.34935 c 0,-1.20533 -0.46933,-2.02667 -1.74934,-2.02667 -0.896,0 -1.408,0.384 -1.70667,0.88534 l -0.23467,-0.80001 z"
     style="fill:#999999"
     id="path1925" /><path
     d="m 222.27244,350.31878 c -0.24533,0.81067 -0.384,0.91734 -1.152,0.91734 h -0.36267 v 0.78934 h 0.45867 c 1.184,0 1.46133,-0.34134 1.84534,-1.48268 l 1.87734,-5.51468 h -0.98134 l -1.30134,4.07468 -1.30134,-4.07468 h -0.992 z"
     style="fill:#999999"
     id="path1927" /><path
     d="m 225.34446,347.68411 c 0,1.90934 1.32267,2.75201 2.53868,2.75201 1.22667,0 2.53867,-0.84267 2.53867,-2.75201 0,-1.90934 -1.312,-2.75201 -2.53867,-2.75201 -1.21601,0 -2.53868,0.84267 -2.53868,2.75201 z m 0.96001,0 c 0,-1.36534 0.82133,-1.96267 1.57867,-1.96267 0.768,0 1.57867,0.59733 1.57867,1.96267 0,1.36534 -0.81067,1.96267 -1.57867,1.96267 -0.75734,0 -1.57867,-0.59733 -1.57867,-1.96267 z"
     style="fill:#999999"
     id="path1929" /><path
     d="m 233.24848,350.43612 c 0.87467,0 1.35468,-0.384 1.65334,-0.89601 l 0.224,0.76801 h 0.67201 v -5.30135 h -0.89601 v 2.91201 c 0,1.13067 -0.50133,1.728 -1.344,1.728 -0.97067,0 -1.10934,-0.704 -1.10934,-1.52534 v -3.11467 h -0.896 v 3.38134 c 0,1.20534 0.45867,2.04801 1.696,2.04801 z"
     style="fill:#999999"
     id="path1931" /><path
     d="m 240.27785,345.01743 v 5.29069 h 0.896 v -2.27201 c 0,-1.408 0.48,-2.17601 1.93067,-2.17601 v -0.928 c -0.88533,0 -1.51467,0.42667 -1.888,1.06667 l -0.28801,-0.98134 z"
     style="fill:#999999"
     id="path1933" /><path
     d="m 246.1552,350.43612 c 0.992,0 1.71734,-0.43734 2.10134,-1.05601 l -0.864,-0.256 c -0.24534,0.32 -0.64001,0.52267 -1.23734,0.52267 -0.65067,0 -1.58934,-0.40533 -1.63201,-1.73867 h 4.07468 c 0.10667,-1.51467 -0.77867,-2.97601 -2.46401,-2.97601 -1.45067,0 -2.57067,1.06667 -2.57067,2.74134 0,1.55734 0.928,2.76268 2.59201,2.76268 z m -0.0213,-4.73602 c 0.93867,0 1.50401,0.74667 1.51468,1.49334 h -3.11468 c 0.0853,-1.06667 0.8,-1.49334 1.6,-1.49334 z"
     style="fill:#999999"
     id="path1935" /><path
     d="m 251.57387,350.43612 c 0.84267,0 1.40801,-0.36267 1.72801,-0.92801 v 1.08801 c 0,1.216 0.672,1.55734 1.39734,1.55734 0.30933,0 0.62933,-0.064 0.90667,-0.14934 v -0.832 c -0.256,0.096 -0.48,0.13867 -0.65067,0.13867 -0.544,0 -0.75734,-0.36267 -0.75734,-0.74667 v -5.54669 h -0.65067 l -0.24533,0.83201 c -0.32,-0.55467 -0.88534,-0.91734 -1.72801,-0.91734 -1.20533,0 -2.26134,1.00267 -2.26134,2.75201 0,1.73867 1.05601,2.75201 2.26134,2.75201 z m 0.24534,-4.73602 c 0.90667,0 1.504,0.72534 1.504,1.98401 0,1.25867 -0.59733,1.984 -1.504,1.984 -0.91734,0 -1.51467,-0.72533 -1.51467,-1.984 0,-1.25867 0.59733,-1.98401 1.51467,-1.98401 z"
     style="fill:#999999"
     id="path1937" /><path
     d="m 257.47257,350.43612 c 0.87467,0 1.35467,-0.384 1.65334,-0.89601 l 0.224,0.76801 h 0.672 v -5.30135 h -0.896 v 2.91201 c 0,1.13067 -0.50134,1.728 -1.34401,1.728 -0.97067,0 -1.10933,-0.704 -1.10933,-1.52534 v -3.11467 h -0.89601 v 3.38134 c 0,1.20534 0.45867,2.04801 1.69601,2.04801 z"
     style="fill:#999999"
     id="path1939" /><path
     d="m 263.76592,350.43612 c 0.992,0 1.71733,-0.43734 2.10134,-1.05601 l -0.86401,-0.256 c -0.24533,0.32 -0.64,0.52267 -1.23733,0.52267 -0.65067,0 -1.58934,-0.40533 -1.63201,-1.73867 h 4.07468 c 0.10667,-1.51467 -0.77867,-2.97601 -2.46401,-2.97601 -1.45067,0 -2.57067,1.06667 -2.57067,2.74134 0,1.55734 0.928,2.76268 2.59201,2.76268 z m -0.0213,-4.73602 c 0.93867,0 1.50401,0.74667 1.51467,1.49334 h -3.11467 c 0.0853,-1.06667 0.8,-1.49334 1.6,-1.49334 z"
     style="fill:#999999"
     id="path1941" /><path
     d="m 266.84858,349.11345 c 0.35201,0.90667 1.30134,1.32267 2.21868,1.32267 1.09867,0 2.15467,-0.576 2.15467,-1.57867 0,-2.25068 -3.36001,-1.19467 -3.36001,-2.47468 0,-0.45867 0.52267,-0.704 1.06667,-0.704 0.50134,0 1.024,0.20267 1.20534,0.62933 l 0.84267,-0.30933 c -0.32,-0.736 -1.15201,-1.07734 -1.98401,-1.07734 -1.024,0 -2.03734,0.52267 -2.03734,1.47201 0,2.112 3.36001,1.04533 3.36001,2.49601 0,0.48 -0.61867,0.78933 -1.248,0.78933 -0.58667,0 -1.19467,-0.256 -1.35467,-0.88533 z"
     style="fill:#999999"
     id="path1943" /><path
     d="m 271.75527,345.01743 v 0.71467 h 0.896 v 3.25335 c 0,1.09867 0.23467,1.32267 1.248,1.32267 h 0.67201 v -0.78934 h -0.48 c -0.51201,0 -0.54401,-0.13867 -0.54401,-0.68267 v -3.10401 h 1.02401 v -0.71467 h -1.02401 v -1.33333 h -0.896 v 1.33333 z"
     style="fill:#999999"
     id="path1945" /><path
     d="m 277.99529,350.43612 c 0.992,0 1.71733,-0.43734 2.10134,-1.05601 l -0.86401,-0.256 c -0.24533,0.32 -0.64,0.52267 -1.23733,0.52267 -0.65067,0 -1.58934,-0.40533 -1.63201,-1.73867 h 4.07468 c 0.10667,-1.51467 -0.77867,-2.97601 -2.46401,-2.97601 -1.45067,0 -2.57067,1.06667 -2.57067,2.74134 0,1.55734 0.928,2.76268 2.59201,2.76268 z m -0.0213,-4.73602 c 0.93867,0 1.50401,0.74667 1.51467,1.49334 h -3.11467 c 0.0853,-1.06667 0.8,-1.49334 1.6,-1.49334 z"
     style="fill:#999999"
     id="path1947" /><path
     d="m 283.42463,350.43612 c 0.832,0 1.39734,-0.36267 1.71734,-0.92801 l 0.23466,0.80001 h 0.84267 c -0.18133,-0.92801 -0.18133,-1.64268 -0.18133,-1.99468 v -5.13068 h -0.896 v 2.66668 c -0.32,-0.55467 -0.88534,-0.91734 -1.71734,-0.91734 -1.20534,0 -2.27201,1.01334 -2.27201,2.75201 0,1.74934 1.06667,2.75201 2.27201,2.75201 z m 0.23467,-4.73602 c 0.90667,0 1.504,0.72534 1.504,1.98401 0,1.25867 -0.59733,1.984 -1.504,1.984 -0.90667,0 -1.50401,-0.72533 -1.50401,-1.984 0,-1.25867 0.59734,-1.98401 1.50401,-1.98401 z"
     style="fill:#999999"
     id="path1949" /><path
     d="m 290.22999,345.01743 v 0.71467 h 0.736 v 4.57602 h 0.896 v -5.29069 z m 1.184,-1.00267 c 0.37334,0 0.672,-0.29866 0.672,-0.672 0,-0.36267 -0.29866,-0.66133 -0.672,-0.66133 -0.36266,0 -0.66133,0.29866 -0.66133,0.66133 0,0.37334 0.29867,0.672 0.66133,0.672 z"
     style="fill:#999999"
     id="path1951" /><path
     d="m 293.04599,349.11345 c 0.352,0.90667 1.30133,1.32267 2.21867,1.32267 1.09867,0 2.15467,-0.576 2.15467,-1.57867 0,-2.25068 -3.36001,-1.19467 -3.36001,-2.47468 0,-0.45867 0.52267,-0.704 1.06667,-0.704 0.50134,0 1.02401,0.20267 1.20534,0.62933 l 0.84267,-0.30933 c -0.32,-0.736 -1.152,-1.07734 -1.98401,-1.07734 -1.024,0 -2.03734,0.52267 -2.03734,1.47201 0,2.112 3.36001,1.04533 3.36001,2.49601 0,0.48 -0.61866,0.78933 -1.248,0.78933 -0.58667,0 -1.19467,-0.256 -1.35467,-0.88533 z"
     style="fill:#999999"
     id="path1953" /><path
     d="m 179.60561,358.35081 v 5.29068 h 0.89601 v -2.86934 c 0,-1.13067 0.53333,-1.73867 1.39734,-1.73867 1.024,0 1.16267,0.71467 1.16267,1.52533 v 3.08268 h 0.896 v -3.34934 c 0,-1.20534 -0.46934,-2.02668 -1.74934,-2.02668 -0.896,0 -1.408,0.38401 -1.70667,0.88534 l -0.23467,-0.8 z"
     style="fill:#999999"
     id="path1955" /><path
     d="m 184.97096,361.01748 c 0,1.90934 1.32267,2.75201 2.53868,2.75201 1.22667,0 2.53867,-0.84267 2.53867,-2.75201 0,-1.90934 -1.312,-2.75201 -2.53867,-2.75201 -1.21601,0 -2.53868,0.84267 -2.53868,2.75201 z m 0.96001,0 c 0,-1.36534 0.82133,-1.96267 1.57867,-1.96267 0.768,0 1.57867,0.59733 1.57867,1.96267 0,1.36534 -0.81067,1.96268 -1.57867,1.96268 -0.75734,0 -1.57867,-0.59734 -1.57867,-1.96268 z"
     style="fill:#999999"
     id="path1957" /><path
     d="m 190.66698,358.35081 v 0.71467 h 0.896 v 3.25334 c 0,1.09867 0.23467,1.32267 1.24801,1.32267 h 0.672 v -0.78934 h -0.48 c -0.512,0 -0.544,-0.13866 -0.544,-0.68266 v -3.10401 h 1.024 v -0.71467 h -1.024 v -1.33334 h -0.89601 v 1.33334 z"
     style="fill:#999999"
     id="path1959" /><path
     d="m 199.12568,363.76949 c 0.928,0 1.48267,-0.32 1.80267,-0.85333 l 0.21333,0.72533 h 0.82134 c -0.096,-0.50133 -0.17067,-1.10934 -0.18134,-1.99467 l -0.0107,-1.23734 c -0.0107,-1.48267 -0.64,-2.14401 -2.10134,-2.14401 -0.94934,0 -1.73867,0.46934 -2.02668,1.28001 l 0.86401,0.256 c 0.11733,-0.512 0.53333,-0.82134 1.17333,-0.82134 0.85334,0 1.22667,0.50134 1.19467,1.39734 -2.16534,0.24533 -3.57334,0.608 -3.57334,1.86667 0,0.97067 0.82134,1.52534 1.82401,1.52534 z m 1.824,-2.67734 v 0.33067 c 0,1.248 -0.8,1.632 -1.632,1.632 -0.64001,0 -1.02401,-0.33067 -1.02401,-0.832 0,-0.72534 1.03467,-0.96 2.65601,-1.13067 z"
     style="fill:#999999"
     id="path1961" /><path
     d="m 204.39504,363.64149 h 0.928 l 1.88801,-5.29068 h -0.97067 l -1.37601,4.11734 -1.38667,-4.11734 h -0.97067 z"
     style="fill:#999999"
     id="path1963" /><path
     d="m 209.23773,363.76949 c 0.928,0 1.48267,-0.32 1.80267,-0.85333 l 0.21334,0.72533 h 0.82133 c -0.096,-0.50133 -0.17067,-1.10934 -0.18133,-1.99467 l -0.0107,-1.23734 c -0.0107,-1.48267 -0.64,-2.14401 -2.10134,-2.14401 -0.94934,0 -1.73867,0.46934 -2.02667,1.28001 l 0.864,0.256 c 0.11733,-0.512 0.53334,-0.82134 1.17334,-0.82134 0.85333,0 1.22667,0.50134 1.19467,1.39734 -2.16534,0.24533 -3.57335,0.608 -3.57335,1.86667 0,0.97067 0.82134,1.52534 1.82401,1.52534 z m 1.824,-2.67734 v 0.33067 c 0,1.248 -0.8,1.632 -1.632,1.632 -0.64,0 -1.024,-0.33067 -1.024,-0.832 0,-0.72534 1.03467,-0.96 2.656,-1.13067 z"
     style="fill:#999999"
     id="path1965" /><path
     d="m 213.09908,358.35081 v 0.71467 h 0.73601 v 4.57601 h 0.896 v -5.29068 z m 1.18401,-1.00267 c 0.37333,0 0.672,-0.29867 0.672,-0.672 0,-0.36267 -0.29867,-0.66134 -0.672,-0.66134 -0.36267,0 -0.66134,0.29867 -0.66134,0.66134 0,0.37333 0.29867,0.672 0.66134,0.672 z"
     style="fill:#999999"
     id="path1967" /><path
     d="m 216.33109,362.31882 c 0,1.09867 0.23467,1.32267 1.24801,1.32267 h 0.39467 v -0.78934 h -0.20267 c -0.50134,0 -0.544,-0.13866 -0.544,-0.68266 v -5.64269 h -0.89601 z"
     style="fill:#999999"
     id="path1969" /><path
     d="m 220.36311,363.76949 c 0.928,0 1.48267,-0.32 1.80267,-0.85333 l 0.21333,0.72533 h 0.82134 c -0.096,-0.50133 -0.17067,-1.10934 -0.18133,-1.99467 l -0.0107,-1.23734 c -0.0107,-1.48267 -0.64,-2.14401 -2.10134,-2.14401 -0.94934,0 -1.73867,0.46934 -2.02667,1.28001 l 0.864,0.256 c 0.11733,-0.512 0.53333,-0.82134 1.17334,-0.82134 0.85333,0 1.22667,0.50134 1.19467,1.39734 -2.16534,0.24533 -3.57335,0.608 -3.57335,1.86667 0,0.97067 0.82134,1.52534 1.82401,1.52534 z m 1.824,-2.67734 v 0.33067 c 0,1.248 -0.8,1.632 -1.632,1.632 -0.64,0 -1.024,-0.33067 -1.024,-0.832 0,-0.72534 1.03467,-0.96 2.656,-1.13067 z"
     style="fill:#999999"
     id="path1971" /><path
     d="m 224.49113,356.51613 v 7.12536 h 0.66134 l 0.23466,-0.8 c 0.32001,0.56533 0.88534,0.928 1.71734,0.928 1.20534,0 2.27201,-1.00267 2.27201,-2.75201 0,-1.73867 -1.06667,-2.75201 -2.27201,-2.75201 -0.832,0 -1.39733,0.36267 -1.71734,0.91734 v -2.66668 z m 2.37868,2.51735 c 0.90667,0 1.504,0.72533 1.504,1.984 0,1.25867 -0.59733,1.98401 -1.504,1.98401 -0.90667,0 -1.50401,-0.72534 -1.50401,-1.98401 0,-1.25867 0.59734,-1.984 1.50401,-1.984 z"
     style="fill:#999999"
     id="path1973" /><path
     d="m 230.52849,362.31882 c 0,1.09867 0.23466,1.32267 1.248,1.32267 h 0.39467 v -0.78934 h -0.20267 c -0.50133,0 -0.544,-0.13866 -0.544,-0.68266 v -5.64269 h -0.896 z"
     style="fill:#999999"
     id="path1975" /><path
     d="m 235.3285,363.76949 c 0.99201,0 1.71734,-0.43733 2.10134,-1.056 l -0.864,-0.256 c -0.24533,0.32 -0.64,0.52267 -1.23734,0.52267 -0.65067,0 -1.58934,-0.40534 -1.632,-1.73868 h 4.07468 c 0.10666,-1.51467 -0.77867,-2.97601 -2.46401,-2.97601 -1.45067,0 -2.57068,1.06667 -2.57068,2.74135 0,1.55733 0.92801,2.76267 2.59201,2.76267 z m -0.0213,-4.73601 c 0.93867,0 1.504,0.74667 1.51467,1.49333 h -3.11468 c 0.0853,-1.06667 0.80001,-1.49333 1.60001,-1.49333 z"
     style="fill:#999999"
     id="path1977" /></g></g>
</svg>
