<?xml version="1.0" encoding="UTF-8" standalone="no"?>
<!-- Created with Inkscape (http://www.inkscape.org/) -->

<svg
   width="33.318604mm"
   height="32.26862mm"
   viewBox="0 0 33.318604 32.26862"
   version="1.1"
   id="svg5"
   xml:space="preserve"
   xmlns="http://www.w3.org/2000/svg"
   xmlns:svg="http://www.w3.org/2000/svg"><defs
     id="defs2" /><g
     id="g52305"
     transform="matrix(0.03527778,0,0,-0.03527778,-20.049357,156.98753)"><path
       d="M 1360.8087,3916.1383 H 1080.391 v 392.6202 c -20.8387,-4.8557 -40.1717,-3.3699 -40.1717,-3.3699 l -38.9945,36.553 7.0533,64.751 45.6321,-47.9143 85.7888,-0.9109 h 10.0473 l 34.6789,-71.187 96.742,-1.8243 25.5549,-101.304 47.4564,-25.555 0.9134,-99.4797 39.2434,-35.5923 -33.5266,-106.7868 v 0"
       style="fill:#ffffff;fill-opacity:1;fill-rule:evenodd;stroke:none;stroke-width:0.24888"
       id="path52311" /><path
       d="m 821.03097,3836.2554 -21.66,13.3524 -11.6625,7.1902 -2.36187,1.4584 -29.32052,5.0348 -10.99052,1.8915 -14.71875,2.5261 -11.18465,-2.7899 -4.2434,-1.0577 -30.40314,-7.5884 -8.70581,-27.9566 62.29707,-1.4186 60.68184,-23.7755 45.89591,-45.2638 25.56492,-51.8366 1.05525,-19.0991 29.08905,17.78 0.92086,8.1906 1.03036,9.1638 -1.89149,5.1618 -1.48581,4.0542 -11.75707,32.103 -0.6446,1.7596 -0.35839,0.9756 -1.71727,2.1827 -16.87653,21.4658 -11.10252,14.1165 -1.61772,1.4933 -16.43104,15.1418 -16.44845,15.1493 -0.95321,0.5948 v 0"
       style="fill:#313b68;fill-opacity:1;fill-rule:evenodd;stroke:none;stroke-width:0.24888"
       id="path52313" /><path
       d="m 900.36385,3704.7026 -29.08905,-17.78 1.70482,-30.9009 -15.48529,-26.9984 20.43302,24.7486 20.36831,32.5584 2.06819,18.3723 v 0"
       style="fill:#39447d;fill-opacity:1;fill-rule:evenodd;stroke:none;stroke-width:0.24888"
       id="path52315" /><path
       d="m 657.29576,3825.902 16.11695,2.4739 2.3671,-0.06 8.70581,27.9566 -4.4201,-1.105 -5.04579,-6.4833 -17.72397,-22.7825 v 0"
       style="fill:#39447d;fill-opacity:1;fill-rule:evenodd;stroke:none;stroke-width:0.24888"
       id="path52317" /><path
       d="m 794.77167,3945.2075 -38.74559,-81.9163 29.32052,-5.0348 2.36187,-1.4584 35.00492,82.4837 -19.71625,6.0577 -8.22547,-0.1319 v 0"
       style="fill:#a52a76;fill-opacity:1;fill-rule:evenodd;stroke:none;stroke-width:0.24888"
       id="path52319" /><path
       d="m 801.34458,3959.1149 12.18515,4.5595 15.55996,-9.3729 37.79487,89.0641 -13.32751,5.8636 -10.40566,-1.8641 -17.73516,-37.3568 -24.07165,-50.8934 v 0"
       style="fill:#228acf;fill-opacity:1;fill-rule:evenodd;stroke:none;stroke-width:0.24888"
       id="path52321" /><path
       d="m 911.35438,4023.8062 -50.93074,-79.2259 14.38525,0.065 6.91139,-7.327 45.88843,76.4135 -12.54851,8.4445 -3.70582,1.6302 v 0"
       style="fill:#70cdef;fill-opacity:1;fill-rule:evenodd;stroke:none;stroke-width:0.24888"
       id="path52323" /><path
       d="m 870.11004,3917.9825 -19.6391,11.115 -51.09997,-79.4897 21.66,-13.3524 49.07907,81.7271 v 0"
       style="fill:#228acf;fill-opacity:1;fill-rule:evenodd;stroke:none;stroke-width:0.24888"
       id="path52325" /><path
       d="m 745.03556,3865.1827 26.06268,81.3712 -16.57041,4.2335 -7.95669,-5.3758 -27.43898,-80.4927 11.18465,2.7899 14.71875,-2.5261 v 0"
       style="fill:#d62571;fill-opacity:1;fill-rule:evenodd;stroke:none;stroke-width:0.24888"
       id="path52327" /><path
       d="m 759.96336,3963.8112 14.83074,-5.7167 27.27472,85.1566 -10.94572,2.3096 -13.1956,-8.1781 -26.71475,-78.3548 8.75061,4.7834 v 0"
       style="fill:#e8643e;fill-opacity:1;fill-rule:evenodd;stroke:none;stroke-width:0.24888"
       id="path52329" /><path
       d="m 739.2939,3952.5146 20.22645,73.4643 0.36586,1.334 5.58237,21.1996 c -6.49576,-4.9104 -13.18814,-10 -16.27673,-12.444 l -0.22399,-0.7939 -5.7093,-4.3181 -4.91787,-24.995 -9.27823,-6.5654 -16.6401,-53.4196 10.66948,-2.3195 16.20206,8.8576 v 0"
       style="fill:#7145a0;fill-opacity:1;fill-rule:evenodd;stroke:none;stroke-width:0.24888"
       id="path52331" /><path
       d="m 739.2939,3952.5146 -16.20206,-8.8576 -10.66948,2.3195 -27.93674,-89.7037 30.40314,7.5884 20.34094,73.8849 4.0642,14.7685 v 0"
       style="fill:#228acf;fill-opacity:1;fill-rule:evenodd;stroke:none;stroke-width:0.24888"
       id="path52333" /><path
       d="m 722.27551,4015.0979 11.76952,159.5816 -19.69634,8.564 -12.82228,-83.9422 5.61971,-95.637 1.21951,0.9234 13.90988,10.5102 v 0"
       style="fill:#ee982d;fill-opacity:1;fill-rule:evenodd;stroke:none;stroke-width:0.24888"
       id="path52335" /><path
       d="m 758.53728,4251.9915 -24.49972,-228.0036 9.221,6.9686 40.09949,203.8076 -1.889,2.0084 -18.61122,19.7486 -4.32055,-4.5296 v 0"
       style="fill:#8cca4b;fill-opacity:1;fill-rule:evenodd;stroke:none;stroke-width:0.24888"
       id="path52337" /><path
       d="m 1025.5155,3934.1547 -7.6406,-6.986 9.3728,-24.1936 0.4579,0.4181 7.9517,-10.0224 2.1429,-19.3504 -73.21046,-49.8406 1.17471,-3.1359 27.28717,20.0274 62.19008,35.5624 -1.4933,4.3379 -11.1921,32.5187 4.9477,3.9995 -2.2026,9.8008 -2.8721,12.7949 -2.0333,-1.543 -7.1926,7.2474 -7.6879,-11.6352 v 0"
       style="fill:#e61c8c;fill-opacity:1;fill-rule:evenodd;stroke:none;stroke-width:0.24888"
       id="path52339" /><path
       d="m 993.87541,3802.3107 -94.93764,-71.0377 1.48581,-4.0542 156.26412,90.627 47.3867,37.984 -17.1503,0.8114 -2.4739,0.7541 -52.4589,-43.1458 -38.11589,-11.9388 v 0"
       style="fill:#228acf;fill-opacity:1;fill-rule:evenodd;stroke:none;stroke-width:0.24888"
       id="path52341" /><path
       d="m 1133.487,3854.4336 -232.20229,-141.5404 -0.92086,-8.1906 169.48705,103.6061 45.7441,-9.9153 124.7509,39.6589 61.6152,77.5534 3.1807,9.4674 -71.1498,-49.4499 -100.505,-21.1896 v 0"
       style="fill:#2fb667;fill-opacity:1;fill-rule:evenodd;stroke:none;stroke-width:0.24888"
       id="path52343" /><path
       d="m 870.21955,3706.0217 -25.56492,51.8366 -45.89591,45.2638 -60.68184,23.7755 -62.29707,1.4186 -21.72147,-69.7386 102.67954,4.5595 65.85605,-105.973 7.42159,4.5346 41.25928,25.2239 -1.05525,19.0991 v 0"
       style="fill:#27b0eb;fill-opacity:1;fill-rule:evenodd;stroke:none;stroke-width:0.24888"
       id="path52345" /><path
       d="m 687.85545,3574.7999 -67.81772,74.5419 34.02061,109.2358 -52.91506,-2.3519 c -5.04852,-6.0105 -8.30437,-9.8581 -8.30437,-9.8581 l -16.0383,-77.2374 18.52412,-55.0546 52.4922,-59.8715 4.27177,-1.2638 35.76675,21.8596 v 0"
       style="fill:#70cdef;fill-opacity:1;fill-rule:evenodd;stroke:none;stroke-width:0.24888"
       id="path52347" /><path
       d="m 654.05834,3758.5776 -34.02061,-109.2358 67.81772,-74.5419 134.73848,82.3642 -65.85605,105.973 z m 127.78652,-86.9959 -62.95411,-41.4111 -50.1505,44.201 23.73939,67.9019 65.978,-4.3206 23.38722,-66.3712 v 0"
       style="fill:#a9dfef;fill-opacity:1;fill-rule:evenodd;stroke:none;stroke-width:0.24888"
       id="path52349" /><path
       d="m 601.14328,3756.2257 52.91506,2.3519 21.72147,69.7386 -2.3671,0.06 -16.11695,-2.4739 c 0,-0.03 -0.006,-0.065 -0.0177,-0.107 -0.9313,-3.6038 -38.93598,-49.1064 -56.13481,-69.5693 v 0"
       style="fill:#1cafba;fill-opacity:1;fill-rule:evenodd;stroke:none;stroke-width:0.24888"
       id="path52351" /><path
       d="m 692.47964,3742.2735 -23.73939,-67.9019 50.1505,-44.201 62.95411,41.4111 -23.38722,66.3712 -65.978,4.3206 v 0"
       style="fill:#fbfbfc;fill-opacity:1;fill-rule:evenodd;stroke:none;stroke-width:0.24888"
       id="path52353" /><path
       d="m 830.01552,3661.6987 -7.42159,-4.5346 24.96512,-40.1766 9.93528,12.0358 15.48529,26.9984 -1.70482,30.9009 -41.25928,-25.2239 v 0"
       style="fill:#19a5c6;fill-opacity:1;fill-rule:evenodd;stroke:none;stroke-width:0.24888"
       id="path52355" /><path
       d="m 844.27633,3613.0178 -150.73149,-44.469 -5.68939,6.2511 -35.76675,-21.8596 59.52481,-17.6013 79.15369,23.9253 56.19703,51.4041 2.17272,3.783 -1.5779,2.5361 -3.28272,-3.9697 v 0"
       style="fill:#16a75b;fill-opacity:1;fill-rule:evenodd;stroke:none;stroke-width:0.24888"
       id="path52357" /><path
       d="m 693.54484,3568.5488 150.73149,44.469 3.28272,3.9697 -24.96512,40.1766 -134.73848,-82.3642 5.68939,-6.2511 v 0"
       style="fill:#8cca4b;fill-opacity:1;fill-rule:evenodd;stroke:none;stroke-width:0.24888"
       id="path52359" /><path
       d="m 930.88894,3894.3141 59.02182,69.0541 -17.4614,18.442 -62.77243,-69.1412 12.70033,-7.5162 8.51168,-10.8387 v 0"
       style="fill:#19a5c6;fill-opacity:1;fill-rule:evenodd;stroke:none;stroke-width:0.24888"
       id="path52361" /><path
       d="m 917.52659,3878.6819 -19.89295,19.2832 -59.20101,-77.4538 16.43104,-15.1418 62.66292,73.3124 v 0"
       style="fill:#29b584;fill-opacity:1;fill-rule:evenodd;stroke:none;stroke-width:0.24888"
       id="path52363" /><path
       d="m 1017.8749,3927.1687 -65.65199,-60.0223 14.95269,-19.0418 60.0721,54.8705 -9.3728,24.1936 v 0"
       style="fill:#8cca4b;fill-opacity:1;fill-rule:evenodd;stroke:none;stroke-width:0.24888"
       id="path52365" /><path
       d="m 961.1104,3842.5695 -19.20853,15.1369 -74.31796,-67.9467 16.87653,-21.4658 27.06567,28.987 38.70576,35.3533 8.34245,7.6157 2.53608,2.3196 v 0"
       style="fill:#16a75b;fill-opacity:1;fill-rule:evenodd;stroke:none;stroke-width:0.24888"
       id="path52367" /><path
       d="m 1146.705,3928.9432 -91.4633,-52.3095 3.9646,-11.5207 13.2106,-4.0393 12.7774,9.562 110.0372,71.5628 18.4943,12.0259 -8.9572,-2.337 -33.0064,-8.6137 -25.0572,-14.3305 v 0"
       style="fill:#ee982d;fill-opacity:1;fill-rule:evenodd;stroke:none;stroke-width:0.24888"
       id="path52369" /><path
       d="m 873.94527,4060.0057 138.24773,306.2315 -9.567,8.5764 -5.46289,-3.0736 -43.81526,-92.2896 -103.49413,-217.9713 21.91137,-6.6127 2.18018,5.1393 v 0"
       style="fill:#fdfdfd;fill-opacity:1;fill-rule:evenodd;stroke:none;stroke-width:0.24888"
       id="path52371" /><path
       d="m 1066.7474,4265.5306 -91.5305,-142.3841 -54.78339,-85.2214 15.70928,-9.9801 6.46341,10.7616 49.25578,82.0258 130.25122,216.8936 -2.1529,3.2927 -5.1343,-0.5998 -48.0786,-74.7883 v 0"
       style="fill:#fdfdfd;fill-opacity:1;fill-rule:evenodd;stroke:none;stroke-width:0.24888"
       id="path52373" /><path
       d="m 1193.0389,4210.4858 -114.7335,-118.0735 -82.88693,-85.301 -9.68889,-10.6694 21.02532,-13.3624 105.7814,123.7629 18.1657,19.5395 111.5006,119.9327 -1.9587,6.1971 -5.0747,1.329 -42.1303,-43.3549 v 0"
       style="fill:#fdfdfd;fill-opacity:1;fill-rule:evenodd;stroke:none;stroke-width:0.24888"
       id="path52375" /><path
       d="m 1309.6465,4142.6064 -267.2172,-202.5209 2.8721,-12.7949 266.4655,209.9724 -0.1991,4.1214 -1.9213,1.222 v 0"
       style="fill:#fdfdfd;fill-opacity:1;fill-rule:evenodd;stroke:none;stroke-width:0.24888"
       id="path52377" /><path
       d="m 807.8727,4061.3696 96.4782,301.2066 -14.53706,3.0065 -101.09492,-296.5426 -2.84719,-8.35 22.00097,0.6795 v 0"
       style="fill:#fdfdfd;fill-opacity:1;fill-rule:evenodd;stroke:none;stroke-width:0.24888"
       id="path52379" /><path
       d="m 782.15098,4111.8822 51.78938,196.717 -3.2006,-3.335 0.0622,1.7546 c -4.46988,-8.9995 -11.75956,-22.2299 -11.75956,-22.2299 l -53.50167,-190.51 -16.3489,-58.2104 c 3.08859,2.444 9.78097,7.5336 16.27673,12.444 l 16.6824,63.3697 v 0"
       style="fill:#fdfdfd;fill-opacity:1;fill-rule:evenodd;stroke:none;stroke-width:0.24888"
       id="path52381" /><path
       d="m 772.31526,4135.7373 29.58433,145.2761 -7.34444,7.4365 -4.71627,-38.0711 -8.36983,-13.6063 1.889,-2.0084 -40.09949,-203.8076 5.7093,4.3181 0.22399,0.7939 16.3489,58.2104 6.77451,41.4584 v 0"
       style="fill:#fdfdfd;fill-opacity:1;fill-rule:evenodd;stroke:none;stroke-width:0.24888"
       id="path52383" /><path
       d="m 904.3509,4362.5762 -96.4782,-301.2066 6.96863,0.214 15.20157,29.5943 72.44887,128.0511 39.80582,91.5155 8.38724,19.2857 -0.1095,16.3066 -19.9054,7.2474 -29.95018,-29.1015 23.36482,34.0094 -19.73367,4.0841 v 0"
       style="fill:#e61c8c;fill-opacity:1;fill-rule:evenodd;stroke:none;stroke-width:0.24888"
       id="path52385" /><path
       d="m 1012.193,4366.2372 -138.24773,-306.2315 -2.18018,-5.1393 3.18317,-0.9582 12.60327,20.9308 39.77595,36.1174 84.85052,113.0361 47.0457,98.5639 -9.6366,10.1617 -37.3941,33.5191 v 0"
       style="fill:#d6da22;fill-opacity:1;fill-rule:evenodd;stroke:none;stroke-width:0.24888"
       id="path52387" /><path
       d="m 1002.2228,4062.9052 0.6571,0.2638 z m 133.9969,210.9952 -120.8635,-140.1989 -23.49422,-12.9691 -49.25578,-82.0258 59.6166,24.1986 -20.13433,-64.1513 3.64111,-2.312 9.68889,10.6694 82.88693,85.301 -75.4255,-29.2433 99.1039,80.1442 69.9775,85.3483 -16.6526,44.9925 -19.089,0.2464 v 0"
       style="fill:#e61c8c;fill-opacity:1;fill-rule:evenodd;stroke:none;stroke-width:0.24888"
       id="path52389" /><path
       d="m 975.2169,4123.1465 91.5305,142.3841 2.3096,69.4548 -19.4699,-2.2673 9.6366,-10.1617 -47.0457,-98.5639 -84.85052,-113.0361 -1.48582,-10.0971 57.17513,63.7381 -7.79989,-41.4509 v 0"
       style="fill:#34b659;fill-opacity:1;fill-rule:evenodd;stroke:none;stroke-width:0.24888"
       id="path52391" /><path
       d="m 1122.1132,4337.626 -130.25122,-216.8936 23.49422,12.9691 120.8635,140.1989 -39.4574,0.5102 51.8192,22.7103 -26.4683,40.5051 v 0"
       style="fill:#ee982d;fill-opacity:1;fill-rule:evenodd;stroke:none;stroke-width:0.24888"
       id="path52393" /><path
       d="m 953.34785,4279.4504 43.81526,92.2896 -45.70426,-25.7242 -0.88352,0.321 0.1095,-16.3066 -8.04379,-20.2663 10.70681,-30.3135 v 0"
       style="fill:#f4e630;fill-opacity:1;fill-rule:evenodd;stroke:none;stroke-width:0.24888"
       id="path52395" /><path
       d="m 953.34785,4279.4504 -10.70681,30.3135 -46.81178,-117.9515 -42.02831,-74.6813 -5.32104,-41.6849 -3.29019,-12.9268 1.10253,0.032 3.56147,-1.0727 103.49413,217.9713 v 0"
       style="fill:#228acf;fill-opacity:1;fill-rule:evenodd;stroke:none;stroke-width:0.24888"
       id="path52397" /><path
       d="m 788.71892,4069.0401 101.09492,296.5426 -0.99552,0.2041 -54.87796,-57.1876 -51.78938,-196.717 c 1.86909,-11.9363 5.32852,-34.6888 6.56794,-42.8421 v 0"
       style="fill:#27b0eb;fill-opacity:1;fill-rule:evenodd;stroke:none;stroke-width:0.24888"
       id="path52399" /><path
       d="m 902.49177,4219.229 -72.44887,-128.0511 24.40016,30.988 -0.64211,-5.0348 42.02831,74.6813 46.81178,117.9515 -0.34345,0.9806 -39.80582,-91.5155 v 0"
       style="fill:#f4e630;fill-opacity:1;fill-rule:evenodd;stroke:none;stroke-width:0.24888"
       id="path52401" /><path
       d="m 765.54075,4094.2789 53.50167,190.51 c 0,0 7.28968,13.2304 11.75956,22.2299 l 0.78646,22.4738 -33.30508,-10.9681 -3.72821,-30.0746 7.34444,-7.4365 -29.58433,-145.2761 -6.77451,-41.4584 v 0"
       style="fill:#7fd1f2;fill-opacity:1;fill-rule:evenodd;stroke:none;stroke-width:0.24888"
       id="path52403" /><path
       d="m 781.46905,4236.7725 8.36983,13.6063 -2.52862,31.7968 -24.45243,-25.6545 18.61122,-19.7486 v 0"
       style="fill:#d6da22;fill-opacity:1;fill-rule:evenodd;stroke:none;stroke-width:0.24888"
       id="path52405" /><path
       d="m 734.03756,4023.9879 24.49972,228.0036 4.32055,4.5296 -6.15977,6.5381 -7.30213,-0.2489 -13.21302,-89.0616 -2.13788,0.9308 -11.76952,-159.5816 11.76205,8.89 v 0"
       style="fill:#34b659;fill-opacity:1;fill-rule:evenodd;stroke:none;stroke-width:0.24888"
       id="path52407" /><path
       d="m 774.7941,3958.0945 -14.83074,5.7167 -8.75061,-4.7834 -4.64161,-13.6162 7.95669,5.3758 16.57041,-4.2335 3.69586,11.5406 v 0"
       style="fill:#9a359c;fill-opacity:1;fill-rule:evenodd;stroke:none;stroke-width:0.24888"
       id="path52409" /><path
       d="m 801.34458,3959.1149 -6.57291,-13.9074 8.22547,0.1319 19.71625,-6.0577 6.3763,15.0198 -15.55996,9.3729 -12.18515,-4.5595 v 0"
       style="fill:#3758aa;fill-opacity:1;fill-rule:evenodd;stroke:none;stroke-width:0.24888"
       id="path52411" /><path
       d="m 860.42364,3944.5803 -9.9527,-15.4828 19.6391,-11.115 11.61024,19.3355 -6.91139,7.327 -14.38525,-0.065 v 0"
       style="fill:#1cafba;fill-opacity:1;fill-rule:evenodd;stroke:none;stroke-width:0.24888"
       id="path52413" /><path
       d="m 904.56992,3907.0393 -6.93628,-9.0742 19.89295,-19.2832 13.36235,15.6322 -8.51168,10.8387 -12.70033,7.5162 -5.10701,-5.6297 v 0"
       style="fill:#228acf;fill-opacity:1;fill-rule:evenodd;stroke:none;stroke-width:0.24888"
       id="path52415" /><path
       d="m 952.22291,3867.1464 -10.32104,-9.44 19.20853,-15.1369 6.0652,5.5351 -14.95269,19.0418 v 0"
       style="fill:#228acf;fill-opacity:1;fill-rule:evenodd;stroke:none;stroke-width:0.24888"
       id="path52417" /><path
       d="m 972.44936,3981.8102 17.4614,-18.442 16.84414,19.7113 -21.02532,13.3624 -13.28022,-14.6317 v 0"
       style="fill:#158756;fill-opacity:1;fill-rule:evenodd;stroke:none;stroke-width:0.24888"
       id="path52419" /><path
       d="m 927.60871,4013.7315 8.53408,14.2135 -15.70928,9.9801 -9.07913,-14.1189 3.70582,-1.6302 12.54851,-8.4445 v 0"
       style="fill:#228acf;fill-opacity:1;fill-rule:evenodd;stroke:none;stroke-width:0.24888"
       id="path52421" /><path
       d="m 866.88456,4043.3656 4.88053,11.5008 -21.91137,6.6127 -6.70233,-14.114 10.40566,1.8641 13.32751,-5.8636 v 0"
       style="fill:#9a359c;fill-opacity:1;fill-rule:evenodd;stroke:none;stroke-width:0.24888"
       id="path52423" /><path
       d="m 802.06882,4043.2511 5.80388,18.1185 -22.00097,-0.6795 -7.94423,-23.3075 13.1956,8.1781 10.94572,-2.3096 v 0"
       style="fill:#3758aa;fill-opacity:1;fill-rule:evenodd;stroke:none;stroke-width:0.24888"
       id="path52425" /><path
       d="m 738.34069,4005.9615 4.91787,24.995 -9.221,-6.9686 -1.41114,-13.1484 -3.56396,-11.4434 9.27823,6.5654 v 0"
       style="fill:#e54a4c;fill-opacity:1;fill-rule:evenodd;stroke:none;stroke-width:0.24888"
       id="path52427" /><path
       d="m 720.6777,3993.4677 1.59781,21.6302 -13.90988,-10.5102 -5.03484,-23.3947 17.34691,12.2747 v 0"
       style="fill:#e54a4c;fill-opacity:1;fill-rule:evenodd;stroke:none;stroke-width:0.24888"
       id="path52429" /><path
       d="m 722.27551,4015.0979 -1.59781,-21.6302 8.38476,5.9284 3.56396,11.4434 1.41114,13.1484 -11.76205,-8.89 v 0"
       style="fill:#228acf;fill-opacity:1;fill-rule:evenodd;stroke:none;stroke-width:0.24888"
       id="path52431" /><path
       d="m 720.6777,3993.4677 -17.34691,-12.2747 -26.64008,-123.7828 -1.67098,-8.7257 5.04579,6.4833 4.4201,1.105 27.93674,89.7037 16.6401,53.4196 -8.38476,-5.9284 v 0"
       style="fill:#e61c8c;fill-opacity:1;fill-rule:evenodd;stroke:none;stroke-width:0.24888"
       id="path52433" /><path
       d="m 810.40132,4041.4941 32.75007,5.871 6.70233,14.114 -3.56147,1.0727 -1.10253,-0.032 -30.34839,-0.9358 -6.96863,-0.214 -5.80388,-18.1185 8.3325,-1.757 v 0"
       style="fill:#e61c8c;fill-opacity:1;fill-rule:evenodd;stroke:none;stroke-width:0.24888"
       id="path52435" /><path
       d="m 866.88456,4043.3656 44.46982,-19.5594 9.07913,14.1189 -6.76704,4.3007 -0.29617,0.09 -38.42204,11.5928 -3.18317,0.9582 -4.88053,-11.5008 v 0"
       style="fill:#8cca4b;fill-opacity:1;fill-rule:evenodd;stroke:none;stroke-width:0.24888"
       id="path52437" /><path
       d="m 936.14279,4027.945 -8.53408,-14.2135 40.28615,-27.1129 4.5545,-4.8084 13.28022,14.6317 -3.64111,2.312 -45.94568,29.1911 v 0"
       style="fill:#70cdef;fill-opacity:1;fill-rule:evenodd;stroke:none;stroke-width:0.24888"
       id="path52439" /><path
       d="m 1006.7549,3983.0795 -16.84414,-19.7113 23.59134,-24.9078 4.3728,-11.2917 7.6406,6.986 7.6879,11.6352 -25.3086,25.5101 1.3489,10.1991 -2.4888,1.5804 v 0"
       style="fill:#a52a76;fill-opacity:1;fill-rule:evenodd;stroke:none;stroke-width:0.24888"
       id="path52441" /><path
       d="m 952.22291,3867.1464 -21.33397,27.1677 -13.36235,-15.6322 9.73618,-9.435 14.6391,-11.5405 10.32104,9.44 v 0"
       style="fill:#27b0eb;fill-opacity:1;fill-rule:evenodd;stroke:none;stroke-width:0.24888"
       id="path52443" /><path
       d="m 897.63364,3897.9651 6.93628,9.0742 5.10701,5.6297 -10.6421,6.2941 -17.31455,18.3549 -11.61024,-19.3355 16.50819,-9.3429 11.01541,-10.6745 v 0"
       style="fill:#27b0eb;fill-opacity:1;fill-rule:evenodd;stroke:none;stroke-width:0.24888"
       id="path52445" /><path
       d="m 850.47094,3929.0975 9.9527,15.4828 -15.07713,-0.062 -16.25682,9.7834 -6.3763,-15.0198 21.35637,-6.5605 6.40118,-3.6237 v 0"
       style="fill:#8cca4b;fill-opacity:1;fill-rule:evenodd;stroke:none;stroke-width:0.24888"
       id="path52447" /><path
       d="m 777.42476,3944.9362 17.34691,0.2713 6.57291,13.9074 -14.80834,-5.5475 -11.74214,4.5271 -3.69586,-11.5406 6.32652,-1.6177 v 0"
       style="fill:#d6da22;fill-opacity:1;fill-rule:evenodd;stroke:none;stroke-width:0.24888"
       id="path52449" /><path
       d="m 746.57114,3945.4116 4.64161,13.6162 -11.91885,-6.5132 -4.0642,-14.7685 11.34144,7.6655 v 0"
       style="fill:#e0e1e5;fill-opacity:1;fill-rule:evenodd;stroke:none;stroke-width:0.24888"
       id="path52451" /><path
       d="m 958.57432,3840.2499 -8.34245,-7.6157 6.2867,-14.3255 4.81334,3.6561 3.25783,2.215 -6.01542,16.0701 v 0"
       style="fill:#27b0eb;fill-opacity:1;fill-rule:evenodd;stroke:none;stroke-width:0.24888"
       id="path52453" /><path
       d="m 957.86252,3815.245 -70.68182,-51.869 11.75707,-32.103 94.93764,71.0377 78.54149,58.763 -13.2106,4.0393 -3.9646,11.5207 -62.19008,-35.5624 -27.28717,-20.0274 -7.90193,-5.7989 v 0"
       style="fill:#7145a0;fill-opacity:1;fill-rule:evenodd;stroke:none;stroke-width:0.24888"
       id="path52455" /><path
       d="m 887.1807,3763.376 70.68182,51.869 -1.34395,3.0637 -69.98247,-53.1731 0.6446,-1.7596 v 0"
       style="fill:#b2b7be;fill-opacity:1;fill-rule:evenodd;stroke:none;stroke-width:0.24888"
       id="path52457" /><path
       d="m 956.51857,3818.3087 1.34395,-3.0637 7.90193,5.7989 -1.17471,3.1359 -3.25783,-2.215 -4.81334,-3.6561 v 0"
       style="fill:#b2b7be;fill-opacity:1;fill-rule:evenodd;stroke:none;stroke-width:0.24888"
       id="path52459" /><path
       d="m 1204.7686,3951.8874 8.9572,2.337 -18.4943,-12.0259 24.6839,10.1543 118.4593,71.7346 1.8715,5.5774 -0.01,0.017 -64.0517,-30.3484 -17.6057,-12.5833 -33.8178,-24.1687 -19.9925,-10.6944 v 0"
       style="fill:#27b0eb;fill-opacity:1;fill-rule:evenodd;stroke:none;stroke-width:0.24888"
       id="path52461" /><path
       d="m 1322.2995,3976.2005 -229.4297,-111.8789 -8.4196,-6.9263 2.4739,-0.7541 17.1503,-0.8114 29.4126,-1.3962 100.505,21.1896 71.1498,49.4499 10.7267,31.9661 6.431,19.1613 v 0"
       style="fill:#27b0eb;fill-opacity:1;fill-rule:evenodd;stroke:none;stroke-width:0.24888"
       id="path52463" /><path
       d="m 1171.7622,3943.2737 33.0064,8.6137 19.9925,10.6944 33.8178,24.1687 -7.8373,0.5276 -108.0337,7.2524 -83.6136,-67.658 32.5784,0.7691 55.0323,1.3016 25.0572,14.3305 v 0"
       style="fill:#e61c8c;fill-opacity:1;fill-rule:evenodd;stroke:none;stroke-width:0.24888"
       id="path52465" /><path
       d="m 1142.7079,3994.5305 108.0337,-7.2524 25.443,12.0557 17.7327,12.673 22.1553,47.4514 -0.4953,0.6097 -1.5904,32.1976 -1.9338,39.2906 -169.3452,-137.0256 v 0"
       style="fill:#f0be16;fill-opacity:1;fill-rule:evenodd;stroke:none;stroke-width:0.24888"
       id="path52467" /><path
       d="m 1042.4293,3940.0855 267.2172,202.5209 -43.4221,27.648 -5.5649,-22.76 -2.9368,-11.9985 -68.2129,-34.873 35.8187,4.3803 c 0,0 -69.2781,-57.0706 -71.645,-58.7207 -2.3668,-1.6501 -61.6027,-27.4514 -61.6027,-27.4514 l 21.7496,0.4679 -47.6231,-23.5465 -33.0039,-49.9626 7.1926,-7.2474 2.0333,1.543 v 0"
       style="fill:#e61c8c;fill-opacity:1;fill-rule:evenodd;stroke:none;stroke-width:0.24888"
       id="path52469" /><path
       d="m 1092.0808,4018.8311 c 0,0 59.2359,25.8013 61.6027,27.4514 2.3669,1.6501 71.645,58.7207 71.645,58.7207 l -35.8187,-4.3803 68.2129,34.873 2.9368,11.9985 -129.9575,-21.1125 -18.1657,-19.5395 -105.7814,-123.7629 2.4888,-1.5804 0.4182,3.1658 57.6231,12.7202 -1.0777,-1.6326 47.6231,23.5465 -21.7496,-0.4679 v 0"
       style="fill:#27b4e4;fill-opacity:1;fill-rule:evenodd;stroke:none;stroke-width:0.24888"
       id="path52471" /><path
       d="m 1130.702,4126.3819 129.9575,21.1125 5.5649,22.76 -6.0428,19.1314 -29.5868,-3.8501 26.8616,12.4763 -15.2538,48.3026 -111.5006,-119.9327 v 0"
       style="fill:#228acf;fill-opacity:1;fill-rule:evenodd;stroke:none;stroke-width:0.24888"
       id="path52473" /><path
       d="m 1078.3054,4092.4123 114.7335,118.0735 1.0353,15.8512 -1.7023,-6.4037 0.112,45.097 -32.6804,8.5665 -4.4948,0.057 16.6526,-44.9925 -69.9775,-85.3483 -99.1039,-80.1442 75.4255,29.2433 v 0"
       style="fill:#a52a76;fill-opacity:1;fill-rule:evenodd;stroke:none;stroke-width:0.24888"
       id="path52475" /><path
       d="m 1203.5864,4262.1209 -9.5122,-35.7839 -1.0353,-15.8512 42.1303,43.3549 -16.329,4.2807 -5.5998,-15.3807 1.0802,16.5654 -10.7342,2.8148 v 0"
       style="fill:#f4e630;fill-opacity:1;fill-rule:evenodd;stroke:none;stroke-width:0.24888"
       id="path52477" /><path
       d="m 1194.0742,4226.337 9.5122,35.7839 -11.1025,2.9094 -0.112,-45.097 1.7023,6.4037 v 0"
       style="fill:#f4f4f6;fill-opacity:1;fill-rule:evenodd;stroke:none;stroke-width:0.24888"
       id="path52479" /><path
       d="m 920.43351,4037.9251 54.78339,85.2214 7.79989,41.4509 -57.17513,-63.7381 -5.71178,-38.8874 -6.75958,-19.6565 0.29617,-0.09 6.76704,-4.3007 v 0"
       style="fill:#27b0eb;fill-opacity:1;fill-rule:evenodd;stroke:none;stroke-width:0.24888"
       id="path52481" /><path
       d="m 777.9275,4037.3826 7.94423,23.3075 -4.40765,-0.1344 c 0,0 -7.8422,-5.881 -15.9955,-12.0432 l -5.58237,-21.1996 -0.36586,-1.334 18.40715,11.4037 v 0"
       style="fill:#27b0eb;fill-opacity:1;fill-rule:evenodd;stroke:none;stroke-width:0.24888"
       id="path52483" /><path
       d="m 1195.2315,3942.1985 -110.0372,-71.5628 -12.7774,-9.562 12.0333,-3.6784 8.4196,6.9263 229.4297,111.8789 16.0752,47.8869 -118.4593,-71.7346 -24.6839,-10.1543 v 0"
       style="fill:#e61c8c;fill-opacity:1;fill-rule:evenodd;stroke:none;stroke-width:0.24888"
       id="path52485" /><path
       d="m 1315.8685,3957.0392 -10.7267,-31.9661 25.1841,17.5087 -14.4574,14.4574 v 0"
       style="fill:#228acf;fill-opacity:1;fill-rule:evenodd;stroke:none;stroke-width:0.24888"
       id="path52487" /><path
       d="m 1055.2417,3876.6337 91.4633,52.3095 -55.0323,-1.3016 -32.8745,-45.1841 -5.0498,-1.4859 1.4933,-4.3379 v 0"
       style="fill:#9a359c;fill-opacity:1;fill-rule:evenodd;stroke:none;stroke-width:0.24888"
       id="path52489" /><path
       d="m 1142.7079,3994.5305 169.3452,137.0256 -0.2862,5.7069 -266.4655,-209.9724 2.2026,-9.8008 11.5903,9.3827 83.6136,67.658 v 0"
       style="fill:#27b0eb;fill-opacity:1;fill-rule:evenodd;stroke:none;stroke-width:0.24888"
       id="path52491" /><path
       d="m 1316.0726,4059.4582 -22.1553,-47.4514 -17.7327,-12.673 64.0517,30.3484 -24.1637,29.776 v 0"
       style="fill:#f4e630;fill-opacity:1;fill-rule:evenodd;stroke:none;stroke-width:0.24888"
       id="path52493" /><path
       d="m 1066.7474,4265.5306 48.0786,74.7883 -45.769,-5.3335 -2.3096,-69.4548 v 0"
       style="fill:#228acf;fill-opacity:1;fill-rule:evenodd;stroke:none;stroke-width:0.24888"
       id="path52495" /><path
       d="m 660.58571,4450.04 16.42605,-250.0643 21.9039,150.5871 -38.32995,99.4772 v 0"
       style="fill:#27b0eb;fill-opacity:1;fill-rule:evenodd;stroke:none;stroke-width:0.24888"
       id="path52497" /><path
       d="m 568.328,4282.3523 64.43072,-385.8356 7.86211,293.0259 -14.96589,96.6798 -33.1224,-31.2319 -24.20454,27.3618 v 0"
       style="fill:#e61c8c;fill-opacity:1;fill-rule:evenodd;stroke:none;stroke-width:0.24888"
       id="path52499" /><path
       d="m 1440.0121,3893.326 -392.4334,-244.5865 273.7925,74.8332 118.6409,169.7533 v 0"
       style="fill:#70cdef;fill-opacity:1;fill-rule:evenodd;stroke:none;stroke-width:0.24888"
       id="path52501" /><path
       d="m 1512.7945,4043.2088 -193.1182,-159.711 134.9053,70.3956 58.2129,89.3154 v 0"
       style="fill:#ee982d;fill-opacity:1;fill-rule:evenodd;stroke:none;stroke-width:0.24888"
       id="path52503" /><path
       d="M 1360.8087,3916.1383 H 1080.391 v 392.6202 c -20.8387,-4.8557 -40.1717,-3.3699 -40.1717,-3.3699 l -38.9945,36.553 7.0533,64.751 45.6321,-47.9143 85.7888,-0.9109 h 10.0473 l 34.6789,-71.187 96.742,-1.8243 25.5549,-101.304 47.4564,-25.555 0.9134,-99.4797 39.2434,-35.5923 -33.5266,-106.7868 v 0"
       style="fill:#ffffff;fill-opacity:1;fill-rule:evenodd;stroke:none;stroke-width:0.24888"
       id="path52507" /><path
       d="m 821.03097,3836.2554 -21.66,13.3524 -11.6625,7.1902 -2.36187,1.4584 -29.32052,5.0348 -10.99052,1.8915 -14.71875,2.5261 -11.18465,-2.7899 -4.2434,-1.0577 -30.40314,-7.5884 -8.70581,-27.9566 62.29707,-1.4186 60.68184,-23.7755 45.89591,-45.2638 25.56492,-51.8366 1.05525,-19.0991 29.08905,17.78 0.92086,8.1906 1.03036,9.1638 -1.89149,5.1618 -1.48581,4.0542 -11.75707,32.103 -0.6446,1.7596 -0.35839,0.9756 -1.71727,2.1827 -16.87653,21.4658 -11.10252,14.1165 -1.61772,1.4933 -16.43104,15.1418 -16.44845,15.1493 -0.95321,0.5948 v 0"
       style="fill:#313b68;fill-opacity:1;fill-rule:evenodd;stroke:none;stroke-width:0.24888"
       id="path52509" /><path
       d="m 900.36385,3704.7026 -29.08905,-17.78 1.70482,-30.9009 -15.48529,-26.9984 20.43302,24.7486 20.36831,32.5584 2.06819,18.3723 v 0"
       style="fill:#39447d;fill-opacity:1;fill-rule:evenodd;stroke:none;stroke-width:0.24888"
       id="path52511" /><path
       d="m 657.29576,3825.902 16.11695,2.4739 2.3671,-0.06 8.70581,27.9566 -4.4201,-1.105 -5.04579,-6.4833 -17.72397,-22.7825 v 0"
       style="fill:#39447d;fill-opacity:1;fill-rule:evenodd;stroke:none;stroke-width:0.24888"
       id="path52513" /><path
       d="m 794.77167,3945.2075 -38.74559,-81.9163 29.32052,-5.0348 2.36187,-1.4584 35.00492,82.4837 -19.71625,6.0577 -8.22547,-0.1319 v 0"
       style="fill:#a52a76;fill-opacity:1;fill-rule:evenodd;stroke:none;stroke-width:0.24888"
       id="path52515" /><path
       d="m 801.34458,3959.1149 12.18515,4.5595 15.55996,-9.3729 37.79487,89.0641 -13.32751,5.8636 -10.40566,-1.8641 -17.73516,-37.3568 -24.07165,-50.8934 v 0"
       style="fill:#228acf;fill-opacity:1;fill-rule:evenodd;stroke:none;stroke-width:0.24888"
       id="path52517" /><path
       d="m 911.35438,4023.8062 -50.93074,-79.2259 14.38525,0.065 6.91139,-7.327 45.88843,76.4135 -12.54851,8.4445 -3.70582,1.6302 v 0"
       style="fill:#70cdef;fill-opacity:1;fill-rule:evenodd;stroke:none;stroke-width:0.24888"
       id="path52519" /><path
       d="m 870.11004,3917.9825 -19.6391,11.115 -51.09997,-79.4897 21.66,-13.3524 49.07907,81.7271 v 0"
       style="fill:#228acf;fill-opacity:1;fill-rule:evenodd;stroke:none;stroke-width:0.24888"
       id="path52521" /><path
       d="m 745.03556,3865.1827 26.06268,81.3712 -16.57041,4.2335 -7.95669,-5.3758 -27.43898,-80.4927 11.18465,2.7899 14.71875,-2.5261 v 0"
       style="fill:#d62571;fill-opacity:1;fill-rule:evenodd;stroke:none;stroke-width:0.24888"
       id="path52523" /><path
       d="m 759.96336,3963.8112 14.83074,-5.7167 27.27472,85.1566 -10.94572,2.3096 -13.1956,-8.1781 -26.71475,-78.3548 8.75061,4.7834 v 0"
       style="fill:#e8643e;fill-opacity:1;fill-rule:evenodd;stroke:none;stroke-width:0.24888"
       id="path52525" /><path
       d="m 739.2939,3952.5146 20.22645,73.4643 0.36586,1.334 5.58237,21.1996 c -6.49576,-4.9104 -13.18814,-10 -16.27673,-12.444 l -0.22399,-0.7939 -5.7093,-4.3181 -4.91787,-24.995 -9.27823,-6.5654 -16.6401,-53.4196 10.66948,-2.3195 16.20206,8.8576 v 0"
       style="fill:#7145a0;fill-opacity:1;fill-rule:evenodd;stroke:none;stroke-width:0.24888"
       id="path52527" /><path
       d="m 739.2939,3952.5146 -16.20206,-8.8576 -10.66948,2.3195 -27.93674,-89.7037 30.40314,7.5884 20.34094,73.8849 4.0642,14.7685 v 0"
       style="fill:#228acf;fill-opacity:1;fill-rule:evenodd;stroke:none;stroke-width:0.24888"
       id="path52529" /><path
       d="m 722.27551,4015.0979 11.76952,159.5816 -19.69634,8.564 -12.82228,-83.9422 5.61971,-95.637 1.21951,0.9234 13.90988,10.5102 v 0"
       style="fill:#ee982d;fill-opacity:1;fill-rule:evenodd;stroke:none;stroke-width:0.24888"
       id="path52531" /><path
       d="m 758.53728,4251.9915 -24.49972,-228.0036 9.221,6.9686 40.09949,203.8076 -1.889,2.0084 -18.61122,19.7486 -4.32055,-4.5296 v 0"
       style="fill:#8cca4b;fill-opacity:1;fill-rule:evenodd;stroke:none;stroke-width:0.24888"
       id="path52533" /><path
       d="m 1025.5155,3934.1547 -7.6406,-6.986 9.3728,-24.1936 0.4579,0.4181 7.9517,-10.0224 2.1429,-19.3504 -73.21046,-49.8406 1.17471,-3.1359 27.28717,20.0274 62.19008,35.5624 -1.4933,4.3379 -11.1921,32.5187 4.9477,3.9995 -2.2026,9.8008 -2.8721,12.7949 -2.0333,-1.543 -7.1926,7.2474 -7.6879,-11.6352 v 0"
       style="fill:#e61c8c;fill-opacity:1;fill-rule:evenodd;stroke:none;stroke-width:0.24888"
       id="path52535" /><path
       d="m 993.87541,3802.3107 -94.93764,-71.0377 1.48581,-4.0542 156.26412,90.627 47.3867,37.984 -17.1503,0.8114 -2.4739,0.7541 -52.4589,-43.1458 -38.11589,-11.9388 v 0"
       style="fill:#228acf;fill-opacity:1;fill-rule:evenodd;stroke:none;stroke-width:0.24888"
       id="path52537" /><path
       d="m 1133.487,3854.4336 -232.20229,-141.5404 -0.92086,-8.1906 169.48705,103.6061 45.7441,-9.9153 124.7509,39.6589 61.6152,77.5534 3.1807,9.4674 -71.1498,-49.4499 -100.505,-21.1896 v 0"
       style="fill:#2fb667;fill-opacity:1;fill-rule:evenodd;stroke:none;stroke-width:0.24888"
       id="path52539" /><path
       d="m 870.21955,3706.0217 -25.56492,51.8366 -45.89591,45.2638 -60.68184,23.7755 -62.29707,1.4186 -21.72147,-69.7386 102.67954,4.5595 65.85605,-105.973 7.42159,4.5346 41.25928,25.2239 -1.05525,19.0991 v 0"
       style="fill:#27b0eb;fill-opacity:1;fill-rule:evenodd;stroke:none;stroke-width:0.24888"
       id="path52541" /><path
       d="m 687.85545,3574.7999 -67.81772,74.5419 34.02061,109.2358 -52.91506,-2.3519 c -5.04852,-6.0105 -8.30437,-9.8581 -8.30437,-9.8581 l -16.0383,-77.2374 18.52412,-55.0546 52.4922,-59.8715 4.27177,-1.2638 35.76675,21.8596 v 0"
       style="fill:#70cdef;fill-opacity:1;fill-rule:evenodd;stroke:none;stroke-width:0.24888"
       id="path52543" /><path
       d="m 654.05834,3758.5776 -34.02061,-109.2358 67.81772,-74.5419 134.73848,82.3642 -65.85605,105.973 z m 127.78652,-86.9959 -62.95411,-41.4111 -50.1505,44.201 23.73939,67.9019 65.978,-4.3206 23.38722,-66.3712 v 0"
       style="fill:#a9dfef;fill-opacity:1;fill-rule:evenodd;stroke:none;stroke-width:0.24888"
       id="path52545" /><path
       d="m 601.14328,3756.2257 52.91506,2.3519 21.72147,69.7386 -2.3671,0.06 -16.11695,-2.4739 c 0,-0.03 -0.006,-0.065 -0.0177,-0.107 -0.9313,-3.6038 -38.93598,-49.1064 -56.13481,-69.5693 v 0"
       style="fill:#1cafba;fill-opacity:1;fill-rule:evenodd;stroke:none;stroke-width:0.24888"
       id="path52547" /><path
       d="m 692.47964,3742.2735 -23.73939,-67.9019 50.1505,-44.201 62.95411,41.4111 -23.38722,66.3712 -65.978,4.3206 v 0"
       style="fill:#fbfbfc;fill-opacity:1;fill-rule:evenodd;stroke:none;stroke-width:0.24888"
       id="path52549" /><path
       d="m 830.01552,3661.6987 -7.42159,-4.5346 24.96512,-40.1766 9.93528,12.0358 15.48529,26.9984 -1.70482,30.9009 -41.25928,-25.2239 v 0"
       style="fill:#19a5c6;fill-opacity:1;fill-rule:evenodd;stroke:none;stroke-width:0.24888"
       id="path52551" /><path
       d="m 844.27633,3613.0178 -150.73149,-44.469 -5.68939,6.2511 -35.76675,-21.8596 59.52481,-17.6013 79.15369,23.9253 56.19703,51.4041 2.17272,3.783 -1.5779,2.5361 -3.28272,-3.9697 v 0"
       style="fill:#16a75b;fill-opacity:1;fill-rule:evenodd;stroke:none;stroke-width:0.24888"
       id="path52553" /><path
       d="m 693.54484,3568.5488 150.73149,44.469 3.28272,3.9697 -24.96512,40.1766 -134.73848,-82.3642 5.68939,-6.2511 v 0"
       style="fill:#8cca4b;fill-opacity:1;fill-rule:evenodd;stroke:none;stroke-width:0.24888"
       id="path52555" /><path
       d="m 930.88894,3894.3141 59.02182,69.0541 -17.4614,18.442 -62.77243,-69.1412 12.70033,-7.5162 8.51168,-10.8387 v 0"
       style="fill:#19a5c6;fill-opacity:1;fill-rule:evenodd;stroke:none;stroke-width:0.24888"
       id="path52557" /><path
       d="m 917.52659,3878.6819 -19.89295,19.2832 -59.20101,-77.4538 16.43104,-15.1418 62.66292,73.3124 v 0"
       style="fill:#29b584;fill-opacity:1;fill-rule:evenodd;stroke:none;stroke-width:0.24888"
       id="path52559" /><path
       d="m 1017.8749,3927.1687 -65.65199,-60.0223 14.95269,-19.0418 60.0721,54.8705 -9.3728,24.1936 v 0"
       style="fill:#8cca4b;fill-opacity:1;fill-rule:evenodd;stroke:none;stroke-width:0.24888"
       id="path52561" /><path
       d="m 961.1104,3842.5695 -19.20853,15.1369 -74.31796,-67.9467 16.87653,-21.4658 27.06567,28.987 38.70576,35.3533 8.34245,7.6157 2.53608,2.3196 v 0"
       style="fill:#16a75b;fill-opacity:1;fill-rule:evenodd;stroke:none;stroke-width:0.24888"
       id="path52563" /><path
       d="m 1146.705,3928.9432 -91.4633,-52.3095 3.9646,-11.5207 13.2106,-4.0393 12.7774,9.562 110.0372,71.5628 18.4943,12.0259 -8.9572,-2.337 -33.0064,-8.6137 -25.0572,-14.3305 v 0"
       style="fill:#ee982d;fill-opacity:1;fill-rule:evenodd;stroke:none;stroke-width:0.24888"
       id="path52565" /><path
       d="m 873.94527,4060.0057 138.24773,306.2315 -9.567,8.5764 -5.46289,-3.0736 -43.81526,-92.2896 -103.49413,-217.9713 21.91137,-6.6127 2.18018,5.1393 v 0"
       style="fill:#fdfdfd;fill-opacity:1;fill-rule:evenodd;stroke:none;stroke-width:0.24888"
       id="path52567" /><path
       d="m 1066.7474,4265.5306 -91.5305,-142.3841 -54.78339,-85.2214 15.70928,-9.9801 6.46341,10.7616 49.25578,82.0258 130.25122,216.8936 -2.1529,3.2927 -5.1343,-0.5998 -48.0786,-74.7883 v 0"
       style="fill:#fdfdfd;fill-opacity:1;fill-rule:evenodd;stroke:none;stroke-width:0.24888"
       id="path52569" /><path
       d="m 1193.0389,4210.4858 -114.7335,-118.0735 -82.88693,-85.301 -9.68889,-10.6694 21.02532,-13.3624 105.7814,123.7629 18.1657,19.5395 111.5006,119.9327 -1.9587,6.1971 -5.0747,1.329 -42.1303,-43.3549 v 0"
       style="fill:#fdfdfd;fill-opacity:1;fill-rule:evenodd;stroke:none;stroke-width:0.24888"
       id="path52571" /><path
       d="m 1309.6465,4142.6064 -267.2172,-202.5209 2.8721,-12.7949 266.4655,209.9724 -0.1991,4.1214 -1.9213,1.222 v 0"
       style="fill:#fdfdfd;fill-opacity:1;fill-rule:evenodd;stroke:none;stroke-width:0.24888"
       id="path52573" /><path
       d="m 807.8727,4061.3696 96.4782,301.2066 -14.53706,3.0065 -101.09492,-296.5426 -2.84719,-8.35 22.00097,0.6795 v 0"
       style="fill:#fdfdfd;fill-opacity:1;fill-rule:evenodd;stroke:none;stroke-width:0.24888"
       id="path52575" /><path
       d="m 782.15098,4111.8822 51.78938,196.717 -3.2006,-3.335 0.0622,1.7546 c -4.46988,-8.9995 -11.75956,-22.2299 -11.75956,-22.2299 l -53.50167,-190.51 -16.3489,-58.2104 c 3.08859,2.444 9.78097,7.5336 16.27673,12.444 l 16.6824,63.3697 v 0"
       style="fill:#fdfdfd;fill-opacity:1;fill-rule:evenodd;stroke:none;stroke-width:0.24888"
       id="path52577" /><path
       d="m 772.31526,4135.7373 29.58433,145.2761 -7.34444,7.4365 -4.71627,-38.0711 -8.36983,-13.6063 1.889,-2.0084 -40.09949,-203.8076 5.7093,4.3181 0.22399,0.7939 16.3489,58.2104 6.77451,41.4584 v 0"
       style="fill:#fdfdfd;fill-opacity:1;fill-rule:evenodd;stroke:none;stroke-width:0.24888"
       id="path52579" /><path
       d="m 904.3509,4362.5762 -96.4782,-301.2066 6.96863,0.214 15.20157,29.5943 72.44887,128.0511 39.80582,91.5155 8.38724,19.2857 -0.1095,16.3066 -19.9054,7.2474 -29.95018,-29.1015 23.36482,34.0094 -19.73367,4.0841 v 0"
       style="fill:#e61c8c;fill-opacity:1;fill-rule:evenodd;stroke:none;stroke-width:0.24888"
       id="path52581" /><path
       d="m 1012.193,4366.2372 -138.24773,-306.2315 -2.18018,-5.1393 3.18317,-0.9582 12.60327,20.9308 39.77595,36.1174 84.85052,113.0361 47.0457,98.5639 -9.6366,10.1617 -37.3941,33.5191 v 0"
       style="fill:#d6da22;fill-opacity:1;fill-rule:evenodd;stroke:none;stroke-width:0.24888"
       id="path52583" /><path
       d="m 1002.2228,4062.9052 0.6571,0.2638 z m 133.9969,210.9952 -120.8635,-140.1989 -23.49422,-12.9691 -49.25578,-82.0258 59.6166,24.1986 -20.13433,-64.1513 3.64111,-2.312 9.68889,10.6694 82.88693,85.301 -75.4255,-29.2433 99.1039,80.1442 69.9775,85.3483 -16.6526,44.9925 -19.089,0.2464 v 0"
       style="fill:#e61c8c;fill-opacity:1;fill-rule:evenodd;stroke:none;stroke-width:0.24888"
       id="path52585" /><path
       d="m 975.2169,4123.1465 91.5305,142.3841 2.3096,69.4548 -19.4699,-2.2673 9.6366,-10.1617 -47.0457,-98.5639 -84.85052,-113.0361 -1.48582,-10.0971 57.17513,63.7381 -7.79989,-41.4509 v 0"
       style="fill:#34b659;fill-opacity:1;fill-rule:evenodd;stroke:none;stroke-width:0.24888"
       id="path52587" /><path
       d="m 1122.1132,4337.626 -130.25122,-216.8936 23.49422,12.9691 120.8635,140.1989 -39.4574,0.5102 51.8192,22.7103 -26.4683,40.5051 v 0"
       style="fill:#ee982d;fill-opacity:1;fill-rule:evenodd;stroke:none;stroke-width:0.24888"
       id="path52589" /><path
       d="m 953.34785,4279.4504 43.81526,92.2896 -45.70426,-25.7242 -0.88352,0.321 0.1095,-16.3066 -8.04379,-20.2663 10.70681,-30.3135 v 0"
       style="fill:#f4e630;fill-opacity:1;fill-rule:evenodd;stroke:none;stroke-width:0.24888"
       id="path52591" /><path
       d="m 953.34785,4279.4504 -10.70681,30.3135 -46.81178,-117.9515 -42.02831,-74.6813 -5.32104,-41.6849 -3.29019,-12.9268 1.10253,0.032 3.56147,-1.0727 103.49413,217.9713 v 0"
       style="fill:#228acf;fill-opacity:1;fill-rule:evenodd;stroke:none;stroke-width:0.24888"
       id="path52593" /><path
       d="m 788.71892,4069.0401 101.09492,296.5426 -0.99552,0.2041 -54.87796,-57.1876 -51.78938,-196.717 c 1.86909,-11.9363 5.32852,-34.6888 6.56794,-42.8421 v 0"
       style="fill:#27b0eb;fill-opacity:1;fill-rule:evenodd;stroke:none;stroke-width:0.24888"
       id="path52595" /><path
       d="m 902.49177,4219.229 -72.44887,-128.0511 24.40016,30.988 -0.64211,-5.0348 42.02831,74.6813 46.81178,117.9515 -0.34345,0.9806 -39.80582,-91.5155 v 0"
       style="fill:#f4e630;fill-opacity:1;fill-rule:evenodd;stroke:none;stroke-width:0.24888"
       id="path52597" /><path
       d="m 765.54075,4094.2789 53.50167,190.51 c 0,0 7.28968,13.2304 11.75956,22.2299 l 0.78646,22.4738 -33.30508,-10.9681 -3.72821,-30.0746 7.34444,-7.4365 -29.58433,-145.2761 -6.77451,-41.4584 v 0"
       style="fill:#7fd1f2;fill-opacity:1;fill-rule:evenodd;stroke:none;stroke-width:0.24888"
       id="path52599" /><path
       d="m 781.46905,4236.7725 8.36983,13.6063 -2.52862,31.7968 -24.45243,-25.6545 18.61122,-19.7486 v 0"
       style="fill:#d6da22;fill-opacity:1;fill-rule:evenodd;stroke:none;stroke-width:0.24888"
       id="path52601" /><path
       d="m 734.03756,4023.9879 24.49972,228.0036 4.32055,4.5296 -6.15977,6.5381 -7.30213,-0.2489 -13.21302,-89.0616 -2.13788,0.9308 -11.76952,-159.5816 11.76205,8.89 v 0"
       style="fill:#34b659;fill-opacity:1;fill-rule:evenodd;stroke:none;stroke-width:0.24888"
       id="path52603" /><path
       d="m 774.7941,3958.0945 -14.83074,5.7167 -8.75061,-4.7834 -4.64161,-13.6162 7.95669,5.3758 16.57041,-4.2335 3.69586,11.5406 v 0"
       style="fill:#9a359c;fill-opacity:1;fill-rule:evenodd;stroke:none;stroke-width:0.24888"
       id="path52605" /><path
       d="m 801.34458,3959.1149 -6.57291,-13.9074 8.22547,0.1319 19.71625,-6.0577 6.3763,15.0198 -15.55996,9.3729 -12.18515,-4.5595 v 0"
       style="fill:#3758aa;fill-opacity:1;fill-rule:evenodd;stroke:none;stroke-width:0.24888"
       id="path52607" /><path
       d="m 860.42364,3944.5803 -9.9527,-15.4828 19.6391,-11.115 11.61024,19.3355 -6.91139,7.327 -14.38525,-0.065 v 0"
       style="fill:#1cafba;fill-opacity:1;fill-rule:evenodd;stroke:none;stroke-width:0.24888"
       id="path52609" /><path
       d="m 904.56992,3907.0393 -6.93628,-9.0742 19.89295,-19.2832 13.36235,15.6322 -8.51168,10.8387 -12.70033,7.5162 -5.10701,-5.6297 v 0"
       style="fill:#228acf;fill-opacity:1;fill-rule:evenodd;stroke:none;stroke-width:0.24888"
       id="path52611" /><path
       d="m 952.22291,3867.1464 -10.32104,-9.44 19.20853,-15.1369 6.0652,5.5351 -14.95269,19.0418 v 0"
       style="fill:#228acf;fill-opacity:1;fill-rule:evenodd;stroke:none;stroke-width:0.24888"
       id="path52613" /><path
       d="m 972.44936,3981.8102 17.4614,-18.442 16.84414,19.7113 -21.02532,13.3624 -13.28022,-14.6317 v 0"
       style="fill:#158756;fill-opacity:1;fill-rule:evenodd;stroke:none;stroke-width:0.24888"
       id="path52615" /><path
       d="m 927.60871,4013.7315 8.53408,14.2135 -15.70928,9.9801 -9.07913,-14.1189 3.70582,-1.6302 12.54851,-8.4445 v 0"
       style="fill:#228acf;fill-opacity:1;fill-rule:evenodd;stroke:none;stroke-width:0.24888"
       id="path52617" /><path
       d="m 866.88456,4043.3656 4.88053,11.5008 -21.91137,6.6127 -6.70233,-14.114 10.40566,1.8641 13.32751,-5.8636 v 0"
       style="fill:#9a359c;fill-opacity:1;fill-rule:evenodd;stroke:none;stroke-width:0.24888"
       id="path52619" /><path
       d="m 802.06882,4043.2511 5.80388,18.1185 -22.00097,-0.6795 -7.94423,-23.3075 13.1956,8.1781 10.94572,-2.3096 v 0"
       style="fill:#3758aa;fill-opacity:1;fill-rule:evenodd;stroke:none;stroke-width:0.24888"
       id="path52621" /><path
       d="m 738.34069,4005.9615 4.91787,24.995 -9.221,-6.9686 -1.41114,-13.1484 -3.56396,-11.4434 9.27823,6.5654 v 0"
       style="fill:#e54a4c;fill-opacity:1;fill-rule:evenodd;stroke:none;stroke-width:0.24888"
       id="path52623" /><path
       d="m 720.6777,3993.4677 1.59781,21.6302 -13.90988,-10.5102 -5.03484,-23.3947 17.34691,12.2747 v 0"
       style="fill:#e54a4c;fill-opacity:1;fill-rule:evenodd;stroke:none;stroke-width:0.24888"
       id="path52625" /><path
       d="m 722.27551,4015.0979 -1.59781,-21.6302 8.38476,5.9284 3.56396,11.4434 1.41114,13.1484 -11.76205,-8.89 v 0"
       style="fill:#228acf;fill-opacity:1;fill-rule:evenodd;stroke:none;stroke-width:0.24888"
       id="path52627" /><path
       d="m 720.6777,3993.4677 -17.34691,-12.2747 -26.64008,-123.7828 -1.67098,-8.7257 5.04579,6.4833 4.4201,1.105 27.93674,89.7037 16.6401,53.4196 -8.38476,-5.9284 v 0"
       style="fill:#e61c8c;fill-opacity:1;fill-rule:evenodd;stroke:none;stroke-width:0.24888"
       id="path52629" /><path
       d="m 810.40132,4041.4941 32.75007,5.871 6.70233,14.114 -3.56147,1.0727 -1.10253,-0.032 -30.34839,-0.9358 -6.96863,-0.214 -5.80388,-18.1185 8.3325,-1.757 v 0"
       style="fill:#e61c8c;fill-opacity:1;fill-rule:evenodd;stroke:none;stroke-width:0.24888"
       id="path52631" /><path
       d="m 866.88456,4043.3656 44.46982,-19.5594 9.07913,14.1189 -6.76704,4.3007 -0.29617,0.09 -38.42204,11.5928 -3.18317,0.9582 -4.88053,-11.5008 v 0"
       style="fill:#8cca4b;fill-opacity:1;fill-rule:evenodd;stroke:none;stroke-width:0.24888"
       id="path52633" /><path
       d="m 936.14279,4027.945 -8.53408,-14.2135 40.28615,-27.1129 4.5545,-4.8084 13.28022,14.6317 -3.64111,2.312 -45.94568,29.1911 v 0"
       style="fill:#70cdef;fill-opacity:1;fill-rule:evenodd;stroke:none;stroke-width:0.24888"
       id="path52635" /><path
       d="m 1006.7549,3983.0795 -16.84414,-19.7113 23.59134,-24.9078 4.3728,-11.2917 7.6406,6.986 7.6879,11.6352 -25.3086,25.5101 1.3489,10.1991 -2.4888,1.5804 v 0"
       style="fill:#a52a76;fill-opacity:1;fill-rule:evenodd;stroke:none;stroke-width:0.24888"
       id="path52637" /><path
       d="m 952.22291,3867.1464 -21.33397,27.1677 -13.36235,-15.6322 9.73618,-9.435 14.6391,-11.5405 10.32104,9.44 v 0"
       style="fill:#27b0eb;fill-opacity:1;fill-rule:evenodd;stroke:none;stroke-width:0.24888"
       id="path52639" /><path
       d="m 897.63364,3897.9651 6.93628,9.0742 5.10701,5.6297 -10.6421,6.2941 -17.31455,18.3549 -11.61024,-19.3355 16.50819,-9.3429 11.01541,-10.6745 v 0"
       style="fill:#27b0eb;fill-opacity:1;fill-rule:evenodd;stroke:none;stroke-width:0.24888"
       id="path52641" /><path
       d="m 850.47094,3929.0975 9.9527,15.4828 -15.07713,-0.062 -16.25682,9.7834 -6.3763,-15.0198 21.35637,-6.5605 6.40118,-3.6237 v 0"
       style="fill:#8cca4b;fill-opacity:1;fill-rule:evenodd;stroke:none;stroke-width:0.24888"
       id="path52643" /><path
       d="m 777.42476,3944.9362 17.34691,0.2713 6.57291,13.9074 -14.80834,-5.5475 -11.74214,4.5271 -3.69586,-11.5406 6.32652,-1.6177 v 0"
       style="fill:#d6da22;fill-opacity:1;fill-rule:evenodd;stroke:none;stroke-width:0.24888"
       id="path52645" /><path
       d="m 746.57114,3945.4116 4.64161,13.6162 -11.91885,-6.5132 -4.0642,-14.7685 11.34144,7.6655 v 0"
       style="fill:#e0e1e5;fill-opacity:1;fill-rule:evenodd;stroke:none;stroke-width:0.24888"
       id="path52647" /><path
       d="m 958.57432,3840.2499 -8.34245,-7.6157 6.2867,-14.3255 4.81334,3.6561 3.25783,2.215 -6.01542,16.0701 v 0"
       style="fill:#27b0eb;fill-opacity:1;fill-rule:evenodd;stroke:none;stroke-width:0.24888"
       id="path52649" /><path
       d="m 957.86252,3815.245 -70.68182,-51.869 11.75707,-32.103 94.93764,71.0377 78.54149,58.763 -13.2106,4.0393 -3.9646,11.5207 -62.19008,-35.5624 -27.28717,-20.0274 -7.90193,-5.7989 v 0"
       style="fill:#7145a0;fill-opacity:1;fill-rule:evenodd;stroke:none;stroke-width:0.24888"
       id="path52651" /><path
       d="m 887.1807,3763.376 70.68182,51.869 -1.34395,3.0637 -69.98247,-53.1731 0.6446,-1.7596 v 0"
       style="fill:#b2b7be;fill-opacity:1;fill-rule:evenodd;stroke:none;stroke-width:0.24888"
       id="path52653" /><path
       d="m 956.51857,3818.3087 1.34395,-3.0637 7.90193,5.7989 -1.17471,3.1359 -3.25783,-2.215 -4.81334,-3.6561 v 0"
       style="fill:#b2b7be;fill-opacity:1;fill-rule:evenodd;stroke:none;stroke-width:0.24888"
       id="path52655" /><path
       d="m 1204.7686,3951.8874 8.9572,2.337 -18.4943,-12.0259 24.6839,10.1543 118.4593,71.7346 1.8715,5.5774 -0.01,0.017 -64.0517,-30.3484 -17.6057,-12.5833 -33.8178,-24.1687 -19.9925,-10.6944 v 0"
       style="fill:#27b0eb;fill-opacity:1;fill-rule:evenodd;stroke:none;stroke-width:0.24888"
       id="path52657" /><path
       d="m 1322.2995,3976.2005 -229.4297,-111.8789 -8.4196,-6.9263 2.4739,-0.7541 17.1503,-0.8114 29.4126,-1.3962 100.505,21.1896 71.1498,49.4499 10.7267,31.9661 6.431,19.1613 v 0"
       style="fill:#27b0eb;fill-opacity:1;fill-rule:evenodd;stroke:none;stroke-width:0.24888"
       id="path52659" /><path
       d="m 1171.7622,3943.2737 33.0064,8.6137 19.9925,10.6944 33.8178,24.1687 -7.8373,0.5276 -108.0337,7.2524 -83.6136,-67.658 32.5784,0.7691 55.0323,1.3016 25.0572,14.3305 v 0"
       style="fill:#e61c8c;fill-opacity:1;fill-rule:evenodd;stroke:none;stroke-width:0.24888"
       id="path52661" /><path
       d="m 1142.7079,3994.5305 108.0337,-7.2524 25.443,12.0557 17.7327,12.673 22.1553,47.4514 -0.4953,0.6097 -1.5904,32.1976 -1.9338,39.2906 -169.3452,-137.0256 v 0"
       style="fill:#f0be16;fill-opacity:1;fill-rule:evenodd;stroke:none;stroke-width:0.24888"
       id="path52663" /><path
       d="m 1042.4293,3940.0855 267.2172,202.5209 -43.4221,27.648 -5.5649,-22.76 -2.9368,-11.9985 -68.2129,-34.873 35.8187,4.3803 c 0,0 -69.2781,-57.0706 -71.645,-58.7207 -2.3668,-1.6501 -61.6027,-27.4514 -61.6027,-27.4514 l 21.7496,0.4679 -47.6231,-23.5465 -33.0039,-49.9626 7.1926,-7.2474 2.0333,1.543 v 0"
       style="fill:#e61c8c;fill-opacity:1;fill-rule:evenodd;stroke:none;stroke-width:0.24888"
       id="path52665" /><path
       d="m 1092.0808,4018.8311 c 0,0 59.2359,25.8013 61.6027,27.4514 2.3669,1.6501 71.645,58.7207 71.645,58.7207 l -35.8187,-4.3803 68.2129,34.873 2.9368,11.9985 -129.9575,-21.1125 -18.1657,-19.5395 -105.7814,-123.7629 2.4888,-1.5804 0.4182,3.1658 57.6231,12.7202 -1.0777,-1.6326 47.6231,23.5465 -21.7496,-0.4679 v 0"
       style="fill:#27b4e4;fill-opacity:1;fill-rule:evenodd;stroke:none;stroke-width:0.24888"
       id="path52667" /><path
       d="m 1130.702,4126.3819 129.9575,21.1125 5.5649,22.76 -6.0428,19.1314 -29.5868,-3.8501 26.8616,12.4763 -15.2538,48.3026 -111.5006,-119.9327 v 0"
       style="fill:#228acf;fill-opacity:1;fill-rule:evenodd;stroke:none;stroke-width:0.24888"
       id="path52669" /><path
       d="m 1078.3054,4092.4123 114.7335,118.0735 1.0353,15.8512 -1.7023,-6.4037 0.112,45.097 -32.6804,8.5665 -4.4948,0.057 16.6526,-44.9925 -69.9775,-85.3483 -99.1039,-80.1442 75.4255,29.2433 v 0"
       style="fill:#a52a76;fill-opacity:1;fill-rule:evenodd;stroke:none;stroke-width:0.24888"
       id="path52671" /><path
       d="m 1203.5864,4262.1209 -9.5122,-35.7839 -1.0353,-15.8512 42.1303,43.3549 -16.329,4.2807 -5.5998,-15.3807 1.0802,16.5654 -10.7342,2.8148 v 0"
       style="fill:#f4e630;fill-opacity:1;fill-rule:evenodd;stroke:none;stroke-width:0.24888"
       id="path52673" /><path
       d="m 1194.0742,4226.337 9.5122,35.7839 -11.1025,2.9094 -0.112,-45.097 1.7023,6.4037 v 0"
       style="fill:#f4f4f6;fill-opacity:1;fill-rule:evenodd;stroke:none;stroke-width:0.24888"
       id="path52675" /><path
       d="m 920.43351,4037.9251 54.78339,85.2214 7.79989,41.4509 -57.17513,-63.7381 -5.71178,-38.8874 -6.75958,-19.6565 0.29617,-0.09 6.76704,-4.3007 v 0"
       style="fill:#27b0eb;fill-opacity:1;fill-rule:evenodd;stroke:none;stroke-width:0.24888"
       id="path52677" /><path
       d="m 777.9275,4037.3826 7.94423,23.3075 -4.40765,-0.1344 c 0,0 -7.8422,-5.881 -15.9955,-12.0432 l -5.58237,-21.1996 -0.36586,-1.334 18.40715,11.4037 v 0"
       style="fill:#27b0eb;fill-opacity:1;fill-rule:evenodd;stroke:none;stroke-width:0.24888"
       id="path52679" /><path
       d="m 1195.2315,3942.1985 -110.0372,-71.5628 -12.7774,-9.562 12.0333,-3.6784 8.4196,6.9263 229.4297,111.8789 16.0752,47.8869 -118.4593,-71.7346 -24.6839,-10.1543 v 0"
       style="fill:#e61c8c;fill-opacity:1;fill-rule:evenodd;stroke:none;stroke-width:0.24888"
       id="path52681" /><path
       d="m 1315.8685,3957.0392 -10.7267,-31.9661 25.1841,17.5087 -14.4574,14.4574 v 0"
       style="fill:#228acf;fill-opacity:1;fill-rule:evenodd;stroke:none;stroke-width:0.24888"
       id="path52683" /><path
       d="m 1055.2417,3876.6337 91.4633,52.3095 -55.0323,-1.3016 -32.8745,-45.1841 -5.0498,-1.4859 1.4933,-4.3379 v 0"
       style="fill:#9a359c;fill-opacity:1;fill-rule:evenodd;stroke:none;stroke-width:0.24888"
       id="path52685" /><path
       d="m 1142.7079,3994.5305 169.3452,137.0256 -0.2862,5.7069 -266.4655,-209.9724 2.2026,-9.8008 11.5903,9.3827 83.6136,67.658 v 0"
       style="fill:#27b0eb;fill-opacity:1;fill-rule:evenodd;stroke:none;stroke-width:0.24888"
       id="path52687" /><path
       d="m 1316.0726,4059.4582 -22.1553,-47.4514 -17.7327,-12.673 64.0517,30.3484 -24.1637,29.776 v 0"
       style="fill:#f4e630;fill-opacity:1;fill-rule:evenodd;stroke:none;stroke-width:0.24888"
       id="path52689" /><path
       d="m 1066.7474,4265.5306 48.0786,74.7883 -45.769,-5.3335 -2.3096,-69.4548 v 0"
       style="fill:#228acf;fill-opacity:1;fill-rule:evenodd;stroke:none;stroke-width:0.24888"
       id="path52691" /><path
       d="m 660.58571,4450.04 16.42605,-250.0643 21.9039,150.5871 -38.32995,99.4772 v 0"
       style="fill:#27b0eb;fill-opacity:1;fill-rule:evenodd;stroke:none;stroke-width:0.24888"
       id="path52693" /><path
       d="m 568.328,4282.3523 64.43072,-385.8356 7.86211,293.0259 -14.96589,96.6798 -33.1224,-31.2319 -24.20454,27.3618 v 0"
       style="fill:#e61c8c;fill-opacity:1;fill-rule:evenodd;stroke:none;stroke-width:0.24888"
       id="path52695" /><path
       d="m 1440.0121,3893.326 -392.4334,-244.5865 273.7925,74.8332 118.6409,169.7533 v 0"
       style="fill:#70cdef;fill-opacity:1;fill-rule:evenodd;stroke:none;stroke-width:0.24888"
       id="path52697" /><path
       d="m 1512.7945,4043.2088 -193.1182,-159.711 134.9053,70.3956 58.2129,89.3154 v 0"
       style="fill:#ee982d;fill-opacity:1;fill-rule:evenodd;stroke:none;stroke-width:0.24888"
       id="path52699" /></g></svg>
